<svg xmlns="http://www.w3.org/2000/svg" xmlns:xlink="http://www.w3.org/1999/xlink" width="266.00005" height="545.42902" viewBox="0 0 266.00005 545.42902">
  <defs>
    <style>
      .cls-1 {
        opacity: 0.25;
      }

      .cls-2 {
        fill: url(#linear-gradient);
      }

      .cls-3 {
        opacity: 0.75;
        isolation: isolate;
        fill: url(#linear-gradient-2);
      }

      .cls-11, .cls-12, .cls-13, .cls-14, .cls-4, .cls-5, .cls-7, .cls-8, .cls-9 {
        fill: none;
        stroke-miterlimit: 10;
        stroke-width: 3px;
      }

      .cls-4 {
        stroke: #258ea8;
        stroke-dasharray: 6.468 6.468;
      }

      .cls-14, .cls-5 {
        stroke: #37b14a;
      }

      .cls-5, .cls-7, .cls-8 {
        stroke-dasharray: 6 6;
      }

      .cls-6 {
        opacity: 0.5;
      }

      .cls-7 {
        stroke: url(#linear-gradient-3);
      }

      .cls-8 {
        stroke: url(#linear-gradient-4);
      }

      .cls-9 {
        stroke: #0f4e61;
      }

      .cls-10 {
        fill: #0f4e61;
      }

      .cls-11 {
        stroke: url(#linear-gradient-5);
      }

      .cls-12 {
        stroke: url(#linear-gradient-6);
      }

      .cls-13 {
        stroke: url(#linear-gradient-7);
      }

      .cls-15 {
        fill: url(#linear-gradient-8);
      }

      .cls-16 {
        fill: url(#linear-gradient-9);
      }

      .cls-17 {
        fill: url(#linear-gradient-10);
      }

      .cls-18 {
        fill: url(#linear-gradient-11);
      }

      .cls-19 {
        fill: url(#linear-gradient-12);
      }

      .cls-20 {
        fill: url(#linear-gradient-13);
      }

      .cls-21 {
        fill: url(#linear-gradient-14);
      }

      .cls-22 {
        fill: url(#linear-gradient-15);
      }

      .cls-23 {
        fill: url(#linear-gradient-16);
      }

      .cls-24 {
        fill: url(#linear-gradient-17);
      }

      .cls-25 {
        fill: #26909f;
      }

      .cls-26 {
        fill: #fff;
      }
    </style>
    <linearGradient id="linear-gradient" x1="115.41701" y1="72.28601" x2="115.41701" y2="-139.27132" gradientTransform="matrix(1, 0, 0, -1, 0, 346.435)" gradientUnits="userSpaceOnUse">
      <stop offset="0" stop-color="#258ea8"/>
      <stop offset="0.704" stop-color="#258ea8" stop-opacity="0"/>
    </linearGradient>
    <linearGradient id="linear-gradient-2" x1="115.59301" y1="107.93514" x2="115.59301" y2="0.85006" gradientTransform="matrix(1, 0, 0, -1, 0, 346.435)" gradientUnits="userSpaceOnUse">
      <stop offset="0" stop-color="#258ea8" stop-opacity="0"/>
      <stop offset="1" stop-color="#258ea8"/>
    </linearGradient>
    <linearGradient id="linear-gradient-3" x1="-16.93737" y1="1463.4119" x2="-2.28564" y2="1463.4119" gradientTransform="matrix(1.314, -0.193, 0.149, 0.739, -139.01501, -790.44104)" gradientUnits="userSpaceOnUse">
      <stop offset="0" stop-color="#0d2d40"/>
      <stop offset="1" stop-color="#0f4e61"/>
    </linearGradient>
    <linearGradient id="linear-gradient-4" x1="14.07462" y1="1484.75923" x2="49.03792" y2="1484.75923" xlink:href="#linear-gradient-3"/>
    <linearGradient id="linear-gradient-5" x1="-2828.38135" y1="-5342.52268" x2="-2595.77684" y2="-5342.52268" gradientTransform="matrix(-0.866, -0.5, 0, 1.155, -2247.1929, 5214.3992)" gradientUnits="userSpaceOnUse">
      <stop offset="0" stop-color="#0f4e61" stop-opacity="0"/>
      <stop offset="0.245" stop-color="#0f4e61"/>
      <stop offset="0.759" stop-color="#0f4e61"/>
      <stop offset="1" stop-color="#0f4e61" stop-opacity="0"/>
    </linearGradient>
    <linearGradient id="linear-gradient-6" x1="-2828.38135" y1="-5263.29453" x2="-2595.77706" y2="-5263.29453" xlink:href="#linear-gradient-5"/>
    <linearGradient id="linear-gradient-7" x1="-2828.40097" y1="-5468.64581" x2="-2595.77705" y2="-5468.64581" gradientTransform="matrix(-0.866, -0.5, 0, -1.155, -2247.1929, -7272.75218)" gradientUnits="userSpaceOnUse">
      <stop offset="0" stop-color="#0f4e61" stop-opacity="0"/>
      <stop offset="0.529" stop-color="#0f4e61" stop-opacity="0.6"/>
      <stop offset="0.858" stop-color="#0f4e61" stop-opacity="0.192"/>
      <stop offset="1" stop-color="#0f4e61" stop-opacity="0"/>
    </linearGradient>
    <linearGradient id="linear-gradient-8" x1="121.03505" y1="163.28099" x2="96.89605" y2="187.41999" gradientTransform="matrix(1, 0, 0, -1, 0, 346.435)" gradientUnits="userSpaceOnUse">
      <stop offset="0" stop-color="#0f4e61" stop-opacity="0.6"/>
      <stop offset="0.698" stop-color="#0f4e61" stop-opacity="0.192"/>
      <stop offset="1" stop-color="#0f4e61" stop-opacity="0"/>
    </linearGradient>
    <linearGradient id="linear-gradient-9" x1="99.37574" y1="157.02434" x2="76.40186" y2="179.99721" xlink:href="#linear-gradient-8"/>
    <linearGradient id="linear-gradient-10" x1="124.41771" y1="227.21591" x2="112.79841" y2="238.83322" xlink:href="#linear-gradient-8"/>
    <linearGradient id="linear-gradient-11" x1="108.15756" y1="207.74949" x2="96.83505" y2="219.07199" xlink:href="#linear-gradient-8"/>
    <linearGradient id="linear-gradient-12" x1="120.91381" y1="230.18773" x2="105.65581" y2="245.44576" xlink:href="#linear-gradient-8"/>
    <linearGradient id="linear-gradient-13" x1="96.60486" y1="189.01176" x2="83.00381" y2="202.61182" xlink:href="#linear-gradient-8"/>
    <linearGradient id="linear-gradient-14" x1="88.8916" y1="206.70389" x2="77.26441" y2="218.33207" xlink:href="#linear-gradient-8"/>
    <linearGradient id="linear-gradient-15" x1="86.96965" y1="207.95596" x2="70.0465" y2="224.88012" xlink:href="#linear-gradient-8"/>
    <linearGradient id="linear-gradient-16" x1="-5511.83631" y1="-3156.46087" x2="-5426.22226" y2="-3156.46087" gradientTransform="matrix(0.511, 0.638, 0.699, -1.085, 5101.8291, 218.90106)" gradientUnits="userSpaceOnUse">
      <stop offset="0" stop-color="#0f4e61"/>
      <stop offset="0.617" stop-color="#0d2d40"/>
      <stop offset="0.667" stop-color="#0d2d40"/>
    </linearGradient>
    <linearGradient id="linear-gradient-17" x1="-1251.00619" y1="2680.34707" x2="-1165.32937" y2="2680.34707" gradientTransform="matrix(-0.511, 1.227, -0.699, -0.277, 1361.5111, 2375.0029)" xlink:href="#linear-gradient-3"/>
  </defs>
  <g id="Layer_2" data-name="Layer 2">
    <g id="Layer_1-2" data-name="Layer 1">
      <g>
        <g id="Layer_2-2" data-name="Layer 2">
          <g id="Layer_1-2-2" data-name="Layer 1-2">
            <g>
              <g>
                <g class="cls-1">
                  <path class="cls-2" d="M198.54406,312.932l-.379,140.36c-.019,6.763-1.175,15-6.143,21.5-4.153,5.433-10.963,9.645-22.006,10.757a32.36886,32.36886,0,0,1-19.748-4.4,46.35921,46.35921,0,0,1-10.388-8.372,30.18,30.18,0,0,0-6.965-5.4c-16.21-9.358-43.357-9.094-63.225-15.706a81.12322,81.12322,0,0,1-14.9-6.634c-13.647-7.879-22.534-19-22.5-30.529l.379-140.359c-.033,11.529,8.854,22.649,22.5,30.528a81.0593,81.0593,0,0,0,14.9,6.635c19.868,6.611,47.015,6.347,63.225,15.706a30.20683,30.20683,0,0,1,6.965,5.4,46.29089,46.29089,0,0,0,10.388,8.373,32.3851,32.3851,0,0,0,19.748,4.4c11.043-1.112,17.853-5.325,22.006-10.758C197.37005,327.937,198.52605,319.7,198.54406,312.932Z"/>
                </g>
                <path class="cls-3" d="M192.40005,334.741c6.7-8.718,6.469-20.607,5.87-27.788-2.073-24.8-31.644-51.227-68.242-62.537-16.228-5.016-36.528-7.465-55.716-4.865-19.834,2.687-35.068,14.948-39.748,25.767-7.917,18.3,9.49,37.477,35.48,46.146,23.1,7.706,56.049,6.162,70.2,21.173,5.677,6.02,15.923,14.191,30.135,12.789C181.42705,344.335,188.24406,340.148,192.40005,334.741Z"/>
                <line class="cls-4" x1="101.79205" y1="313.509" x2="101.79205" y2="172.64999"/>
                <g>
                  <path class="cls-5" d="M97.46905,302.785c-8.392-.185-12.124-2.533-15.33-4.6-2.54-1.634-3.378-3.077-5.945-4.356"/>
                  <g class="cls-6">
                    <path class="cls-7" d="M75.93205,293.527a15.421,15.421,0,0,0-3.755-1.267c-5.455-1.152-9.221-1.177-13.465,1.06"/>
                    <path class="cls-8" d="M147.84405,298.374s-10.938,1.272-26.164,2.77c-3.045.3-6.262.608-9.6.917q-1.672.156-3.382.31a59.17274,59.17274,0,0,1-6.617.244"/>
                    <path class="cls-9" d="M181.10006,294.854l-14.435,1.528,5.288,16.119c2.946.71,5.243,2.232,5.88,4.176,1,3.057-2.472,5.989-7.76,6.549s-10.389-1.465-11.391-4.522c-.638-1.943.539-3.834,2.837-5.1l-5.287-16.119-4.359.462m18.95,11.11-10.433,1.1m8.608-5.416-10.434,1.105m9.323-5.492-10.434,1.105"/>
                  </g>
                </g>
                <g>
                  <path class="cls-10" d="M208.63305,457.946c0-2.881,1.656-4.88,4.033-4.88a2.873,2.873,0,0,1,2.575,1.315h.054v-4.7h2.935v12.874h-2.809v-1.237h-.036a3.037,3.037,0,0,1-2.719,1.53C210.30805,462.843,208.63305,461.025,208.63305,457.946Zm6.734,0c0-1.549-.63-2.666-1.909-2.666-1.17,0-1.854,1.081-1.854,2.629,0,1.6.684,2.611,1.818,2.611C214.644,460.52,215.367,459.458,215.367,457.946Z"/>
                  <path class="cls-10" d="M219.07305,459.566h2.771a1.489,1.489,0,0,0,1.59217,1.37811l.00182-.00012h0a.89105.89105,0,0,0,.1-.01c.882,0,1.441-.323,1.441-.918,0-.828-1.116-.918-2.341-1.134-1.6-.27-3.313-.7-3.313-2.863,0-1.945,1.8-2.953,3.979-2.953,2.611,0,4.016,1.134,4.159,2.953h-2.7c-.108-.828-.666-1.08-1.477-1.08-.72,0-1.278.27-1.278.846,0,.648,1.044.738,2.215.954,1.62.27,3.528.685,3.528,3.043,0,2.017-1.782,3.061-4.195,3.061C220.85606,462.843,219.16305,461.6,219.07305,459.566Z"/>
                  <path class="cls-10" d="M228.88305,449.681h5.492c3.566,0,5.96,2.575,5.96,6.518a6.266,6.266,0,0,1-2.233,5.186,6.36393,6.36393,0,0,1-3.925,1.17h-5.294Zm5.06,10.191c2.089,0,3.169-1.314,3.169-3.673,0-2.341-1.134-3.853-3.133-3.853h-1.908v7.526Z"/>
                  <path class="cls-10" d="M241.57305,449.681h3.2l3.817,6.464c.2.36.883,1.638.883,1.638h.035s-.035-1.548-.035-2v-6.1h3.114v12.874h-3.2l-3.781-6.374c-.216-.342-.918-1.729-.918-1.729h-.036s.036,1.657.036,2.107v6h-3.115Z"/>
                  <path class="cls-10" d="M258.08,449.681h3.278l4.642,12.874h-3.349l-.756-2.323h-4.5l-.739,2.323h-3.2Zm3.079,8.265-.972-3.115c-.216-.667-.5-1.819-.5-1.819h-.036s-.306,1.152-.523,1.819l-.99,3.115Z"/>
                </g>
                <g>
                  <path class="cls-10" d="M209.20005,531.276h2.773a1.49,1.49,0,0,0,1.594,1.378h0a.88392.88392,0,0,0,.1-.01c.882,0,1.441-.323,1.441-.918,0-.828-1.116-.918-2.341-1.134-1.6-.27-3.313-.7-3.313-2.863,0-1.945,1.8-2.953,3.979-2.953,2.611,0,4.016,1.134,4.159,2.953h-2.7c-.108-.828-.666-1.08-1.477-1.08-.72,0-1.278.269-1.278.845,0,.649,1.044.739,2.215.954,1.62.271,3.528.685,3.528,3.043,0,2.017-1.782,3.062-4.2,3.062C210.98305,534.553,209.29005,533.311,209.20005,531.276Z"/>
                  <path class="cls-10" d="M218.36306,531.276h2.772a1.49,1.49,0,0,0,1.594,1.378h0a.86184.86184,0,0,0,.1-.01c.882,0,1.441-.323,1.441-.918,0-.828-1.116-.918-2.341-1.134-1.6-.27-3.312-.7-3.312-2.863,0-1.945,1.8-2.953,3.978-2.953,2.611,0,4.016,1.134,4.159,2.953h-2.7c-.108-.828-.666-1.08-1.477-1.08-.72,0-1.278.269-1.278.845,0,.649,1.044.739,2.215.954,1.62.271,3.528.685,3.528,3.043,0,2.017-1.782,3.062-4.195,3.062C220.14405,534.553,218.45205,533.311,218.36306,531.276Z"/>
                  <path class="cls-10" d="M228.17106,521.391h5.492c3.565,0,5.96,2.575,5.96,6.517a6.26,6.26,0,0,1-2.233,5.186,6.356,6.356,0,0,1-3.925,1.171h-5.294Zm5.06,10.191c2.089,0,3.169-1.314,3.169-3.674,0-2.34-1.134-3.852-3.133-3.852h-1.908v7.526Z"/>
                  <path class="cls-10" d="M240.86205,521.391h3.2l3.817,6.464c.2.36.883,1.638.883,1.638h.035s-.035-1.548-.035-2v-6.1h3.114v12.874h-3.2l-3.781-6.374c-.216-.342-.918-1.729-.918-1.729h-.036s.036,1.657.036,2.107v6h-3.115Z"/>
                  <path class="cls-10" d="M257.36806,521.391h3.278l4.644,12.874h-3.346l-.756-2.323h-4.5l-.738,2.323h-3.206Zm3.08,8.265-.973-3.116c-.216-.666-.5-1.818-.5-1.818h-.036s-.306,1.152-.523,1.818l-.99,3.116Z"/>
                </g>
                <g>
                  <line class="cls-4" x1="101.13206" y1="430.07599" x2="101.13206" y2="405.20001"/>
                  <line class="cls-4" x1="101.13206" y1="388.806" x2="101.13206" y2="365.92999"/>
                </g>
                <g>
                  <line class="cls-4" x1="101.13206" y1="521.43597" x2="101.13206" y2="496.56"/>
                  <line class="cls-4" x1="101.13206" y1="480.16599" x2="101.13206" y2="457.29001"/>
                </g>
                <path class="cls-11" d="M57.67505,374.623V354.645m-12.4,12.821v-7.1m24.806,21.419V361.064m11.7,27.48V368.567m13.375,27.7v-7.1m87.455,57.591V426.781m-12.4,12.82v-7.1m24.806,21.419V433.2m7.168,4.056-15.58-9c-2.435-1.406-4.777-1.68-6.536-.763l-32.228,16.783c-1.777.926-4.149.637-6.609-.8l-17.132-10.042a19.30011,19.30011,0,0,1-6.445-6.711L85.35805,372.8a19.22874,19.22874,0,0,0-6.519-6.754l-17.539-10.138c-2.453-1.416-4.81-1.683-6.573-.744l-31.842,16.961c-1.763.939-4.12.673-6.574-.744L.75005,362.4m144.636,62.531v19.978m12.4-12.82v7.1m-24.806-21.42v20.723m-11.7-27.48V430.99m-13.375-27.7v7.1M20.23405,352.672V372.65m12.4-12.821v7.1m-24.806-21.42v20.723"/>
                <path class="cls-12" d="M57.67505,466.132V446.154m-12.4,12.821v-7.1m24.806,21.419v-20.72m11.7,27.479V460.076m13.375,27.7v-7.1m87.455,57.59V518.29m-12.4,12.82v-7.1m24.806,21.419v-20.72m7.168,4.056-15.58-9c-2.435-1.406-4.777-1.68-6.536-.763l-32.228,16.783c-1.777.926-4.149.637-6.609-.8l-17.132-10.04212a19.28852,19.28852,0,0,1-6.445-6.711l-32.3-53.925a19.22885,19.22885,0,0,0-6.519-6.754l-17.536-10.135c-2.453-1.416-4.81-1.683-6.573-.744l-31.842,16.961c-1.763.94-4.12.673-6.574-.744l-15.561-8.984m144.636,62.531v19.98m12.4-12.82v7.1m-24.806-21.42V530m-11.7-27.48V522.5m-13.375-27.7v7.1m-87.671-57.719v19.978m12.4-12.821v7.1m-24.809-21.42v20.723"/>
                <path class="cls-13" d="M57.67505,394.181V374.2m-12.4-.06v-7.1m24.806,35.045V381.368m11.7,26.735V388.125m13.375,14.82v-7.1m87.455,70.47V446.339m-12.4-.059v-7.1m24.806,35.045V453.5M.75005,320.7l15.561,8.985a19.25989,19.25989,0,0,1,6.574,6.846l31.838,53.725a19.28224,19.28224,0,0,0,6.577,6.844l17.556,10.136c2.427,1.4,4.761,1.678,6.519.773l32.3-16.631c1.739-.9,4.043-.635,6.445.73l17.129,9.737a19.17083,19.17083,0,0,1,6.609,6.827l32.228,54a19.24411,19.24411,0,0,0,6.536,6.784l15.58,9m-56.809-73.247v19.969m12.4.06v7.1m-24.806-35.045v20.725m-11.7-26.735v19.978m-13.375-14.82v7.1m-87.674-70.6v19.974m12.4.059v7.1m-24.81-35.041v20.722"/>
                <line class="cls-14" x1="121.27306" y1="395.71701" x2="121.27306" y2="424.12601"/>
                <line class="cls-14" x1="132.97706" y1="403.56" x2="132.97706" y2="431.96799"/>
                <line class="cls-14" x1="145.38605" y1="411.034" x2="145.38605" y2="439.44199"/>
                <line class="cls-14" x1="121.27306" y1="489.36301" x2="121.27306" y2="517.771"/>
                <line class="cls-14" x1="132.97706" y1="494.20599" x2="132.97706" y2="522.61401"/>
                <line class="cls-14" x1="145.38605" y1="501.67899" x2="145.38605" y2="530.08698"/>
                <g>
                  <g>
                    <polygon class="cls-15" points="121.04 183.149 120.824 183.04 96.001 159.91 102.73 163.059 121.04 183.149"/>
                    <path class="cls-16" d="M83.37605,188.429l13.744-31.521-7.094-4.095-9.134,34.687c-2.128,8.763-1,14.04,2.9,16.187l.808.5C80.70005,202.043,80.18105,195.337,83.37605,188.429Z"/>
                    <path class="cls-17" d="M125.78905,104.693l-6.377-3.706c2.582,1.5.524,7.648-.816,9.966a19.00693,19.00693,0,0,1-6.372,6.939c-1.551.9-2.019,1.054-3.369.7-.333-.087-.052.968-.334.8l6.515,3.787a3.71435,3.71435,0,0,0,.923.378,6.047,6.047,0,0,0,4.467-.9,16.126,16.126,0,0,0,6.128-7.119C128.76905,110.757,128.37005,106.193,125.78905,104.693Z"/>
                    <polygon class="cls-18" points="102.676 144.167 96.194 140.401 101.957 122.241 110.159 127.008 102.676 144.167"/>
                    <path class="cls-19" d="M120.71606,94.538a5.75452,5.75452,0,0,0-1.459-.6c-2.134-.555-4.613.015-7.068,1.432a25.529,25.529,0,0,0-9.7,11.266c-2.919,6.315-2.967,12.385-.531,15.6l8.2,4.767c-2.436-3.218-2.388-9.289.531-15.6a25.538,25.538,0,0,1,9.7-11.265c2.455-1.418,4.934-1.988,7.069-1.433a5.83713,5.83713,0,0,1,1.458.6Z"/>
                    <polygon class="cls-20" points="97.12 156.908 90.026 152.813 82.134 144.693 87.539 146.39 97.12 156.908"/>
                    <path class="cls-21" d="M90.94405,125.8a3.67593,3.67593,0,0,0-.742-.571l-6.145-3.572c.265.154-.817.127-.588.354,2.478,2.458,1.023,7.373-2.347,12.158a14.571,14.571,0,0,1-4.458,4.25c-1.982,1.145-1.835,2.616-3.3,1.767l6.091,3.54c1.461.848,3.424.6,5.406-.541a14.54506,14.54506,0,0,0,4.458-4.249C92.69405,134.155,93.42205,128.261,90.94405,125.8Z"/>
                    <path class="cls-22" d="M76.33005,149.118l-8.2-4.766a5.80026,5.80026,0,0,1-1.174-.9c-3.921-3.888-2.772-13.217,2.566-20.791a22.991,22.991,0,0,1,7.051-6.72c3.138-1.811,6.246-2.2,8.557-.855l8.2,4.766c-2.311-1.343-5.419-.956-8.557.856a23.011,23.011,0,0,0-7.051,6.719c-5.337,7.574-6.487,16.9-2.566,20.792A5.80059,5.80059,0,0,0,76.33005,149.118Z"/>
                  </g>
                  <path class="cls-23" d="M120.82405,183.04c3.884-6.623,4.383-13.9,1.172-17.089l-26.908-30.279c2.421-6.007,2.358-12-.576-14.913-3.9-3.882-11.428-.885-16.774,6.68s-6.52,16.877-2.618,20.758c2.91,2.894,7.833,1.963,12.365-1.833Zm-42.134-39.893c-2.466-2.453-1.724-8.337,1.654-13.117s8.132-6.674,10.6-4.221,1.724,8.337-1.654,13.117-8.134,6.673-10.6,4.221Z"/>
                  <path class="cls-24" d="M84.38505,204.078l33.339-75.172c4.533-1.439,9.455-6.191,12.365-12.445,3.9-8.388,2.728-16.344-2.618-17.735s-12.871,4.3-16.774,12.688c-2.934,6.306-3,12.368-.576,15.58l-26.907,61.348C80.00005,195.242,80.50005,201.942,84.38505,204.078Zm31.536-80.528c-3.378-.88-4.121-5.907-1.655-11.207s7.221-8.9,10.6-8.018,4.12,5.907,1.654,11.207-7.221,8.9-10.6,8.018Z"/>
                </g>
              </g>
              <rect class="cls-25" x="79.79405" width="107.16401" height="34.248" rx="4"/>
            </g>
          </g>
        </g>
        <g>
          <path class="cls-26" d="M113.0689,17.18359c0-3.604,2.24365-6.35742,5.83008-6.35742,2.9917,0,4.75976,1.78467,5.01465,4.09619h-2.44776A2.40165,2.40165,0,0,0,118.899,12.8999c-2.24365,0-3.31445,1.86963-3.31445,4.28369,0,2.48145,1.292,4.26612,3.33154,4.26612a2.4482,2.4482,0,0,0,2.61767-2.1416h2.41407a4.30526,4.30526,0,0,1-1.34327,2.87255,5.13581,5.13581,0,0,1-3.68847,1.292C115.49956,23.47266,113.0689,20.83789,113.0689,17.18359Z"/>
          <path class="cls-26" d="M130.25494,22.249h-.0337a2.67518,2.67518,0,0,1-2.56689,1.17286c-1.78467,0-3.043-.93506-3.043-2.669,0-1.9209,1.564-2.53272,3.50195-2.80469,1.44483-.2041,2.10791-.32275,2.10791-.98584,0-.6289-.49316-1.03711-1.46191-1.03711-1.08789,0-1.61523.39112-1.68311,1.22412h-2.05664c.06787-1.52978,1.207-2.87255,3.75635-2.87255,2.61817,0,3.67188,1.17285,3.67188,3.2124v4.43652c0,.66309.102,1.0542.30615,1.207v.085h-2.22705A2.37329,2.37329,0,0,1,130.25494,22.249Zm.01709-2.10791V18.832a6.45014,6.45014,0,0,1-1.61475.51026c-1.207.272-1.80176.54394-1.80176,1.35986s.54395,1.105,1.35986,1.105C129.54107,21.80713,130.272,20.99121,130.272,20.14111Z"/>
          <path class="cls-26" d="M133.36626,20.396h2.1416a1.67766,1.67766,0,0,0,1.9043,1.44482c1.01953,0,1.59766-.39111,1.59766-1.00293,0-.833-1.10449-.918-2.29492-1.15576-1.56348-.30615-3.09375-.731-3.09375-2.63477,0-1.88672,1.56445-2.78759,3.55273-2.78759,2.29492,0,3.56934,1.13867,3.74023,2.88964h-2.09082c-.10253-.93505-.69726-1.2749-1.68359-1.2749-.90039,0-1.49512.33985-1.49512.96875,0,.748,1.15528.81592,2.39649,1.07129,1.46191.30566,3.07617.71387,3.07617,2.75342,0,1.751-1.49512,2.80469-3.6709,2.80469C134.91314,23.47266,133.502,22.249,133.36626,20.396Z"/>
          <path class="cls-26" d="M146.67779,21.82373a6.1607,6.1607,0,0,1-2.05762-.50977,4.77591,4.77591,0,0,1-1.48731-1.04589,4.10856,4.10856,0,0,1-.90039-1.479,5.4206,5.4206,0,0,1-.29785-1.82715,5.8374,5.8374,0,0,1,.28028-1.83593,4.05144,4.05144,0,0,1,.86718-1.4878,4.44871,4.44871,0,0,1,1.47852-1.03711,6.50977,6.50977,0,0,1,2.11719-.50146V10.56982h2.125v1.52979a6.5037,6.5037,0,0,1,2.11621.50146,4.463,4.463,0,0,1,1.47949,1.03711,4.1375,4.1375,0,0,1,.875,1.4878,5.67461,5.67461,0,0,1,.28906,1.83593,5.303,5.303,0,0,1-.30566,1.82715,4.29586,4.29586,0,0,1-.90137,1.479,4.64288,4.64288,0,0,1-1.4873,1.04589,6.24421,6.24421,0,0,1-2.06543.50977v1.394h-2.125Zm-2.68653-4.86182a4.53761,4.53761,0,0,0,.13672,1.13868,2.55012,2.55012,0,0,0,.459.94384,2.6386,2.6386,0,0,0,.833.69678,3.60857,3.60857,0,0,0,1.25782.38233V13.7998a3.60857,3.60857,0,0,0-1.25782.38233,2.64,2.64,0,0,0-.833.69726,2.55177,2.55177,0,0,0-.459.94336A4.54153,4.54153,0,0,0,143.99126,16.96191Zm7.51465,0a4.41511,4.41511,0,0,0-.14453-1.14746,2.76883,2.76883,0,0,0-.459-.95215,2.54617,2.54617,0,0,0-.833-.69726,3.72409,3.72409,0,0,0-1.2666-.38233v6.34083a3.71323,3.71323,0,0,0,1.2666-.38233,2.54486,2.54486,0,0,0,.833-.69678,2.78033,2.78033,0,0,0,.459-.94384A4.31812,4.31812,0,0,0,151.50591,16.96191Z"/>
        </g>
      </g>
    </g>
  </g>
</svg>
