<svg xmlns="http://www.w3.org/2000/svg" width="479" height="487.57198" viewBox="0 0 479 487.57198">
  <defs>
    <style>
      .cls-1, .cls-6 {
        fill: #1e596b;
      }

      .cls-1, .cls-5 {
        fill-rule: evenodd;
      }

      .cls-2 {
        fill: #eeaf3e;
      }

      .cls-3 {
        fill: #fff;
      }

      .cls-4 {
        fill: #b8c0c6;
      }

      .cls-5, .cls-7 {
        fill: #37b14b;
      }
    </style>
  </defs>
  <g id="Layer_2" data-name="Layer 2">
    <g id="Layer_1-2" data-name="Layer 1">
      <g>
        <path id="Combined-Shape" class="cls-1" d="M0,86.572v-61H464l15,30.5-15,30.5Z"/>
        <rect id="Rectangle-3" class="cls-2" x="294" y="25.572" width="58" height="61"/>
        <path id="SpCas9_II-A_" data-name="SpCas9 II-A " class="cls-3" d="M5.976,13.86c2.9,0,5-1.458,5-4.068,0-2.772-2.16-3.4-4.806-3.978C4.262,5.4,3.362,5.094,3.362,4.05c0-.918.918-1.512,2.322-1.512A2.219,2.219,0,0,1,8.16867,4.45486L8.172,4.482h2.5C10.476,1.89,8.604.472,5.706.472,2.844.472.774,1.782.774,4.32c0,2.682,2.106,3.294,4.41,3.816,1.962.45,3.186.7,3.186,1.962,0,1.188-1.17,1.656-2.5,1.656-1.836,0-2.718-.612-2.9-2.16H.414C.504,12.312,2.484,13.86,5.976,13.86Zm8.82,2.736V12.528h.036a2.973,2.973,0,0,0,2.664,1.314c2.376,0,4-1.89,4-4.878,0-2.88-1.566-4.878-4.014-4.878a3.227,3.227,0,0,0-2.718,1.4H14.71V4.338H12.35V16.596Zm2.178-4.788c-1.458,0-2.232-1.1-2.232-2.772,0-1.656.612-2.97,2.142-2.97,1.512,0,2.124,1.224,2.124,2.97S18.216,11.808,16.974,11.808Zm11.484,2.034a5.441,5.441,0,0,0,3.906-1.37,4.558,4.558,0,0,0,1.422-3.04H31.23A2.593,2.593,0,0,1,28.458,11.7c-2.16,0-3.528-1.89-3.528-4.518,0-2.556,1.134-4.536,3.51-4.536a2.543,2.543,0,0,1,2.718,2.142H33.75C33.48,2.34,31.608.45,28.44.45c-3.8,0-6.174,2.916-6.174,6.732C22.266,11.052,24.84,13.842,28.458,13.842Zm9.252-.054a2.831,2.831,0,0,0,2.718-1.242h.036a2.49983,2.49983,0,0,0,.286,1.026h2.36v-.09c-.216-.162-.324-.576-.324-1.278v-4.7c0-2.16-1.116-3.4-3.888-3.4-2.7,0-3.906,1.422-3.978,3.042h2.178c.072-.882.63-1.3,1.782-1.3,1.026,0,1.548.432,1.548,1.1,0,.7-.7.828-2.232,1.044-2.052.288-3.708.936-3.708,2.97C34.488,12.798,35.82,13.788,37.71,13.788Zm.594-1.71c-.864,0-1.44-.306-1.44-1.17s.63-1.152,1.908-1.44a6.82609,6.82609,0,0,0,1.71-.54v1.386C40.482,11.214,39.708,12.078,38.304,12.078Zm9.774,1.764c2.3,0,3.888-1.116,3.888-2.97,0-2.16-1.71-2.592-3.258-2.916-1.314-.27-2.538-.342-2.538-1.134,0-.666.63-1.026,1.584-1.026,1.044,0,1.674.36,1.782,1.35H51.75c-.18-1.854-1.53-3.06-3.96-3.06-2.106,0-3.762.954-3.762,2.952,0,2.016,1.62,2.466,3.276,2.79,1.26.252,2.43.342,2.43,1.224,0,.648-.612,1.062-1.692,1.062a1.776,1.776,0,0,1-2.0123-1.503l-.0037-.027H43.758C43.902,12.546,45.396,13.842,48.078,13.842Zm9.468,0c3.618,0,4.932-2.664,4.932-6.606C62.478,3.06,60.642.99,57.366.99a4.348,4.348,0,0,0-4.63394,4.04187q-.00948.13887-.01006.27813a4.2,4.2,0,0,0,4.05418,4.34093q.1779.00607.35582-.00293a3.562,3.562,0,0,0,2.862-1.35h.036a4.845,4.845,0,0,1-.774,2.9,2.108,2.108,0,0,1-1.782.774,1.778,1.778,0,0,1-1.872-1.35H53.226c.27,1.85,1.746,3.22,4.324,3.22Zm-.072-6.17a2.253,2.253,0,0,1-2.412-2.4,2.328,2.328,0,0,1,2.29553-2.36q.06725-.00093.13447.002a2.355,2.355,0,0,1,2.46373,2.241q.00363.07644.00227.153a2.332,2.332,0,0,1-2.29473,2.36869Q57.56858,7.67819,57.474,7.672Zm14.562,8.262a15.264,15.264,0,0,1-2.232-7.9A14.292,14.292,0,0,1,72.05,0H69.966A13.323,13.323,0,0,0,67.25,8.028a13.219,13.219,0,0,0,2.736,7.9Zm3.852-2.362V.702h-2.61v12.87Zm4.626,0V.702h-2.61v12.87Zm6.5-3.4V8.064h-4.88v2.108Zm3.31,3.4.846-2.736h4.644l.864,2.736h2.718L94.86.702h-2.7l-4.482,12.87Zm4.86-4.734h-3.4L92.936,5.13c.216-.684.54-1.98.54-1.98h.036s.306,1.3.522,1.98Zm6.588,7.092a13.21908,13.21908,0,0,0,2.736-7.9A13.323,13.323,0,0,0,101.79,0H99.702a14.29189,14.29189,0,0,1,2.25,8.028,15.264,15.264,0,0,1-2.232,7.9Z"/>
        <path id="_1368aa" data-name=" 1368aa" class="cls-4" d="M416.514,13.572V1.152h-2.142c-.252,1.584-1.6,2.142-3.114,2.2v1.62h2.79v8.6Zm6.444.27c2.538,0,4.644-1.242,4.644-3.8a2.955,2.955,0,0,0-2.5-3.1v-.03a2.657,2.657,0,0,0,2.106-2.592c0-2.052-1.656-3.33-4.23-3.33-2.862,0-4.392,1.638-4.482,4.068h2.34a2.036,2.036,0,0,1,2.142-2.2,1.57692,1.57692,0,0,1,1.746,1.62c0,1.044-.828,1.638-2,1.638h-.7V7.972h.756c1.512,0,2.268.72,2.268,1.908a1.917,1.917,0,0,1-2.178,2c-1.692,0-2.34-1.026-2.43-2.5H418.1C418.134,12.078,419.772,13.842,422.958,13.842Zm10.746,0a4.343,4.343,0,0,0,4.583-4.08894q.00654-.11543.007-.23106a4.278,4.278,0,0,0-4.144-4.408q-.07-.00216-.14-.002a3.467,3.467,0,0,0-2.9,1.278h-.036c0-2.178.864-3.528,2.664-3.528a1.655,1.655,0,0,1,1.8,1.314h2.358C437.59,2.34,436.114.99,433.648.99a4.366,4.366,0,0,0-3.546,1.422,7.494,7.494,0,0,0-1.512,5.184C428.628,10.944,430.176,13.842,433.704,13.842Zm-.09-1.926a2.288,2.288,0,0,1-2.376-2.19647q-.00352-.08973,0-.17953a2.272,2.272,0,0,1,2.394-2.448,2.341,2.341,0,0,1,2.32126,2.36058q-.00047.05274-.00327.10542a2.306,2.306,0,0,1-2.2532,2.35761Q433.65543,11.91656,433.614,11.916Zm10.548,1.926c2.79,0,4.9-1.4,4.9-3.942a3.243,3.243,0,0,0-2.232-3.15V6.696a2.649,2.649,0,0,0,1.71-2.466c0-2.07-1.728-3.24-4.392-3.24s-4.482,1.188-4.482,3.276a2.559,2.559,0,0,0,1.728,2.448v.058a3.4,3.4,0,0,0-2.25,3.24c-.004,2.48,2.228,3.83,5.018,3.83Zm-.054-7.722c-1.3,0-2.052-.684-2.052-1.656s.756-1.62,2.052-1.62c1.278,0,2.034.648,2.034,1.62s-.756,1.656-2.034,1.656Zm0,5.742c-1.494,0-2.43-.738-2.43-1.944,0-1.26.954-2.088,2.466-2.088s2.394.828,2.394,2.088c-.00007,1.17-.98807,1.944-2.43006,1.944Zm8.928,1.926a2.831,2.831,0,0,0,2.714-1.242h.036a2.49986,2.49986,0,0,0,.292,1.026h2.358v-.09c-.216-.162-.324-.576-.324-1.278v-4.7c0-2.16-1.116-3.4-3.888-3.4-2.7,0-3.906,1.422-3.978,3.042h2.178c.072-.882.63-1.3,1.782-1.3,1.026,0,1.548.432,1.548,1.1,0,.7-.7.828-2.232,1.044-2.052.288-3.708.936-3.708,2.97,0,1.838,1.336,2.828,3.222,2.828Zm.594-1.71c-.864,0-1.44-.306-1.44-1.17s.63-1.152,1.908-1.44a6.82576,6.82576,0,0,0,1.71-.54v1.386c0,.9-.774,1.764-2.178,1.764Zm8.8,1.71a2.831,2.831,0,0,0,2.718-1.242h.036a2.5,2.5,0,0,0,.29,1.026h2.358v-.09c-.216-.162-.324-.576-.324-1.278v-4.7c0-2.16-1.116-3.4-3.888-3.4-2.7,0-3.906,1.422-3.978,3.042h2.178c.072-.882.63-1.3,1.782-1.3,1.026,0,1.548.432,1.548,1.1,0,.7-.7.828-2.232,1.044-2.052.288-3.708.936-3.708,2.97,0,1.838,1.332,2.828,3.222,2.828Zm.594-1.71c-.864,0-1.44-.306-1.44-1.17s.63-1.152,1.908-1.44a6.826,6.826,0,0,0,1.71-.54v1.386c.002.9-.772,1.764-2.176,1.764Z"/>
        <g id="Group-16">
          <g id="Group-26">
            <polygon id="Rectangle-5" class="cls-5" points="438.369 159.572 428 159.572 428 219.572 438.369 219.572 454 189.572 438.369 159.572"/>
            <rect id="Rectangle-6" class="cls-6" y="159.57201" width="428" height="60"/>
          </g>
          <g id="FnCas12a-_V-A_" data-name="FnCas12a- V-A ">
            <g>
              <path class="cls-3" d="M.99,132.698h9.219v2.215H3.601v3.1h5.6v2.232h-5.6v5.327H.99Z"/>
              <path class="cls-3" d="M13.339,137.595h.054a3,3,0,0,1,2.737-1.512,3.177,3.177,0,0,1,3.1983,3.15556q.001.15093-.0123.30144v6.032H16.868V139.9a1.537,1.537,0,0,0-1.6-1.692,1.93,1.93,0,0,0-1.88236,1.97649q.00182.0744.00936.14851v5.239H10.944v-9.236h2.395Z"/>
              <path class="cls-3" d="M20.466,139.18c0-3.817,2.377-6.734,6.176-6.734,3.169,0,5.041,1.891,5.311,4.339H29.36a2.544,2.544,0,0,0-2.718-2.143c-2.377,0-3.511,1.982-3.511,4.538,0,2.629,1.368,4.519,3.529,4.519a2.594,2.594,0,0,0,2.773-2.269h2.556a4.556,4.556,0,0,1-1.422,3.043,5.44405,5.44405,0,0,1-3.907,1.37C23.041,145.843,20.466,143.051,20.466,139.18Z"/>
              <path class="cls-3" d="M38.666,144.546h-.037a2.83,2.83,0,0,1-2.718,1.242c-1.891,0-3.223-.99-3.223-2.826,0-2.036,1.656-2.684,3.709-2.972,1.53-.216,2.232-.342,2.232-1.044,0-.666-.522-1.1-1.548-1.1-1.152,0-1.71.414-1.782,1.3H33.12c.072-1.621,1.278-3.043,3.979-3.043,2.773,0,3.889,1.242,3.889,3.4v4.7c0,.7.108,1.116.324,1.278v.091H38.95A2.5,2.5,0,0,1,38.666,144.546Zm.018-2.233v-1.387a6.8453,6.8453,0,0,1-1.711.541c-1.278.288-1.909.576-1.909,1.44s.577,1.171,1.441,1.171C37.909,144.078,38.684,143.214,38.684,142.313Z"/>
              <path class="cls-3" d="M41.957,142.583h2.269a1.777,1.777,0,0,0,1.99,1.5347l.027-.00369c1.08,0,1.692-.415,1.692-1.063,0-.882-1.17-.972-2.431-1.224-1.656-.324-3.276-.775-3.276-2.791,0-2,1.656-2.953,3.762-2.953,2.431,0,3.781,1.207,3.962,3.061H47.737c-.108-.99-.738-1.35-1.782-1.35-.955,0-1.585.36-1.585,1.026,0,.792,1.224.864,2.539,1.135,1.548.323,3.259.756,3.259,2.916,0,1.854-1.585,2.972-3.89,2.972C43.596,145.843,42.102,144.546,41.957,142.583Z"/>
              <path class="cls-3" d="M53.75,136.966H50.96v-1.621c1.512-.054,2.862-.612,3.114-2.2h2.143v12.427H53.75Z"/>
              <path class="cls-3" d="M60.966,140.672c1.549-1.225,3.242-2.089,3.242-3.673a1.691,1.691,0,0,0-1.711-1.927c-1.243,0-1.981.9-2.017,2.5h-2.3c0-2.809,1.44-4.592,4.375-4.592a3.889,3.889,0,0,1,4.18356,3.57023q.015.189.01144.37876c0,2.323-1.584,3.421-3.1,4.43a7.49092,7.49092,0,0,0-2.484,2.2H66.85v2.013H57.996C58.085,143.214,59.562,141.772,60.966,140.672Z"/>
              <path class="cls-3" d="M73.693,144.546h-.036a2.833,2.833,0,0,1-2.719,1.242c-1.891,0-3.223-.99-3.223-2.826,0-2.036,1.657-2.684,3.709-2.972,1.531-.216,2.233-.342,2.233-1.044,0-.666-.522-1.1-1.549-1.1-1.152,0-1.71.414-1.782,1.3H68.15c.072-1.621,1.279-3.043,3.979-3.043,2.773,0,3.89,1.242,3.89,3.4v4.7c0,.7.108,1.116.324,1.278v.091H73.981A2.50007,2.50007,0,0,1,73.693,144.546Zm.018-2.233v-1.387a6.81937,6.81937,0,0,1-1.711.541c-1.278.288-1.908.576-1.908,1.44s.576,1.171,1.44,1.171C72.937,144.078,73.711,143.214,73.711,142.313Z"/>
              <path class="cls-3" d="M81,140.026a13.33,13.33,0,0,1,2.718-8.03h2.089a14.289,14.289,0,0,0-2.251,8.03,15.259,15.259,0,0,0,2.233,7.9H83.736A13.223,13.223,0,0,1,81,140.026Z"/>
              <path class="cls-3" d="M86.15,132.698h2.737l2.263,7.454c.252.847.558,2.053.558,2.053h.042s.306-1.225.558-2.053l2.251-7.454h2.647l-4.344,12.874H90.486Z"/>
              <path class="cls-3" d="M96.677,140.062h4.88v2.11h-4.88Z"/>
              <path class="cls-3" d="M106.344,132.698h2.7l4.538,12.874h-2.719l-.864-2.736H105.35l-.843,2.736h-2.646Zm-.378,8.139h3.4l-1.152-3.709c-.217-.685-.523-1.981-.523-1.981h-.036s-.324,1.3-.54,1.981Z"/>
              <path class="cls-3" d="M116.135,140.026a14.3,14.3,0,0,0-2.25-8.03h2.088a13,13,0,0,1-.018,15.934h-2.053A15.259,15.259,0,0,0,116.135,140.026Z"/>
            </g>
          </g>
          <g id="_1300aa" data-name=" 1300aa">
            <g>
              <path class="cls-4" d="M396.817,136.966h-2.791v-1.621c1.513-.054,2.864-.612,3.116-2.2h2.142v12.427h-2.467Z"/>
              <path class="cls-4" d="M400.866,141.377h2.341c.09,1.476.738,2.5,2.431,2.5a1.91794,1.91794,0,0,0,2.178-2c0-1.189-.755-1.909-2.268-1.909h-.756v-1.854h.7c1.17,0,2-.595,2-1.639a1.57694,1.57694,0,0,0-1.746-1.62,2.03594,2.03594,0,0,0-2.142,2.2h-2.341c.09-2.43,1.62-4.069,4.483-4.069,2.574,0,4.232,1.278,4.232,3.331a2.659,2.659,0,0,1-2.108,2.593v.036a2.955,2.955,0,0,1,2.5,3.1c0,2.556-2.106,3.8-4.645,3.8C402.541,145.843,400.902,144.078,400.866,141.377Z"/>
              <path class="cls-4" d="M411.342,139.414c0-3.943,2.035-6.446,5.168-6.446,3.186,0,5.132,2.485,5.132,6.446,0,3.926-1.946,6.446-5.151,6.446C413.341,145.86,411.342,143.34,411.342,139.414Zm7.742,0c0-2.611-.756-4.358-2.574-4.358-1.837,0-2.612,1.729-2.612,4.358,0,2.611.775,4.357,2.612,4.357S419.084,142.061,419.084,139.414Z"/>
              <path class="cls-4" d="M422.718,139.414c0-3.943,2.035-6.446,5.168-6.446,3.186,0,5.132,2.485,5.132,6.446,0,3.926-1.946,6.446-5.151,6.446C424.717,145.86,422.718,143.34,422.718,139.414Zm7.742,0c0-2.611-.756-4.358-2.574-4.358-1.837,0-2.612,1.729-2.612,4.358,0,2.611.775,4.357,2.612,4.357S430.46,142.061,430.46,139.414Z"/>
              <path class="cls-4" d="M439.873,144.546h-.036a2.832,2.832,0,0,1-2.719,1.242c-1.89,0-3.222-.99-3.222-2.826,0-2.036,1.656-2.684,3.708-2.972,1.531-.216,2.233-.342,2.233-1.044,0-.666-.522-1.1-1.548-1.1-1.152,0-1.711.414-1.783,1.3h-2.178c.071-1.621,1.278-3.043,3.979-3.043,2.773,0,3.889,1.242,3.889,3.4v4.7c0,.7.108,1.116.325,1.278v.091h-2.36A2.53611,2.53611,0,0,1,439.873,144.546Zm.019-2.233v-1.387a6.8453,6.8453,0,0,1-1.711.541c-1.279.288-1.909.576-1.909,1.44s.577,1.171,1.441,1.171C439.117,144.078,439.892,143.214,439.892,142.313Z"/>
              <path class="cls-4" d="M449.27,144.546h-.037a2.83,2.83,0,0,1-2.718,1.242c-1.891,0-3.223-.99-3.223-2.826,0-2.036,1.656-2.684,3.709-2.972,1.53-.216,2.232-.342,2.232-1.044,0-.666-.522-1.1-1.548-1.1-1.153,0-1.71.414-1.783,1.3h-2.178c.072-1.621,1.278-3.043,3.979-3.043,2.773,0,3.889,1.242,3.889,3.4v4.7c0,.7.108,1.116.324,1.278v.091h-2.358A2.47323,2.47323,0,0,1,449.27,144.546Zm.017-2.233v-1.387a6.82454,6.82454,0,0,1-1.71.541c-1.278.288-1.909.576-1.909,1.44s.576,1.171,1.44,1.171C448.513,144.078,449.287,143.214,449.287,142.313Z"/>
            </g>
          </g>
        </g>
        <g id="Group-27">
          <rect id="Rectangle-9" class="cls-6" y="294.57199" width="159" height="59"/>
          <polygon id="Rectangle-12" class="cls-5" points="169.768 294.572 159 294.572 159 353.572 169.768 353.572 186 324.072 169.768 294.572"/>
        </g>
        <g id="Cas14a-_V-F_" data-name="Cas14a- V-F ">
          <g>
            <path class="cls-3" d="M.432,274.18c0-3.817,2.377-6.734,6.176-6.734,3.169,0,5.041,1.891,5.311,4.339H9.327a2.544,2.544,0,0,0-2.719-2.143c-2.377,0-3.511,1.982-3.511,4.538,0,2.629,1.368,4.519,3.529,4.519a2.594,2.594,0,0,0,2.773-2.269h2.557a4.557,4.557,0,0,1-1.423,3.043,5.442,5.442,0,0,1-3.907,1.37C3.007,280.843.432,278.051.432,274.18Z"/>
            <path class="cls-3" d="M18.632,279.546h-.036a2.833,2.833,0,0,1-2.719,1.242c-1.891,0-3.223-.99-3.223-2.826,0-2.036,1.657-2.684,3.709-2.972,1.531-.216,2.233-.342,2.233-1.044,0-.666-.522-1.1-1.549-1.1-1.152,0-1.71.414-1.782,1.3H13.086c.072-1.621,1.279-3.043,3.979-3.043,2.773,0,3.89,1.242,3.89,3.4v4.7c0,.7.107,1.116.324,1.278v.091H18.92A2.5,2.5,0,0,1,18.632,279.546Zm.018-2.233v-1.387a6.81975,6.81975,0,0,1-1.711.541c-1.278.288-1.908.576-1.908,1.44s.576,1.171,1.44,1.171C17.875,279.078,18.65,278.214,18.65,277.313Z"/>
            <path class="cls-3" d="M21.924,277.583h2.268a1.777,1.777,0,0,0,1.99,1.53469l.027-.00369c1.08,0,1.692-.415,1.692-1.063,0-.882-1.17-.972-2.43-1.224-1.657-.324-3.277-.775-3.277-2.791,0-2,1.656-2.953,3.763-2.953,2.431,0,3.781,1.207,3.961,3.061H27.703c-.108-.99-.738-1.35-1.782-1.35-.955,0-1.585.36-1.585,1.026,0,.792,1.225.864,2.539,1.135,1.548.323,3.259.756,3.259,2.916,0,1.854-1.584,2.972-3.889,2.972C23.562,280.843,22.067,279.546,21.924,277.583Z"/>
            <path class="cls-3" d="M33.714,271.966h-2.79v-1.621c1.512-.054,2.863-.612,3.115-2.2h2.142v12.427H33.714Z"/>
            <path class="cls-3" d="M43.615,277.889h-5.69v-2.647l5.6-7.148H46.01v7.832h1.872v1.963H46.01v2.683H43.615Zm-3.709-1.963h3.709v-4.789h-.036l-3.673,4.735Z"/>
            <path class="cls-3" d="M54.523,279.546h-.036a2.832,2.832,0,0,1-2.719,1.242c-1.891,0-3.223-.99-3.223-2.826,0-2.036,1.657-2.684,3.709-2.972,1.531-.216,2.233-.342,2.233-1.044,0-.666-.522-1.1-1.549-1.1-1.152,0-1.71.414-1.782,1.3H48.978c.071-1.621,1.278-3.043,3.979-3.043,2.772,0,3.889,1.242,3.889,3.4v4.7c0,.7.108,1.116.324,1.278v.091H54.811A2.5,2.5,0,0,1,54.523,279.546Zm.018-2.233v-1.387a6.82461,6.82461,0,0,1-1.71.541c-1.279.288-1.909.576-1.909,1.44s.576,1.171,1.44,1.171C53.767,279.078,54.541,278.214,54.541,277.313Z"/>
            <path class="cls-3" d="M61.83,275.026a13.33,13.33,0,0,1,2.718-8.03h2.089a14.28905,14.28905,0,0,0-2.251,8.03,15.259,15.259,0,0,0,2.233,7.9H64.566A13.223,13.223,0,0,1,61.83,275.026Z"/>
            <path class="cls-3" d="M66.977,267.698h2.736l2.269,7.454c.252.847.558,2.053.558,2.053h.036s.306-1.225.558-2.053l2.251-7.454h2.647l-4.34,12.874H71.316Z"/>
            <path class="cls-3" d="M77.507,275.062h4.879v2.11H77.507Z"/>
            <path class="cls-3" d="M83.987,267.698h9.219v2.215H86.598v3.1h5.6v2.232h-5.6v5.327H83.987Z"/>
            <path class="cls-3" d="M96.425,275.026a14.3,14.3,0,0,0-2.25-8.03h2.088a13,13,0,0,1-.018,15.934H94.192A15.25889,15.25889,0,0,0,96.425,275.026Z"/>
          </g>
        </g>
        <g id="_530aa" data-name=" 530aa">
          <g>
            <path class="cls-4" d="M133.803,277.007h2.413a2.265,2.265,0,0,0,2.5,1.783,2.2,2.2,0,0,0,2.28868-2.10758q.00444-.10772-.00168-.21542a2.14,2.14,0,0,0-2.287-2.269,2.68894,2.68894,0,0,0-2.016.774h-2.359l1.188-6.734h7.275V270.272H137.24l-.468,2.664h.036a3.90015,3.90015,0,0,1,2.557-.773,4.141,4.141,0,0,1,4.17987,4.10175q.00095.09915-.00287.19824a4.449,4.449,0,0,1-4.50979,4.38736q-.13125-.00183-.26221-.01135C136.036,280.843,134.037,279.402,133.803,277.007Z"/>
            <path class="cls-4" d="M144.243,276.377h2.34c.09,1.476.739,2.5,2.431,2.5a1.919,1.919,0,0,0,2.179-2c0-1.189-.756-1.909-2.269-1.909h-.756v-1.854h.7c1.171,0,2-.595,2-1.639a1.577,1.577,0,0,0-1.747-1.62,2.03694,2.03694,0,0,0-2.143,2.2h-2.34c.09-2.43,1.62-4.069,4.483-4.069,2.575,0,4.232,1.278,4.232,3.331a2.659,2.659,0,0,1-2.107,2.593v.036a2.957,2.957,0,0,1,2.5,3.1c0,2.556-2.107,3.8-4.646,3.8C145.917,280.843,144.279,279.078,144.243,276.377Z"/>
            <path class="cls-4" d="M154.718,274.414c0-3.943,2.035-6.446,5.168-6.446,3.187,0,5.132,2.485,5.132,6.446,0,3.926-1.945,6.446-5.15,6.446C156.717,280.86,154.718,278.34,154.718,274.414Zm7.742,0c0-2.611-.755-4.358-2.574-4.358-1.837,0-2.611,1.729-2.611,4.358,0,2.611.774,4.357,2.611,4.357S162.46,277.061,162.46,274.414Z"/>
            <path class="cls-4" d="M171.874,279.546h-.036a2.832,2.832,0,0,1-2.719,1.242c-1.89,0-3.223-.99-3.223-2.826,0-2.036,1.657-2.684,3.709-2.972,1.531-.216,2.233-.342,2.233-1.044,0-.666-.522-1.1-1.548-1.1-1.153,0-1.711.414-1.783,1.3h-2.178c.071-1.621,1.278-3.043,3.979-3.043,2.773,0,3.889,1.242,3.889,3.4v4.7c0,.7.108,1.116.324,1.278v.091h-2.359A2.5,2.5,0,0,1,171.874,279.546Zm.018-2.233v-1.387a6.82455,6.82455,0,0,1-1.71.541c-1.279.288-1.909.576-1.909,1.44s.576,1.171,1.44,1.171C171.118,279.078,171.892,278.214,171.892,277.313Z"/>
            <path class="cls-4" d="M181.27,279.546h-.037a2.83,2.83,0,0,1-2.718,1.242c-1.891,0-3.223-.99-3.223-2.826,0-2.036,1.656-2.684,3.709-2.972,1.53-.216,2.232-.342,2.232-1.044,0-.666-.522-1.1-1.548-1.1-1.152,0-1.71.414-1.782,1.3h-2.179c.072-1.621,1.278-3.043,3.979-3.043,2.773,0,3.889,1.242,3.889,3.4v4.7c0,.7.108,1.116.325,1.278v.091h-2.359A2.5,2.5,0,0,1,181.27,279.546Zm.018-2.233v-1.387a6.84582,6.84582,0,0,1-1.711.541c-1.278.288-1.909.576-1.909,1.44s.577,1.171,1.441,1.171c1.404,0,2.179-.864,2.179-1.765Z"/>
          </g>
        </g>
        <rect id="Rectangle-9-2" data-name="Rectangle-9" class="cls-6" y="428.57198" width="264.42391" height="59"/>
        <rect id="Rectangle-11" class="cls-7" x="242.6979" y="428.57198" width="21.72601" height="59"/>
        <rect id="Rectangle-11-2" data-name="Rectangle-11" class="cls-7" x="198.13699" y="428.57198" width="21.72601" height="59"/>
        <rect id="Rectangle-11-3" data-name="Rectangle-11" class="cls-7" x="127.81101" y="428.57198" width="21.72601" height="59"/>
        <polygon id="Rectangle-12-2" data-name="Rectangle-12" class="cls-1" points="264.424 428.572 264.424 487.572 280.656 458.072 264.424 428.572"/>
        <g id="Group-21">
          <rect id="Rectangle-13" class="cls-7" x="346.75" y="442.658" width="16.561" height="16.57101"/>
          <g id="RuvC-Nuclease">
            <g>
              <path class="cls-4" d="M373.299,443.728h5.25c2.209,0,3.681,1.28,3.681,3.184a2.632,2.632,0,0,1-2.1,2.77v.048a2.262,2.262,0,0,1,1.745,2.3c.16,1.617.1,2.85.5,3.026v.116H380.15c-.288-.128-.319-1.408-.416-2.641a1.95207,1.95207,0,0,0-2.24-1.953H375.62v4.594h-2.321Zm2.321,5.057h2.465c1.265,0,1.889-.656,1.889-1.568,0-.929-.592-1.617-1.825-1.617H375.62Z"/>
              <path class="cls-4" d="M388.726,455.172v-.96h-.049a2.634,2.634,0,0,1-2.353,1.184,2.68,2.68,0,0,1-2.849-2.961v-5.474h2.161v5.111c0,.96.432,1.489,1.36,1.489a1.66008,1.66008,0,0,0,1.65-1.858v-4.737h2.176v8.206Z"/>
              <path class="cls-4" d="M391.555,446.961h2.208l1.312,4.258c.24.784.368,1.312.368,1.312h.033s.112-.528.352-1.312l1.345-4.258h2.177l-2.866,8.211h-2.081Z"/>
              <path class="cls-4" d="M399.763,449.489c0-3.392,2.113-5.986,5.49-5.986,2.817,0,4.481,1.681,4.722,3.857H407.67a2.261,2.261,0,0,0-2.417-1.9c-2.112,0-3.121,1.761-3.121,4.033,0,2.337,1.217,4.018,3.138,4.018a2.3,2.3,0,0,0,2.464-2.017h2.273a4.046,4.046,0,0,1-1.265,2.705,4.83212,4.83212,0,0,1-3.472,1.217C402.05,455.412,399.763,452.931,399.763,449.489Z"/>
              <path class="cls-4" d="M413.891,443.728h2.353l3.81,6.386c.368.624.8,1.6.8,1.6h.032s-.065-1.185-.065-1.985v-6h2.289v11.443h-2.24l-3.906-6.322c-.368-.609-.817-1.585-.817-1.585h-.031s.064,1.2.064,2v5.907h-2.289Z"/>
              <path class="cls-4" d="M429.877,455.172v-.96h-.049a2.633,2.633,0,0,1-2.352,1.184,2.68,2.68,0,0,1-2.85-2.961v-5.474h2.161v5.111c0,.96.433,1.489,1.36,1.489a1.66008,1.66008,0,0,0,1.65-1.858v-4.737h2.177v8.206Z"/>
              <path class="cls-4" d="M432.979,451.072a4.049,4.049,0,0,1,3.74915-4.32812q.17514-.01254.35086-.00989a3.487,3.487,0,0,1,3.73,3.01H438.68a1.505,1.505,0,0,0-1.5-1.264c-1.313,0-1.984,1.007-1.984,2.592,0,1.553.624,2.593,1.952,2.593a1.531,1.531,0,0,0,1.648-1.392h2.1a3.44,3.44,0,0,1-3.7,3.137,4.083,4.083,0,0,1-4.22265-3.93839Q432.9664,451.27176,432.979,451.072Z"/>
              <path class="cls-4" d="M441.858,443.728h2.177v11.444h-2.177Z"/>
              <path class="cls-4" d="M445.074,451.059a4.064,4.064,0,0,1,3.79672-4.31472q.12648-.00811.25326-.00827c2.641,0,4.05,2.017,4.05,4.947H447.22a2.041,2.041,0,0,0,2.03211,2.04983q.034.00018.0679-.00082a1.532,1.532,0,0,0,1.584-1.009h2.146a3.524,3.524,0,0,1-3.714,2.689,4.06509,4.06509,0,0,1-4.262-4.353Zm2.177-.881H450.9a1.731,1.731,0,0,0-1.70071-1.76077c-.0144-.00024-.02884-.00034-.04327-.00021a1.829,1.829,0,0,0-1.90555,1.74911l-.00046.0119Z"/>
              <path class="cls-4" d="M459.092,454.26h-.031a2.519,2.519,0,0,1-2.417,1.1c-1.681,0-2.866-.88-2.866-2.513,0-1.809,1.473-2.385,3.3-2.641,1.361-.192,1.986-.305,1.986-.929,0-.591-.465-.976-1.377-.976-1.025,0-1.521.368-1.585,1.153h-1.937c.065-1.441,1.137-2.7,3.537-2.7,2.466,0,3.458,1.1,3.458,3.024v4.178c0,.625.1.993.288,1.137v.079h-2.1A2.224,2.224,0,0,1,459.092,454.26Zm.016-1.985v-1.233a6.027,6.027,0,0,1-1.52.481c-1.137.255-1.7.511-1.7,1.28s.512,1.041,1.28,1.041a1.71824,1.71824,0,0,0,1.94-1.572Z"/>
              <path class="cls-4" d="M462.018,452.515h2.017a1.579,1.579,0,0,0,1.76868,1.36319l.02332-.00321c.961,0,1.5-.368,1.5-.944,0-.784-1.04-.864-2.161-1.088-1.473-.288-2.913-.689-2.913-2.482,0-1.776,1.472-2.625,3.346-2.625,2.161,0,3.361,1.073,3.521,2.722h-1.969c-.1-.881-.656-1.2-1.585-1.2-.848,0-1.408.32-1.408.913,0,.7,1.088.768,2.257,1.008,1.376.288,2.9.673,2.9,2.593,0,1.649-1.409,2.641-3.458,2.641C463.475,455.412,462.15,454.26,462.018,452.515Z"/>
              <path class="cls-4" d="M469.97,451.059a4.063,4.063,0,0,1,3.79468-4.31466q.12748-.0082.25531-.00833c2.64,0,4.048,2.017,4.048,4.947h-5.954a2.042,2.042,0,0,0,2.03415,2.04983q.03291.00009.06586-.00082a1.533,1.533,0,0,0,1.585-1.009h2.144a3.521,3.521,0,0,1-3.712,2.689,4.06394,4.06394,0,0,1-4.261-4.353Zm2.176-.881h3.65a1.733,1.733,0,0,0-1.70474-1.7608q-.02015-.00031-.04026-.00018a1.828,1.828,0,0,0-1.90066,1.75232l-.00034.00869Z"/>
            </g>
          </g>
          <rect id="Rectangle-14" class="cls-2" x="346.75" y="471.00099" width="16.561" height="16.57098"/>
          <g id="HNH-Nuclease">
            <g>
              <path class="cls-4" d="M373.299,472.072h2.321v4.482h4.5v-4.482h2.32v11.445h-2.32v-5.045h-4.5v5.042h-2.321Z"/>
              <path class="cls-4" d="M384.195,472.072h2.355l3.809,6.387c.369.624.8,1.6.8,1.6h.031s-.063-1.185-.063-1.986v-6h2.289v11.445h-2.241l-3.9-6.322c-.369-.609-.817-1.585-.817-1.585h-.032s.064,1.2.064,2v5.906h-2.289Z"/>
              <path class="cls-4" d="M395.171,472.072h2.321v4.482h4.5v-4.482h2.321v11.445H401.99v-5.045h-4.5v5.042h-2.321Z"/>
              <path class="cls-4" d="M408.755,472.072h2.353l3.81,6.387c.368.624.8,1.6.8,1.6h.032s-.064-1.185-.064-1.986v-6h2.289v11.445h-2.241l-3.906-6.322c-.368-.609-.816-1.585-.816-1.585h-.032s.064,1.2.064,2v5.906h-2.289Z"/>
              <path class="cls-4" d="M424.741,483.515v-.96h-.049a2.63205,2.63205,0,0,1-2.352,1.183,2.68,2.68,0,0,1-2.85-2.961v-5.473h2.16v5.105c0,.961.433,1.49,1.361,1.49a1.65906,1.65906,0,0,0,1.649-1.858v-4.737h2.177v8.211Z"/>
              <path class="cls-4" d="M427.843,479.417a4.049,4.049,0,0,1,3.74914-4.32813q.17514-.01254.35086-.00989a3.487,3.487,0,0,1,3.73,3.01h-2.129a1.505,1.505,0,0,0-1.5-1.265c-1.312,0-1.984,1.008-1.984,2.593,0,1.553.624,2.593,1.952,2.593a1.531,1.531,0,0,0,1.648-1.393h2.09a3.441,3.441,0,0,1-3.7,3.138,4.083,4.083,0,0,1-4.21295-3.94876Q427.83071,479.61154,427.843,479.417Z"/>
              <path class="cls-4" d="M436.723,472.072h2.176v11.445h-2.176Z"/>
              <path class="cls-4" d="M439.938,479.401a4.063,4.063,0,0,1,3.79574-4.31372q.12695-.0081.25425-.00827c2.641,0,4.05,2.017,4.05,4.947h-5.954a2.04,2.04,0,0,0,2.0311,2.04886q.03447.00019.06891-.00085a1.533,1.533,0,0,0,1.584-1.008h2.145a3.524,3.524,0,0,1-3.714,2.689,4.06507,4.06507,0,0,1-4.261-4.354Zm2.177-.88h3.65a1.732,1.732,0,0,0-1.70272-1.76077c-.01377-.00025-.0275-.00031-.04126-.00022a1.829,1.829,0,0,0-1.90555,1.74912Z"/>
              <path class="cls-4" d="M453.956,482.603h-.031a2.519,2.519,0,0,1-2.417,1.1c-1.681,0-2.865-.881-2.865-2.514,0-1.808,1.472-2.384,3.3-2.64,1.361-.193,1.986-.3,1.986-.929,0-.592-.465-.976-1.377-.976-1.025,0-1.521.368-1.585,1.153H449.03c.065-1.441,1.137-2.705,3.537-2.705,2.466,0,3.458,1.1,3.458,3.024v4.178c0,.625.1.993.289,1.137v.08h-2.1A2.224,2.224,0,0,1,453.956,482.603Zm.017-1.986v-1.232a6.04819,6.04819,0,0,1-1.521.48c-1.137.256-1.7.512-1.7,1.281s.513,1.041,1.28,1.041a1.716,1.716,0,0,0,1.93051-1.47056Q453.96918,480.66688,453.973,480.617Z"/>
              <path class="cls-4" d="M456.882,480.858h2.017a1.579,1.579,0,0,0,1.76867,1.36319l.02332-.00321c.961,0,1.505-.368,1.505-.944,0-.785-1.04-.865-2.161-1.088-1.473-.288-2.913-.689-2.913-2.482,0-1.776,1.473-2.625,3.346-2.625,2.161,0,3.361,1.072,3.521,2.722h-1.968c-.1-.881-.657-1.2-1.585-1.2-.849,0-1.409.32-1.409.913,0,.7,1.088.767,2.257,1.008,1.376.288,2.9.672,2.9,2.592,0,1.65-1.41,2.642-3.458,2.642C458.339,483.755,457.011,482.603,456.882,480.858Z"/>
              <path class="cls-4" d="M464.834,479.401a4.063,4.063,0,0,1,3.79575-4.31372q.12695-.0081.25424-.00827c2.64,0,4.049,2.017,4.049,4.947h-5.954a2.04,2.04,0,0,0,2.0311,2.04886q.03447.00019.06891-.00085a1.533,1.533,0,0,0,1.585-1.008h2.145a3.523,3.523,0,0,1-3.713,2.689,4.06411,4.06411,0,0,1-4.262-4.354Zm2.177-.88h3.649a1.732,1.732,0,0,0-1.70272-1.7608c-.01407-.00022-.02817-.00031-.04227-.00019a1.827,1.827,0,0,0-1.90347,1.74717l-.00055.01382Z"/>
            </g>
          </g>
        </g>
        <g>
          <path class="cls-3" d="M.12891,408.11426c0-4.02735,2.50781-7.10449,6.51562-7.10449,3.34375,0,5.31934,1.99414,5.60449,4.57812H9.51367a2.68418,2.68418,0,0,0-2.86914-2.26074c-2.50781,0-3.7041,2.08984-3.7041,4.78711,0,2.77344,1.44336,4.76855,3.72363,4.76855a2.73746,2.73746,0,0,0,2.92578-2.39355h2.69727a4.809,4.809,0,0,1-1.501,3.21,5.74013,5.74013,0,0,1-4.12207,1.44433C2.8457,415.14355.12891,412.19922.12891,408.11426Z"/>
          <path class="cls-3" d="M18.957,413.77539H18.919a2.98662,2.98662,0,0,1-2.86817,1.31055c-1.99512,0-3.40039-1.04395-3.40039-2.98242,0-2.14649,1.74707-2.83008,3.91309-3.13379,1.61425-.22852,2.35547-.36133,2.35547-1.10254,0-.70313-.55079-1.15821-1.63379-1.15821-1.21582,0-1.80469.43653-1.88086,1.36719H13.10547c.07617-1.71,1.34961-3.21,4.19922-3.21,2.9248,0,4.10254,1.31055,4.10254,3.58984v4.959c0,.74023.11425,1.17773.34277,1.34863v.09473H19.26074A2.64782,2.64782,0,0,1,18.957,413.77539Zm.01856-2.35547V409.957a7.21256,7.21256,0,0,1-1.80469.57031c-1.34863.30371-2.01367.60743-2.01367,1.51954s.60839,1.23437,1.5205,1.23437C18.15918,413.28125,18.97559,412.37012,18.97559,411.41992Z"/>
          <path class="cls-3" d="M22.05371,411.70508h2.39453a1.87345,1.87345,0,0,0,2.127,1.61426c1.13964,0,1.78613-.43653,1.78613-1.12012,0-.93164-1.23535-1.02637-2.56445-1.292-1.74805-.3418-3.458-.81739-3.458-2.94434,0-2.10937,1.748-3.11621,3.9707-3.11621,2.56445,0,3.98926,1.27344,4.17969,3.22949H28.15234c-.11425-1.04492-.77929-1.4248-1.88086-1.4248-1.00683,0-1.67187.37988-1.67187,1.083,0,.83593,1.292.9121,2.67871,1.19726,1.63379.3418,3.43848.79785,3.43848,3.07715,0,1.957-1.67188,3.13476-4.10352,3.13476C23.7832,415.14355,22.20605,413.77539,22.05371,411.70508Z"/>
          <path class="cls-3" d="M36.55078,413.30078a6.88939,6.88939,0,0,1-2.29883-.57031,5.32243,5.32243,0,0,1-1.66211-1.169,4.58562,4.58562,0,0,1-1.00683-1.65234,6.0861,6.0861,0,0,1-.333-2.043,6.51251,6.51251,0,0,1,.31348-2.05176,4.51722,4.51722,0,0,1,.96875-1.66211,4.96862,4.96862,0,0,1,1.65332-1.15918,7.2496,7.2496,0,0,1,2.36523-.56054v-1.71h2.375v1.71a7.25572,7.25572,0,0,1,2.36621.56054,4.95447,4.95447,0,0,1,1.65235,1.15918,4.60729,4.60729,0,0,1,.97851,1.66211,6.32349,6.32349,0,0,1,.32324,2.05176,5.9441,5.9441,0,0,1-.34179,2.043,4.799,4.799,0,0,1-1.00684,1.65234,5.19434,5.19434,0,0,1-1.66308,1.169,6.99093,6.99093,0,0,1-2.3086.57031v1.55762h-2.375Zm-3.002-5.43457a5.07472,5.07472,0,0,0,.15234,1.27344,2.8845,2.8845,0,0,0,.5127,1.05469,2.96285,2.96285,0,0,0,.93164.77832,4.03813,4.03813,0,0,0,1.40527.42773V404.332a4.03791,4.03791,0,0,0-1.40527.42774,2.96529,2.96529,0,0,0-.93164.77929,2.8845,2.8845,0,0,0-.5127,1.05469A5.06689,5.06689,0,0,0,33.54883,407.86621Zm8.39844,0a4.87029,4.87029,0,0,0-.16211-1.28223,3.07044,3.07044,0,0,0-.5127-1.06445,2.84537,2.84537,0,0,0-.93066-.77832,4.14778,4.14778,0,0,0-1.416-.42773v7.08691a4.14778,4.14778,0,0,0,1.416-.42773,2.83362,2.83362,0,0,0,.93066-.77832,3.083,3.083,0,0,0,.5127-1.05469A4.7721,4.7721,0,0,0,41.94727,407.86621Z"/>
          <path class="cls-3" d="M45.10059,409.04492H50.249v2.22266H45.10059Z"/>
          <path class="cls-3" d="M53.95508,409.69141c1.63379-1.292,3.41894-2.20411,3.41894-3.876a1.78332,1.78332,0,0,0-1.80468-2.03223c-1.31055,0-2.08985.94922-2.12793,2.64063H51.00977c0-2.96387,1.5205-4.84473,4.61621-4.84473a4.10365,4.10365,0,0,1,4.42675,4.16016c0,2.45117-1.67187,3.61035-3.26757,4.67383a7.90568,7.90568,0,0,0-2.6211,2.31738H60.167v2.12793H50.82031C50.915,412.37012,52.47266,410.84961,53.95508,409.69141Z"/>
        </g>
        <g>
          <path class="cls-4" d="M231.97266,404.10645v-.03809h-6.459V401.8457h9.27051v2.127a16.56731,16.56731,0,0,0-4.69238,10.88574h-2.81153A16.95454,16.95454,0,0,1,231.97266,404.10645Z"/>
          <path class="cls-4" d="M234.71,411.09668h2.5459a2.38933,2.38933,0,0,0,2.64062,1.88086,2.32274,2.32274,0,0,0,2.41211-2.4502,2.25724,2.25724,0,0,0-2.41211-2.39355,2.839,2.839,0,0,0-2.12793.81641H235.2793l1.2539-7.1045H244.208v2.14649h-5.87012l-.49316,2.81152h.03808a4.1088,4.1088,0,0,1,2.69727-.81738,4.37008,4.37008,0,0,1,4.40722,4.541c0,2.71582-2.18457,4.61621-5.03418,4.61621C237.06543,415.14355,234.957,413.624,234.71,411.09668Z"/>
          <path class="cls-4" d="M251.69434,404.10645v-.03809h-6.459V401.8457h9.27051v2.127a16.56731,16.56731,0,0,0-4.69238,10.88574H247.002A16.95454,16.95454,0,0,1,251.69434,404.10645Z"/>
          <path class="cls-4" d="M261.23242,413.77539h-.03808a2.98661,2.98661,0,0,1-2.86817,1.31055c-1.99512,0-3.40039-1.04395-3.40039-2.98242,0-2.14649,1.74707-2.83008,3.91309-3.13379,1.61425-.22852,2.35547-.36133,2.35547-1.10254,0-.70313-.55079-1.15821-1.63379-1.15821-1.21582,0-1.80469.43653-1.88086,1.36719h-2.29883c.07617-1.71,1.34961-3.21,4.19922-3.21,2.9248,0,4.10351,1.31055,4.10351,3.58984v4.959c0,.74023.11329,1.17773.3418,1.34863v.09473h-2.48926A2.64782,2.64782,0,0,1,261.23242,413.77539Zm.01953-2.35547V409.957a7.23354,7.23354,0,0,1-1.80566.57031c-1.34863.30371-2.01367.60743-2.01367,1.51954s.6084,1.23437,1.5205,1.23437C260.43457,413.28125,261.252,412.37012,261.252,411.41992Z"/>
          <path class="cls-4" d="M270.77051,413.77539h-.03809a2.9866,2.9866,0,0,1-2.86816,1.31055c-1.99512,0-3.40039-1.04395-3.40039-2.98242,0-2.14649,1.74707-2.83008,3.91308-3.13379,1.61426-.22852,2.35547-.36133,2.35547-1.10254,0-.70313-.55078-1.15821-1.63379-1.15821-1.21582,0-1.80468.43653-1.88086,1.36719H264.919c.07617-1.71,1.3496-3.21,4.19921-3.21,2.92481,0,4.10254,1.31055,4.10254,3.58984v4.959c0,.74023.11426,1.17773.34278,1.34863v.09473h-2.48926A2.64767,2.64767,0,0,1,270.77051,413.77539Zm.01855-2.35547V409.957a7.21247,7.21247,0,0,1-1.80468.57031c-1.34864.30371-2.01368.60743-2.01368,1.51954s.6084,1.23437,1.52051,1.23437C269.97266,413.28125,270.78906,412.37012,270.78906,411.41992Z"/>
        </g>
        <rect id="Rectangle-11-4" data-name="Rectangle-11" class="cls-7" x="90.69399" y="294.57199" width="21.72601" height="59"/>
        <rect id="Rectangle-11-5" data-name="Rectangle-11" class="cls-7" x="58.229" y="294.57199" width="21.72601" height="59"/>
        <rect id="Rectangle-11-6" data-name="Rectangle-11" class="cls-7" x="303.22037" y="160.07201" width="21.72601" height="59"/>
        <rect id="Rectangle-11-7" data-name="Rectangle-11" class="cls-7" x="334.30449" y="160.07201" width="21.72601" height="59"/>
        <rect id="Rectangle-11-8" data-name="Rectangle-11" class="cls-7" x="0.11299" y="25.57199" width="21.72601" height="61.00001"/>
        <rect id="Rectangle-11-9" data-name="Rectangle-11" class="cls-7" x="272.27399" y="25.57199" width="21.72601" height="61.00001"/>
        <rect id="Rectangle-11-10" data-name="Rectangle-11" class="cls-7" x="352" y="25.57199" width="21.72601" height="61.00001"/>
      </g>
    </g>
  </g>
</svg>
