<svg xmlns="http://www.w3.org/2000/svg" width="500.26913" height="518.8544" viewBox="0 0 500.26913 518.8544">
  <defs>
    <style>
      .cls-1 {
        isolation: isolate;
      }

      .cls-2 {
        fill: #b8c0c6;
      }

      .cls-3 {
        fill: #fff;
      }

      .cls-4 {
        fill: none;
        stroke: #979797;
        stroke-linecap: square;
      }

      .cls-5 {
        fill: #2087a7;
      }

      .cls-5, .cls-6 {
        fill-rule: evenodd;
      }

      .cls-6 {
        fill: #37b14b;
      }
    </style>
  </defs>
  <g id="Layer_2" data-name="Layer 2">
    <g id="Layer_1-2" data-name="Layer 1">
      <g>
        <g class="cls-1">
          <path class="cls-2" d="M47.69814,355.19183a7.00378,7.00378,0,0,1,1.41483-4.84829,4.0815,4.0815,0,0,1,3.3167-1.33069c2.30686,0,3.687,1.26231,3.97309,2.98009H54.19689a1.5479,1.5479,0,0,0-1.68412-1.22864c-1.68412,0-2.492,1.26231-2.492,3.29986h.03366a3.24314,3.24314,0,0,1,2.71079-1.196,4.00221,4.00221,0,0,1,4.00781,4.12562,4.0624,4.0624,0,0,1-4.29393,4.04148C49.18029,361.03417,47.7318,358.32338,47.69814,355.19183Zm6.8869,1.83559a2.18912,2.18912,0,0,0-2.1722-2.30684,2.25652,2.25652,0,0,0-.01684,4.51273A2.15862,2.15862,0,0,0,54.585,357.02742Z"/>
          <path class="cls-2" d="M57.67874,355.02246c0-3.687,1.90292-6.02644,4.8325-6.02644,2.98008,0,4.79885,2.32265,4.79885,6.02644,0,3.67119-1.81877,6.0275-4.81569,6.0275C59.548,361.051,57.67874,358.6947,57.67874,355.02246Zm7.24034,0c0-2.44045-.70688-4.07406-2.40784-4.07406-1.71778,0-2.4415,1.61576-2.4415,4.07406,0,2.44152.72372,4.07512,2.4415,4.07512C64.228,359.09758,64.91908,357.49868,64.91908,355.02246Z"/>
          <path class="cls-2" d="M68.31572,355.02246c0-3.687,1.90292-6.02644,4.83251-6.02644,2.98008,0,4.79884,2.32265,4.79884,6.02644,0,3.67119-1.81876,6.0275-4.81568,6.0275C70.185,361.051,68.31572,358.6947,68.31572,355.02246Zm7.2393,0c0-2.44045-.70689-4.07406-2.40784-4.07406-1.71778,0-2.4415,1.61576-2.4415,4.07406,0,2.44152.72372,4.07512,2.4415,4.07512S75.555,357.49868,75.555,355.02246Z"/>
        </g>
        <g class="cls-1">
          <path class="cls-2" d="M48.01792,257.03636h2.2227a1.66288,1.66288,0,0,0,1.75145,1.2623,1.97115,1.97115,0,0,0,1.66624-.72372,4.53055,4.53055,0,0,0,.72371-2.70975h-.03366a3.33161,3.33161,0,0,1-2.67713,1.2623,3.92445,3.92445,0,0,1-4.12457-4.05724A4.067,4.067,0,0,1,51.89,248.02879c3.06424,0,4.782,1.93658,4.782,5.84235,0,3.688-1.22864,6.18-4.61371,6.18C49.65155,260.05011,48.27039,258.76992,48.01792,257.03636Zm6.29783-4.96715a2.203,2.203,0,0,0-2.30685-2.23953,2.17729,2.17729,0,0,0-2.2732,2.20587,2.10814,2.10814,0,0,0,2.25637,2.23953A2.18066,2.18066,0,0,0,54.31575,252.06921Z"/>
          <path class="cls-2" d="M57.67874,254.03839c0-3.687,1.90292-6.02644,4.8325-6.02644,2.98008,0,4.79885,2.32263,4.79885,6.02644,0,3.6712-1.81877,6.02748-4.81569,6.02748C59.548,260.06693,57.67874,257.71065,57.67874,254.03839Zm7.24034,0c0-2.44046-.70688-4.07408-2.40784-4.07408-1.71778,0-2.4415,1.61574-2.4415,4.07408,0,2.4415.72372,4.07512,2.4415,4.07512C64.228,258.11353,64.91908,256.51461,64.91908,254.03839Z"/>
          <path class="cls-2" d="M68.31572,254.03839c0-3.687,1.90292-6.02644,4.83251-6.02644,2.98008,0,4.79884,2.32263,4.79884,6.02644,0,3.6712-1.81876,6.02748-4.81568,6.02748C70.185,260.06693,68.31572,257.71065,68.31572,254.03839Zm7.2393,0c0-2.44046-.70689-4.07408-2.40784-4.07408-1.71778,0-2.4415,1.61574-2.4415,4.07408,0,2.4415.72372,4.07512,2.4415,4.07512S75.555,256.51461,75.555,254.03839Z"/>
        </g>
        <g class="cls-1">
          <path class="cls-2" d="M43.38213,151.81727H40.77232V150.3025c1.41483-.05049,2.67713-.57224,2.91276-2.05439H45.689v11.61738H43.38213Z"/>
          <path class="cls-2" d="M50.13123,155.28544c1.44744-1.14555,3.03057-1.95341,3.03057-3.43557a1.58154,1.58154,0,0,0-1.6-1.80193c-1.16132,0-1.85243.84258-1.88609,2.34156H47.52142c0-2.62663,1.3475-4.29393,4.092-4.29393a3.636,3.636,0,0,1,3.9226,3.687c0,2.17221-1.48215,3.19994-2.89593,4.14245a7.0085,7.0085,0,0,0-2.32368,2.05334H55.637v1.88715H47.35311A6.0545,6.0545,0,0,1,50.13123,155.28544Z"/>
          <path class="cls-2" d="M56.62682,154.10624c0-3.687,1.90292-6.02644,4.83251-6.02644,2.98008,0,4.79884,2.32262,4.79884,6.02644,0,3.67119-1.81876,6.02748-4.81568,6.02748C58.49608,160.13478,56.62682,157.77849,56.62682,154.10624Zm7.24035,0c0-2.44046-.70689-4.07408-2.40784-4.07408-1.71779,0-2.4415,1.61574-2.4415,4.07408,0,2.44149.72371,4.07512,2.4415,4.07512C63.17606,158.18137,63.86717,156.58245,63.86717,154.10624Z"/>
          <path class="cls-2" d="M67.2638,154.10624c0-3.687,1.90292-6.02644,4.83251-6.02644,2.98009,0,4.79885,2.32262,4.79885,6.02644,0,3.67119-1.81876,6.02748-4.81568,6.02748C69.13306,160.13478,67.2638,157.77849,67.2638,154.10624Zm7.2393,0c0-2.44046-.70688-4.07408-2.40784-4.07408-1.71778,0-2.4415,1.61574-2.4415,4.07408,0,2.44149.72373,4.07512,2.4415,4.07512S74.5031,156.58245,74.5031,154.10624Z"/>
        </g>
        <g class="cls-1">
          <path class="cls-2" d="M42.86037,50.8332h-2.6098V49.31844c1.41483-.0505,2.67713-.57225,2.91276-2.0544h2.0039V58.88142H42.86037Z"/>
          <path class="cls-2" d="M46.61256,55.54789h2.25637a2.11835,2.11835,0,0,0,2.34051,1.66624A2.0586,2.0586,0,0,0,53.348,55.043a2.00067,2.00067,0,0,0-2.13855-2.12171,2.51408,2.51408,0,0,0-1.885.72372H47.11854l1.11082-6.29783h6.80275v1.904H49.82933l-.4376,2.49094h.03366a3.645,3.645,0,0,1,2.391-.72372,3.87182,3.87182,0,0,1,3.90577,4.02358,4.1602,4.1602,0,0,1-4.46224,4.092C48.70062,59.13388,46.83136,57.78742,46.61256,55.54789Z"/>
          <path class="cls-2" d="M56.62577,53.12217c0-3.687,1.90292-6.02643,4.8325-6.02643,2.98009,0,4.79885,2.32263,4.79885,6.02643,0,3.67119-1.81876,6.02749-4.81568,6.02749C58.495,59.15071,56.62577,56.79441,56.62577,53.12217Zm7.24034,0c0-2.44045-.70688-4.07408-2.40784-4.07408-1.71778,0-2.4415,1.61575-2.4415,4.07408,0,2.4415.72372,4.07513,2.4415,4.07513S63.86611,55.59838,63.86611,53.12217Z"/>
          <path class="cls-2" d="M67.2638,53.12217c0-3.687,1.90292-6.02643,4.83251-6.02643,2.98009,0,4.79885,2.32263,4.79885,6.02643,0,3.67119-1.81876,6.02749-4.81568,6.02749C69.13306,59.15071,67.2638,56.79441,67.2638,53.12217Zm7.2393,0c0-2.44045-.70688-4.07408-2.40784-4.07408-1.71778,0-2.4415,1.61575-2.4415,4.07408,0,2.4415.72373,4.07513,2.4415,4.07513S74.5031,55.59838,74.5031,53.12217Z"/>
        </g>
        <g class="cls-1">
          <path class="cls-3" d="M243.70192,511.84548c0-4.01516,2.49937-7.08362,6.49664-7.08362,3.33353,0,5.30378,1.98916,5.58778,4.56425h-2.72867a2.67428,2.67428,0,0,0-2.85911-2.25426c-2.49936,0-3.69328,2.08383-3.69328,4.77359,0,2.76549,1.44008,4.75363,3.71222,4.75363a2.72743,2.72743,0,0,0,2.91592-2.38681h2.68976a4.78972,4.78972,0,0,1-1.49582,3.201,5.72794,5.72794,0,0,1-4.10984,1.44007C246.41061,518.8544,243.70192,515.91745,243.70192,511.84548Z"/>
          <path class="cls-3" d="M262.84682,517.49006H262.809a2.98,2.98,0,0,1-2.86015,1.30649c-1.98919,0-3.39034-1.04139-3.39034-2.97271,0-2.14065,1.742-2.82333,3.90156-3.12628,1.60943-.22722,2.34787-.35977,2.34787-1.09821,0-.70056-.548-1.156-1.62941-1.156-1.2118,0-1.79879.43549-1.87452,1.36433h-2.29212c.07574-1.70516,1.3454-3.201,4.18558-3.201,2.91592,0,4.092,1.30649,4.092,3.5797v4.943c0,.73844.11255,1.17394.34083,1.34437v.09566h-2.48147A2.635,2.635,0,0,1,262.84682,517.49006Zm.01892-2.34893v-1.459a7.20253,7.20253,0,0,1-1.79983.568c-1.34435.303-2.00706.60589-2.00706,1.51477s.60591,1.23178,1.5137,1.23178C262.05051,516.99778,262.86574,516.08891,262.86574,515.14113Z"/>
          <path class="cls-3" d="M266.30972,515.42514h2.38682a1.86936,1.86936,0,0,0,2.12171,1.61049c1.13606,0,1.77983-.43656,1.77983-1.11715,0-.92884-1.23178-1.02351-2.55721-1.28861-1.742-.34082-3.44714-.81417-3.44714-2.93588,0-2.10172,1.742-3.10632,3.95942-3.10632,2.55721,0,3.97731,1.26967,4.16665,3.221h-2.33c-.11255-1.04139-.77632-1.42116-1.87453-1.42116-1.00354,0-1.66728.37868-1.66728,1.07927,0,.83311,1.28861.90887,2.67082,1.19394,1.62943.33976,3.4282.79526,3.4282,3.06737,0,1.95026-1.66625,3.12628-4.09091,3.12628C268.03382,518.8544,266.46015,517.49006,266.30972,515.42514Z"/>
          <path class="cls-3" d="M279.4871,505.027h9.96272V507.338h-7.21511v3.03058H288.561v2.25427h-6.32624v3.65542h7.273v2.29105H279.48816V505.027Z"/>
          <path class="cls-3" d="M290.14723,508.85383h1.32646v-.79629c0-2.36787,1.83665-3.201,4.22449-2.93589v1.98917c-1.11715-.05679-1.64834.09573-1.64834,1.09927v.64377h2.898v-.87205c0-2.36681,1.83665-3.19992,4.31813-2.93486v1.98917c-1.21182-.05785-1.742.09467-1.742,1.09821v.72056h1.742v1.77983h-1.742v7.93461h-2.57615v-7.93567h-2.898v7.93567h-2.57509v-7.93567h-1.32646v-1.77983Z"/>
          <path class="cls-3" d="M301.67836,513.70209a4.80846,4.80846,0,0,1,4.79253-5.11442c3.12526,0,4.79254,2.38784,4.79254,5.85287h-7.04574a2.416,2.416,0,0,0,2.48042,2.42466,1.81442,1.81442,0,0,0,1.87556-1.19394h2.53721a4.16972,4.16972,0,0,1-4.39492,3.18205A4.80851,4.80851,0,0,1,301.67836,513.70209Zm2.57612-1.04138h4.31813a2.04969,2.04969,0,0,0-2.06493-2.08384A2.16178,2.16178,0,0,0,304.25448,512.66071Z"/>
          <path class="cls-3" d="M311.97873,513.721a4.79184,4.79184,0,0,1,4.84829-5.13336,4.12482,4.12482,0,0,1,4.4128,3.56178h-2.52039a1.77891,1.77891,0,0,0-1.7788-1.49688c-1.55367,0-2.34893,1.19393-2.34893,3.06843,0,1.83665.73844,3.06844,2.31,3.06844a1.8141,1.8141,0,0,0,1.95132-1.64732h2.48043a4.07005,4.07005,0,0,1-4.37493,3.71221A4.83168,4.83168,0,0,1,311.97873,513.721Z"/>
          <path class="cls-3" d="M321.88148,508.85383h1.34436v-3.03059h2.51934v3.03059h1.66728v1.7041h-1.66728v5.15124a.85207.85207,0,0,0,.96565.96566c.32295,0,.75845-.01894.75845-.01894v1.8945s-.588.03682-1.60944.03682c-1.24966,0-2.63294-.49228-2.63294-2.32893v-5.70141h-1.34436v-1.703Z"/>
          <path class="cls-3" d="M328.16772,513.721a5.07635,5.07635,0,1,1,5.07654,5.13337A4.94086,4.94086,0,0,1,328.16772,513.721Zm7.53806,0c0-1.89449-.88994-3.182-2.46149-3.182-1.59155,0-2.4636,1.28861-2.4636,3.182s.87205,3.16311,2.4636,3.16311C334.81584,516.88311,335.70578,515.61451,335.70578,513.721Z"/>
          <path class="cls-3" d="M341.98993,510.40541h.05785a2.54872,2.54872,0,0,1,2.38681-1.66625,1.67441,1.67441,0,0,1,.60589.07573v2.25427h-.05679c-1.68622-.1704-2.898.7195-2.898,2.76548v4.73469h-2.57615v-9.7155h2.48042Z"/>
        </g>
        <g class="cls-1">
          <path class="cls-3" d="M.73845,293.30228v-2.74549H11.9887v-6.36515h2.29213v9.11067H.73845Z"/>
          <path class="cls-3" d="M9.41361,283.58887a4.80846,4.80846,0,0,1-5.11442-4.79254c0-3.12525,2.38785-4.79253,5.85287-4.79253v7.04574a2.41606,2.41606,0,0,0,2.42467-2.48043,1.81439,1.81439,0,0,0-1.19393-1.87555v-2.53722a4.16973,4.16973,0,0,1,3.18205,4.39492A4.80857,4.80857,0,0,1,9.41361,283.58887Zm-1.0414-2.57616v-4.31813a2.04969,2.04969,0,0,0-2.08385,2.06493A2.1618,2.1618,0,0,0,8.37221,281.01271Z"/>
          <path class="cls-3" d="M5.88968,270.29579v-.05785a3.15776,3.15776,0,0,1-1.59155-2.878,3.34393,3.34393,0,0,1,3.63648-3.35352h6.34622v2.57615H8.31435a1.61672,1.61672,0,0,0-1.77984,1.68622,2.03043,2.03043,0,0,0,2.23532,1.96918h5.511v2.57616H4.56532v-2.51933H5.88968Z"/>
          <path class="cls-3" d="M14.5659,262.68515v-2.55721c.6059-.20828,1.07927-.75738,1.07927-1.95026,0-1.459-.70163-2.15958-2.02705-2.15958H12.55674v.05681a3.14286,3.14286,0,0,1,1.13607,2.53827,4.36655,4.36655,0,0,1-4.64,4.28025c-2.898,0-4.75466-1.742-4.75466-4.20557a3.131,3.131,0,0,1,1.2886-2.68976v-.03786H4.56532v-2.48147h8.97706a3.77218,3.77218,0,0,1,2.95484,1.15606,5.079,5.079,0,0,1,1.09925,3.50393C17.59542,260.79066,16.4583,262.42007,14.5659,262.68515Zm-5.56885-6.79958a2.33781,2.33781,0,0,0-2.63295,2.31c0,1.30753,1.02351,2.17852,2.65188,2.17852,1.64731,0,2.614-.871,2.614-2.1964C11.629,256.54827,10.43607,255.88557,8.99705,255.88557Z"/>
          <path class="cls-3" d="M4.56532,252.38479v-1.34435H1.53475v-2.51935H4.56532v-1.66624H6.26943v1.66624h5.15124a.85168.85168,0,0,0,.96566-.96566c0-.32189-.01894-.75738-.01894-.75738H14.2619s.03681.587.03681,1.60943c0,1.24968-.49229,2.633-2.32894,2.633H6.26838v1.34435Z"/>
          <path class="cls-3" d="M5.83393,242.95435v-.0568a3.09544,3.09544,0,0,1-1.53474-2.8223,3.34255,3.34255,0,0,1,3.63647-3.35245h6.34517V239.299H8.31435a1.61672,1.61672,0,0,0-1.77984,1.68622,2.03043,2.03043,0,0,0,2.23532,1.96918h5.511v2.57615H.73845v-2.57615Z"/>
          <path class="cls-3" d="M8.4469,231.519A14.01517,14.01517,0,0,1,0,228.6588v-2.1964a15.042,15.042,0,0,0,8.4469,2.36681,16.06121,16.06121,0,0,0,8.31435-2.34787v2.15853A13.90337,13.90337,0,0,1,8.4469,231.519Z"/>
          <path class="cls-3" d="M13.20156,219.68382v.03787a2.97884,2.97884,0,0,1,1.30648,2.86015c0,1.98919-1.04139,3.39034-2.97271,3.39034-2.14066,0-2.82335-1.742-3.1263-3.90156-.22722-1.60943-.35976-2.34787-1.09821-2.34787-.70057,0-1.156.5491-1.156,1.62837,0,1.2118.43549,1.79879,1.36433,1.87451v2.29213c-1.70515-.07574-3.201-1.34435-3.201-4.18558,0-2.917,1.30648-4.0909,3.57967-4.0909h4.943c.73845,0,1.17394-.11361,1.34435-.34083h.09573v2.48147A2.65226,2.65226,0,0,1,13.20156,219.68382Zm-2.34893-.01892h-1.459a7.18043,7.18043,0,0,1,.568,1.79878c.30295,1.34436.6059,2.00811,1.51476,2.00811s1.23179-.60591,1.23179-1.51476C12.70927,220.47907,11.80041,219.6649,10.85263,219.6649Z"/>
          <path class="cls-3" d="M4.56532,215.614v-2.48042H5.8718v-.05681a3.17065,3.17065,0,0,1-1.57261-2.82229,2.89922,2.89922,0,0,1,1.70515-2.68976v-.03786a3.38863,3.38863,0,0,1-1.70515-2.917c0-2.04492,1.32646-3.201,3.44713-3.201h6.53451V203.985h-6.099c-1.0982,0-1.66623.54911-1.66623,1.49583,0,1.07926.83311,1.743,2.12171,1.743h5.64354V209.8h-6.099c-1.0982,0-1.66623.54911-1.66623,1.49582,0,1.04141.83311,1.743,2.12171,1.743h5.64354V215.614Z"/>
          <path class="cls-3" d="M.73845,199.82257v-2.57509H3.04951v2.57509Zm3.82687,0v-2.57509h9.71551v2.57509Z"/>
          <path class="cls-3" d="M5.88968,193.063v-.05681a3.15829,3.15829,0,0,1-1.59155-2.87909,3.34314,3.34314,0,0,1,3.63648-3.35246h6.34622v2.57615H8.31435a1.61648,1.61648,0,0,0-1.77984,1.68518,2.0306,2.0306,0,0,0,2.23532,1.97024h5.511v2.57509H4.56532v-2.51935H5.88968Z"/>
          <path class="cls-3" d="M9.43254,185.65955a5.07635,5.07635,0,1,1,0-10.15205,5.07635,5.07635,0,1,1,0,10.15205Zm0-7.538c-1.8945,0-3.182.88992-3.182,2.46254,0,1.5905,1.2886,2.46255,3.182,2.46255s3.16312-.872,3.16312-2.46255C12.59461,179.01249,11.326,178.12151,9.43254,178.12151Z"/>
          <path class="cls-3" d="M13.20156,165.32284v.03787a2.97884,2.97884,0,0,1,1.30648,2.86015c0,1.98919-1.04139,3.39034-2.97271,3.39034-2.14066,0-2.82335-1.742-3.1263-3.90156-.22722-1.60943-.35976-2.34788-1.09821-2.34788-.70057,0-1.156.54911-1.156,1.62838,0,1.2118.43549,1.79878,1.36433,1.87451v2.29213c-1.70515-.07574-3.201-1.34435-3.201-4.18558,0-2.917,1.30648-4.09092,3.57967-4.09092h4.943c.73845,0,1.17394-.11361,1.34435-.34082h.09573v2.48146A2.65191,2.65191,0,0,1,13.20156,165.32284Zm-2.34893-.01894h-1.459a7.18052,7.18052,0,0,1,.568,1.79879c.30295,1.34435.6059,2.0081,1.51476,2.0081s1.23179-.60591,1.23179-1.51476C12.70927,166.11809,11.80041,165.3039,10.85263,165.3039Z"/>
          <path class="cls-3" d="M9.43254,161.72739a4.79185,4.79185,0,0,1-5.13335-4.84828,4.1248,4.1248,0,0,1,3.56179-4.4128v2.51934A1.78005,1.78005,0,0,0,6.3641,156.7655c0,1.55369,1.19393,2.34893,3.06844,2.34893,1.83665,0,3.06844-.7395,3.06844-2.31107a1.8131,1.8131,0,0,0-1.6473-1.95026v-2.48146a4.07007,4.07007,0,0,1,3.71222,4.37492A4.832,4.832,0,0,1,9.43254,161.72739Z"/>
          <path class="cls-3" d="M.73845,151.25659v-2.57615H3.04951v2.57615Zm3.82687,0v-2.57615h9.71551v2.57615Z"/>
          <path class="cls-3" d="M9.43254,147.48862c-3.03057,0-5.13335-1.723-5.13335-4.1477a3.08229,3.08229,0,0,1,1.44007-2.74657v-.0568H.73845V137.9614H14.28083v2.48147H13.01222v.03786a3.23318,3.23318,0,0,1,1.55368,2.898C14.5659,145.82134,12.57672,147.48862,9.43254,147.48862Zm.05575-7.00786c-1.85663,0-3.10526.60591-3.10526,2.25427,0,1.42009,1.24968,2.14065,3.04846,2.14065,1.87452,0,2.97377-.7395,2.97377-2.06491C12.40631,141.276,11.26919,140.48076,9.48829,140.48076Z"/>
          <path class="cls-3" d="M11.13665,136.90423v-2.38679a1.86938,1.86938,0,0,0,1.61048-2.12172c0-1.13607-.43654-1.77985-1.11713-1.77985-.92885,0-1.02352,1.23075-1.2886,2.55722-.34082,1.743-.81419,3.44712-2.9359,3.44712-2.10173,0-3.10632-1.742-3.10632-3.95836,0-2.55722,1.26967-3.9773,3.221-4.16665v2.33c-1.0414.1136-1.42114.77631-1.42114,1.87451,0,1.00458.37869,1.66624,1.07926,1.66624.83312,0,.90886-1.28755,1.19393-2.67082.33977-1.62837.79525-3.42821,3.06739-3.42821,1.95026,0,3.1263,1.66624,3.1263,4.09091C14.5659,135.18119,13.20156,136.75276,11.13665,136.90423Z"/>
          <path class="cls-3" d="M8.4469,125.35418A15.04762,15.04762,0,0,0,0,127.721v-2.1964a14.02438,14.02438,0,0,1,8.4469-2.86017,13.90325,13.90325,0,0,1,8.31435,2.8791v2.15959A16.05134,16.05134,0,0,0,8.4469,125.35418Z"/>
        </g>
        <line id="Line-15" class="cls-4" x1="96.85635" y1="0.5" x2="96.85635" y2="438.12606"/>
        <line id="Line-2" class="cls-4" x1="86.33717" y1="357.62597" x2="96.85635" y2="357.62597"/>
        <line id="Line-2-2" data-name="Line-2" class="cls-4" x1="86.33717" y1="256.64189" x2="96.85635" y2="256.64189"/>
        <line id="Line-2-3" data-name="Line-2" class="cls-4" x1="86.33717" y1="155.65782" x2="96.85635" y2="155.65782"/>
        <line id="Line-2-4" data-name="Line-2" class="cls-4" x1="86.33717" y1="54.67375" x2="96.85635" y2="54.67375"/>
        <line id="Line-15-2" data-name="Line-15" class="cls-4" x1="499.76913" y1="438.09765" x2="97.87986" y2="438.09765"/>
        <g>
          <g class="cls-1">
            <path class="cls-2" d="M140.37627,467.35882c0-3.56916,2.22271-6.29677,5.775-6.29677,2.96325,0,4.71365,1.76827,4.96716,4.05724h-2.42467a2.37871,2.37871,0,0,0-2.54249-2.00284c-2.22271,0-3.28408,1.85241-3.28408,4.24237,0,2.45834,1.28018,4.22661,3.30092,4.22661a2.42541,2.42541,0,0,0,2.593-2.12171h2.391a4.25819,4.25819,0,0,1-1.33067,2.84542,5.09031,5.09031,0,0,1-3.65332,1.28019C142.78411,473.58933,140.37627,470.97954,140.37627,467.35882Z"/>
            <path class="cls-2" d="M157.39418,472.37755h-.03366a2.65027,2.65027,0,0,1-2.54249,1.16132c-1.76827,0-3.01375-.92675-3.01375-2.64453,0-1.90291,1.54948-2.50883,3.46817-2.77811,1.43061-.20195,2.08806-.32082,2.08806-.97721,0-.62275-.4881-1.02771-1.44849-1.02771-1.07717,0-1.6.38711-1.66624,1.21287h-2.03756c.06732-1.51582,1.195-2.84542,3.72064-2.84542,2.593,0,3.63752,1.16132,3.63752,3.181v4.39493c0,.65744.101,1.04456.30295,1.196v.08619h-2.20588A2.34207,2.34207,0,0,1,157.39418,472.37755Zm.01684-2.08808v-1.296a6.30632,6.30632,0,0,1-1.6.50493c-1.196.2693-1.78511.53857-1.78511,1.34645s.53857,1.095,1.34645,1.095C156.68625,471.93993,157.411,471.131,157.411,470.28947Z"/>
            <path class="cls-2" d="M160.4721,470.54192h2.12172a1.66061,1.66061,0,0,0,1.885,1.4306c1.00985,0,1.58314-.38712,1.58314-.993,0-.8247-1.095-.90888-2.27318-1.1445-1.54949-.303-3.06423-.72371-3.06423-2.6098,0-1.8682,1.54948-2.76128,3.51866-2.76128,2.27319,0,3.5355,1.12765,3.7038,2.8633h-2.07122c-.101-.92675-.69007-1.26334-1.66624-1.26334-.89307,0-1.48215.33662-1.48215.9604,0,.74056,1.14449.80787,2.37419,1.06032,1.44744.303,3.0474.70795,3.0474,2.72761,0,1.7346-1.48214,2.77917-3.63752,2.77917C162.00369,473.58933,160.60674,472.37755,160.4721,470.54192Z"/>
            <path class="cls-2" d="M169.325,470.5756h2.22271a1.66288,1.66288,0,0,0,1.75144,1.26231,1.97119,1.97119,0,0,0,1.66623-.7237,4.53044,4.53044,0,0,0,.72373-2.70973h-.03366a3.33165,3.33165,0,0,1-2.67713,1.26231,3.92445,3.92445,0,0,1-4.12458-4.05724,4.06706,4.06706,0,0,1,4.34337-4.04148c3.06423,0,4.782,1.93659,4.782,5.84234,0,3.688-1.22864,6.18-4.61371,6.18C170.9576,473.58933,169.57749,472.30917,169.325,470.5756Zm6.29677-4.96714a2.203,2.203,0,0,0-2.30685-2.23953,2.17728,2.17728,0,0,0-2.27319,2.20586,2.10815,2.10815,0,0,0,2.25637,2.23953A2.18065,2.18065,0,0,0,175.62181,465.60846Z"/>
          </g>
          <line id="Line-2-5" data-name="Line-2" class="cls-4" x1="159.17772" y1="438.62361" x2="159.17772" y2="449.14278"/>
          <polygon id="Rectangle" class="cls-5" points="183.544 1.026 183.544 227.188 134.812 227.188 134.812 1.026 183.544 1.026"/>
        </g>
        <g>
          <g class="cls-1">
            <path class="cls-2" d="M319.09573,467.378c0-3.56916,2.22271-6.29677,5.775-6.29677,2.96323,0,4.71362,1.76827,4.96717,4.05724h-2.42467a2.378,2.378,0,0,0-2.54247-2.00284c-2.22165,0-3.283,1.85241-3.283,4.24237,0,2.45833,1.2802,4.22661,3.30092,4.22661a2.42611,2.42611,0,0,0,2.593-2.12172h2.39a4.2534,4.2534,0,0,1-1.33069,2.84542,5.09025,5.09025,0,0,1-3.6533,1.2802C321.50357,473.60849,319.09573,470.99869,319.09573,467.378Z"/>
            <path class="cls-2" d="M336.11366,472.3967H336.081a2.65024,2.65024,0,0,1-2.54247,1.16132c-1.76828,0-3.01374-.92675-3.01374-2.64452,0-1.90291,1.54947-2.50884,3.46817-2.77811,1.43059-.20195,2.088-.32083,2.088-.97721,0-.62275-.48913-1.02772-1.4485-1.02772-1.07715,0-1.6.38712-1.66728,1.21288h-2.03758c.06732-1.51582,1.196-2.84542,3.72062-2.84542,2.594,0,3.63754,1.16132,3.63754,3.181v4.39492c0,.65745.101,1.04457.303,1.196v.08619h-2.20586A2.35824,2.35824,0,0,1,336.11366,472.3967Zm.01682-2.08807v-1.296a6.31979,6.31979,0,0,1-1.6.50494c-1.196.2693-1.7851.53857-1.7851,1.34645s.53964,1.095,1.34646,1.095C335.40677,471.95909,336.13048,471.15018,336.13048,470.30863Z"/>
            <path class="cls-2" d="M339.1905,470.56108h2.12278a1.66062,1.66062,0,0,0,1.885,1.43059c1.01089,0,1.58314-.38711,1.58314-.993,0-.8247-1.094-.90887-2.27321-1.1445-1.54946-.30294-3.06423-.7237-3.06423-2.60979,0-1.86821,1.54947-2.76128,3.51973-2.76128,2.2732,0,3.53548,1.12764,3.7038,2.8633h-2.07122c-.102-.92675-.69007-1.26334-1.66728-1.26334-.89308,0-1.48109.33662-1.48109.96039,0,.74056,1.1445.80788,2.37416,1.06033,1.44745.303,3.04741.70795,3.04741,2.72761,0,1.7346-1.48215,2.77916-3.63754,2.77916C340.72421,473.60849,339.3262,472.3967,339.1905,470.56108Z"/>
            <path class="cls-2" d="M350.21673,465.30782h-2.60979v-1.51477c1.41483-.05049,2.67714-.57225,2.91379-2.05439h2.00285V473.356h-2.30579v-8.04822Z"/>
            <path class="cls-2" d="M359.47465,470.84721H354.153V468.371l5.2375-6.68389h2.3237v7.32451h1.75039v1.8356h-1.75039V473.356h-2.23953v-2.50883Zm-3.46923-1.8356h3.46923v-4.47905H359.441l-3.43555,4.42856Z"/>
          </g>
          <line id="Line-2-6" data-name="Line-2" class="cls-4" x1="341.28017" y1="438.64276" x2="341.28017" y2="449.16194"/>
          <polygon id="Rectangle-2" data-name="Rectangle" class="cls-6" points="365.904 296.634 365.904 415.501 316.656 415.501 316.656 296.634 365.904 296.634"/>
        </g>
        <line id="Line-2-7" data-name="Line-2" class="cls-4" x1="432.40455" y1="438.64276" x2="432.40455" y2="449.16194"/>
        <polygon id="Rectangle-3" data-name="Rectangle" class="cls-6" points="457.029 283.14 457.029 329.798 407.78 329.798 407.78 283.14 457.029 283.14"/>
        <g>
          <path class="cls-2" d="M412.78187,467.63249c0-3.56871,2.223-6.29712,5.77528-6.29712,2.96365,0,4.71513,1.76792,4.96784,4.05769h-2.42537a2.37818,2.37818,0,0,0-2.54247-2.00317c-2.222,0-3.28314,1.85216-3.28314,4.2426,0,2.45824,1.28,4.22616,3.3006,4.22616a2.42568,2.42568,0,0,0,2.59281-2.1213h2.39044a4.26091,4.26091,0,0,1-1.32928,2.84552,5.09251,5.09251,0,0,1-3.654,1.28C415.18978,473.86284,412.78187,471.25257,412.78187,467.63249Z"/>
          <path class="cls-2" d="M429.4636,472.65067h-.0339a2.6479,2.6479,0,0,1-2.54248,1.16184c-1.76792,0-3.014-.9266-3.014-2.64418,0-1.90249,1.54911-2.50858,3.46907-2.77772,1.431-.20237,2.0874-.32051,2.0874-.97693,0-.62252-.488-1.02726-1.44742-1.02726-1.07759,0-1.59944.38728-1.66724,1.2132H424.278c.06678-1.51624,1.19574-2.84552,3.72075-2.84552,2.59281,0,3.63651,1.16081,3.63651,3.18143v4.39463c0,.65745.1017,1.04473.30407,1.19574v.08423h-2.20656A2.34092,2.34092,0,0,1,429.4636,472.65067Zm.01643-2.08843v-1.2964a6.34133,6.34133,0,0,1-1.59944.50541c-1.19471.26914-1.78436.53829-1.78436,1.34674s.53829,1.09507,1.34674,1.09507C428.75684,472.21306,429.48,471.4046,429.48,470.56224Z"/>
          <path class="cls-2" d="M432.20434,470.815h2.12129a1.66105,1.66105,0,0,0,1.88606,1.431c1.0098,0,1.582-.38728,1.582-.99336,0-.8249-1.094-.90913-2.2723-1.14438-1.54911-.303-3.06433-.72422-3.06433-2.61027,0-1.86859,1.54809-2.76128,3.51838-2.76128,2.27333,0,3.53584,1.12793,3.70431,2.863h-2.071c-.10067-.92659-.69032-1.26354-1.66725-1.26354-.89167,0-1.48131.337-1.48131.9605,0,.74065,1.14539.80742,2.374,1.06013,1.44844.303,3.04789.70778,3.04789,2.72738,0,1.73505-1.48234,2.77875-3.63754,2.77875C433.736,473.86284,432.33891,472.65067,432.20434,470.815Z"/>
          <path class="cls-2" d="M445.04615,472.23052a6.10033,6.10033,0,0,1-2.036-.50541,4.72456,4.72456,0,0,1-1.4731-1.03548,4.06948,4.06948,0,0,1-.89166-1.46385,5.37172,5.37172,0,0,1-.29483-1.809,5.779,5.779,0,0,1,.27736-1.81825,3.986,3.986,0,0,1,.8588-1.47207,4.40486,4.40486,0,0,1,1.46384-1.02726,6.43572,6.43572,0,0,1,2.09562-.49617V461.0878H447.15V462.603a6.43566,6.43566,0,0,1,2.09561.49617,4.40481,4.40481,0,0,1,1.46385,1.02726,4.09022,4.09022,0,0,1,.867,1.47207,5.60785,5.60785,0,0,1,.28661,1.81825,5.273,5.273,0,0,1-.303,1.809,4.23632,4.23632,0,0,1-.89269,1.46385,4.592,4.592,0,0,1-1.47207,1.03548,6.20114,6.20114,0,0,1-2.04528.50541v1.37961h-2.10384Zm-2.65958-4.81376a4.51244,4.51244,0,0,0,.13457,1.12691,2.55056,2.55056,0,0,0,.45508.93481,2.61015,2.61015,0,0,0,.82489.6893,3.54177,3.54177,0,0,0,1.245.37906v-6.26117a3.58458,3.58458,0,0,0-1.245.37906,2.61271,2.61271,0,0,0-.82489.69032,2.54605,2.54605,0,0,0-.45508.93378A4.52076,4.52076,0,0,0,442.38657,467.41676Zm7.43944,0a4.33557,4.33557,0,0,0-.14279-1.13615,2.73637,2.73637,0,0,0-.45508-.943,2.50982,2.50982,0,0,0-.82387-.68929,3.6433,3.6433,0,0,0-1.25428-.37906v6.27761a3.64351,3.64351,0,0,0,1.25428-.37906,2.49736,2.49736,0,0,0,.82387-.6893,2.74184,2.74184,0,0,0,.45508-.93481A4.23742,4.23742,0,0,0,449.826,467.41676Z"/>
        </g>
        <g>
          <g class="cls-1">
            <path class="cls-2" d="M228.74891,467.35882c0-3.56916,2.22164-6.29677,5.775-6.29677,2.96221,0,4.71363,1.76827,4.96717,4.05724h-2.42466a2.37872,2.37872,0,0,0-2.54248-2.00284c-2.2227,0-3.28409,1.85241-3.28409,4.24237,0,2.45834,1.28019,4.22661,3.30092,4.22661a2.42542,2.42542,0,0,0,2.593-2.12171h2.391a4.25821,4.25821,0,0,1-1.33069,2.84542,5.09124,5.09124,0,0,1-3.65436,1.28019C231.15569,473.58933,228.74891,470.97954,228.74891,467.35882Z"/>
            <path class="cls-2" d="M245.76578,472.37755h-.03368a2.6491,2.6491,0,0,1-2.54248,1.16132c-1.76827,0-3.01373-.92675-3.01373-2.64453,0-1.90291,1.54947-2.50883,3.46923-2.77811,1.43059-.20195,2.087-.32082,2.087-.97721,0-.62275-.48808-1.02771-1.4485-1.02771-1.07715,0-1.6.38711-1.66625,1.21287H240.5798c.06626-1.51582,1.195-2.84542,3.72062-2.84542,2.593,0,3.63648,1.16132,3.63648,3.181v4.39493c0,.65744.102,1.04456.30294,1.196v.08619H246.034A2.36,2.36,0,0,1,245.76578,472.37755Zm.01682-2.08808v-1.296a6.30619,6.30619,0,0,1-1.6.50493c-1.196.2693-1.78407.53857-1.78407,1.34645s.53857,1.095,1.34645,1.095C245.05889,471.93993,245.7826,471.131,245.7826,470.28947Z"/>
            <path class="cls-2" d="M248.84368,470.54192h2.12172a1.66162,1.66162,0,0,0,1.88608,1.4306c1.00984,0,1.58314-.38712,1.58314-.993,0-.8247-1.095-.90888-2.2732-1.1445-1.54947-.303-3.06423-.72371-3.06423-2.6098,0-1.8682,1.54947-2.76128,3.51867-2.76128,2.2732,0,3.53548,1.12765,3.70379,2.8633h-2.07122c-.101-.92675-.69006-1.26334-1.66625-1.26334-.89308,0-1.48215.33662-1.48215.9604,0,.74056,1.14553.80787,2.37417,1.06032,1.4485.303,3.04741.70795,3.04741,2.72761,0,1.7346-1.48109,2.77917-3.63648,2.77917C250.37527,473.58933,248.97832,472.37755,248.84368,470.54192Z"/>
            <path class="cls-2" d="M259.86881,465.28866h-2.60876V463.7739c1.41483-.0505,2.67714-.57225,2.91277-2.0544h2.0039v11.61738h-2.30685v-8.04822Z"/>
            <path class="cls-2" d="M266.61793,468.75683c1.44745-1.14553,3.03059-1.95341,3.03059-3.43555a1.58157,1.58157,0,0,0-1.6-1.80195c-1.16132,0-1.85241.84258-1.88609,2.34158h-2.15539c0-2.62665,1.34751-4.29393,4.092-4.29393a3.636,3.636,0,0,1,3.92261,3.687c0,2.17221-1.48109,3.19992-2.89592,4.14244a7.00856,7.00856,0,0,0-2.3237,2.05334h5.32164v1.88714h-8.28491A6.05256,6.05256,0,0,1,266.61793,468.75683Z"/>
          </g>
          <line id="Line-2-8" data-name="Line-2" class="cls-4" x1="250.43629" y1="438.62361" x2="250.43629" y2="449.14278"/>
          <polygon id="Rectangle-4" data-name="Rectangle" class="cls-5" points="274.802 40.976 274.802 220.877 226.07 220.877 226.07 40.976 274.802 40.976"/>
        </g>
      </g>
    </g>
  </g>
</svg>
