<?xml version="1.0" encoding="utf-8"?>
<!-- Generator: Adobe Illustrator 24.2.3, SVG Export Plug-In . SVG Version: 6.00 Build 0)  -->
<svg version="1.1" id="Layer_1" xmlns="http://www.w3.org/2000/svg" xmlns:xlink="http://www.w3.org/1999/xlink" x="0px" y="0px"
	 viewBox="0 0 551 527" style="enable-background:new 0 0 551 527;" xml:space="preserve">
<style type="text/css">
	.st0{fill:none;stroke:url(#Path_15_);stroke-width:3;}
	.st1{fill:none;stroke:url(#Path_16_);stroke-width:3;stroke-dasharray:6;}
	.st2{fill:none;stroke:url(#Shape_5_);stroke-width:3;}
	.st3{fill:none;stroke:url(#Shape_6_);stroke-width:3;}
	.st4{fill:url(#Path_17_);}
	.st5{fill:url(#Path_18_);}
	.st6{fill:url(#Path_19_);}
	.st7{fill:url(#Path_20_);}
	.st8{fill:url(#Path_21_);}
	.st9{fill:url(#Path_22_);}
	.st10{fill:url(#Path_23_);}
	.st11{fill:url(#Path_24_);}
	.st12{fill:url(#Shape_7_);}
	.st13{fill:url(#SVGID_1_);}
	.st14{fill:url(#SVGID_2_);}
	.st15{fill:url(#SVGID_3_);}
	.st16{fill:#37B14A;}
	.st17{fill:url(#Path_25_);}
	.st18{fill:#FFFFFF;}
	.st19{fill:#FAFBFD;}
	.st20{fill:none;stroke:url(#Path_26_);stroke-width:3;}
	.st21{fill:none;stroke:url(#Path_27_);stroke-width:3;}
	.st22{fill:none;stroke:url(#Path_28_);stroke-width:3;stroke-dasharray:6;}
</style>
<desc>Created with Sketch.</desc>
<linearGradient id="Path_15_" gradientUnits="userSpaceOnUse" x1="-259.9668" y1="798.1904" x2="-259.9668" y2="797.0634" gradientTransform="matrix(77 0 0 -43 20163 34441)">
	<stop  offset="0" style="stop-color:#37B14A"/>
	<stop  offset="1" style="stop-color:#37B14A;stop-opacity:0"/>
</linearGradient>
<line id="Path" class="st0" x1="99" y1="118" x2="192.1" y2="168.1"/>
<linearGradient id="Path_16_" gradientUnits="userSpaceOnUse" x1="-262.3813" y1="801.5826" x2="-262.3813" y2="800.6611" gradientTransform="matrix(233 0 0 -130 61450 104446)">
	<stop  offset="0" style="stop-color:#258EA8"/>
	<stop  offset="1" style="stop-color:#258EA8;stop-opacity:0"/>
</linearGradient>
<line id="Path_1_" class="st1" x1="233.6" y1="254.6" x2="396.7" y2="345.7"/>
<g id="Group" transform="translate(195.000000, 0.000000)">
	
		<linearGradient id="Shape_5_" gradientUnits="userSpaceOnUse" x1="-455.4352" y1="802.5512" x2="-455.4352" y2="803.4624" gradientTransform="matrix(86.1381 0 0 -559 39305.1367 449153)">
		<stop  offset="0" style="stop-color:#0F4E61;stop-opacity:0"/>
		<stop  offset="0.245" style="stop-color:#0F4E61"/>
		<stop  offset="0.759" style="stop-color:#0F4E61"/>
		<stop  offset="1" style="stop-color:#0F4E61;stop-opacity:0"/>
	</linearGradient>
	<path id="Shape" class="st2" d="M31.8,12.2L117.9,62 M52.1,469.1l37.8,22.1 M99.5,462.3l-38.7-22.7 M35.2,322.7l73,42.2
		 M31.8,382.2l76.5,44.2 M52.1,126.8l38.5,22.5 M41.4,154.6l74.7,43.2 M33.8,47.6l74.4,43 M117.9,552c0-6.7-2.2-14.4-6.3-21.5
		L38.1,399.7c-4.1-7.2-6.3-15-6.3-21.7l0.3-46.7c0-6.6,2.3-11.6,6.2-14.1l73.3-46.1c4-2.5,6.2-7.6,6.2-14.3v-48.1
		c0-6.7-2.3-14.5-6.3-21.7L38.1,57.3c-4.1-7.2-6.3-15-6.3-21.7V-7"/>
	
		<linearGradient id="Shape_6_" gradientUnits="userSpaceOnUse" x1="-455.4352" y1="802.3864" x2="-455.4352" y2="803.4259" gradientTransform="matrix(86.14 0 0 -490.0115 39275.1016 393687.375)">
		<stop  offset="0" style="stop-color:#0F4E61;stop-opacity:0"/>
		<stop  offset="0.529" style="stop-color:#0F4E61;stop-opacity:0.6"/>
		<stop  offset="0.858" style="stop-color:#0F4E61;stop-opacity:0.192"/>
		<stop  offset="1" style="stop-color:#0F4E61;stop-opacity:0"/>
	</linearGradient>
	<path id="Shape_1_" class="st3" d="M0.8-5.9L87,43.9 M27.9,455.2l38.7,22.1 M19.2,415.7l38.7,22.1 M10.5,308.3L87,352.5
		 M10.5,369.7L87,413.9 M27.9,112.9L66.7,135 M2.6,131.9l74.7,43.2 M10.5,33.9L87,78.1 M87,24.7v42.6c0,6.7-2.3,11.9-6.3,14.3
		L7.2,126.5c-4.1,2.5-6.3,7.6-6.3,14.3v48.1c0,6.6,2.2,14.3,6.2,21.5l73.3,130.9c3.9,7,6.2,14.6,6.2,21.3l0.3,47.1
		c0,6.8-2.2,12-6.3,14.5L7.1,469.9c-4,2.5-6.3,7.6-6.3,14.3"/>
</g>
<g id="Group_1_" transform="translate(403.000000, 274.000000)">
	<g>
		
			<linearGradient id="Path_17_" gradientUnits="userSpaceOnUse" x1="-662.6407" y1="513.1855" x2="-661.6407" y2="513.1855" gradientTransform="matrix(60.5612 0 0 -17.2239 40130.918 8908.3125)">
			<stop  offset="0" style="stop-color:#0F4E61;stop-opacity:0.6"/>
			<stop  offset="0.698" style="stop-color:#0F4E61;stop-opacity:0.192"/>
			<stop  offset="1" style="stop-color:#0F4E61;stop-opacity:0"/>
		</linearGradient>
		<polygon id="Path_2_" class="st4" points="0.6,77.8 5.7,74.9 61.2,60.6 49.2,67.7 		"/>
		
			<linearGradient id="Path_18_" gradientUnits="userSpaceOnUse" x1="-663.4668" y1="525.2696" x2="-662.4668" y2="525.2696" gradientTransform="matrix(74.7195 0 0 -66.4241 49574.7305 34921.8711)">
			<stop  offset="0" style="stop-color:#0F4E61;stop-opacity:0.6"/>
			<stop  offset="0.698" style="stop-color:#0F4E61;stop-opacity:0.192"/>
			<stop  offset="1" style="stop-color:#0F4E61;stop-opacity:0"/>
		</linearGradient>
		<path id="Path_3_" class="st5" d="M32.3,9.7c-4.2-4.3-9.1-7.8-14.5-10.4c-5.1-2.3-12.2-1-17,1.8c3.9-2.3,9.1-1.7,14.3,1.4
			c4.7,2.9,8.7,6.7,11.8,11.3L64,64.5l11.5-7.1L62.9,43.4L40.8,18.9C38,15.7,35.2,12.6,32.3,9.7z"/>
		
			<linearGradient id="Path_19_" gradientUnits="userSpaceOnUse" x1="-660.1855" y1="523.0728" x2="-659.1855" y2="523.0728" gradientTransform="matrix(38.7412 0 0 -43.7206 25673.125 23005.9551)">
			<stop  offset="0" style="stop-color:#0F4E61;stop-opacity:0.6"/>
			<stop  offset="0.698" style="stop-color:#0F4E61;stop-opacity:0.192"/>
			<stop  offset="1" style="stop-color:#0F4E61;stop-opacity:0"/>
		</linearGradient>
		<path id="Path_4_" class="st6" d="M100.8,123.9l15.2-8.9c-0.5,0.3-0.9,0.6-1.3,1c-4.5,4.5-3.2,15.3,3,24.1
			c2.1,3.2,4.9,5.8,8.1,7.8c3.6,2.1,7.2,2.5,9.8,1l-15.2,8.9c-2.7,1.6-6.2,1.1-9.8-1c-3.2-2-6-4.6-8.1-7.8
			c-6.1-8.8-7.5-19.6-2.9-24.1C99.8,124.6,100.3,124.2,100.8,123.9z"/>
		
			<linearGradient id="Path_20_" gradientUnits="userSpaceOnUse" x1="-659.5469" y1="521.4988" x2="-658.5469" y2="521.4988" gradientTransform="matrix(35.4217 0 0 -35.1196 23441.3496 18409.9355)">
			<stop  offset="0" style="stop-color:#0F4E61;stop-opacity:0.6"/>
			<stop  offset="0.698" style="stop-color:#0F4E61;stop-opacity:0.192"/>
			<stop  offset="1" style="stop-color:#0F4E61;stop-opacity:0"/>
		</linearGradient>
		<polygon id="Path_5_" class="st7" points="79.1,85.1 91.9,77.6 114.5,103.8 99.3,112.7 		"/>
		
			<linearGradient id="Path_21_" gradientUnits="userSpaceOnUse" x1="-661.5281" y1="525.1102" x2="-660.5281" y2="525.1102" gradientTransform="matrix(48.247 0 0 -64.0128 32016.0742 33749.4961)">
			<stop  offset="0" style="stop-color:#0F4E61;stop-opacity:0.6"/>
			<stop  offset="0.698" style="stop-color:#0F4E61;stop-opacity:0.192"/>
			<stop  offset="1" style="stop-color:#0F4E61;stop-opacity:0"/>
		</linearGradient>
		<path id="Path_6_" class="st8" d="M138.7,119.1c-3.4-5-7.7-9.2-12.8-12.3c-4-2.3-7.9-3.3-11.3-3l-15.2,8.9c3.4-0.4,7.4,0.7,11.3,3
			c5.1,3.1,9.5,7.3,12.8,12.3c9.7,13.9,11.8,31,4.7,38.1c-0.6,0.6-1.4,1.2-2.1,1.7l15.2-8.9c0.8-0.5,1.5-1,2.1-1.7
			C150.5,150,148.4,132.9,138.7,119.1z"/>
		
			<linearGradient id="Path_22_" gradientUnits="userSpaceOnUse" x1="-660.4984" y1="509.7504" x2="-659.4984" y2="509.7504" gradientTransform="matrix(40.6049 0 0 -14.2281 26883.5371 7310.1992)">
			<stop  offset="0" style="stop-color:#0F4E61;stop-opacity:0.6"/>
			<stop  offset="0.698" style="stop-color:#0F4E61;stop-opacity:0.192"/>
			<stop  offset="1" style="stop-color:#0F4E61;stop-opacity:0"/>
		</linearGradient>
		<polygon id="Path_7_" class="st9" points="64,64.5 75.6,57.4 104.7,50.3 89.5,59.2 		"/>
		
			<linearGradient id="Path_23_" gradientUnits="userSpaceOnUse" x1="-660.1883" y1="523.0721" x2="-659.1883" y2="523.0721" gradientTransform="matrix(38.7568 0 0 -43.716 25683.748 22928.5801)">
			<stop  offset="0" style="stop-color:#0F4E61;stop-opacity:0.6"/>
			<stop  offset="0.698" style="stop-color:#0F4E61;stop-opacity:0.192"/>
			<stop  offset="1" style="stop-color:#0F4E61;stop-opacity:0"/>
		</linearGradient>
		<path id="Path_8_" class="st10" d="M101,49l15.2-8.9c-4.7,2.7-5.4,11.1-1.4,19.9c2.3,5.4,6.2,9.9,11.1,13c2.8,1.6,5.7,2.3,8.1,1.7
			c0.6-0.2,1.2-0.4,1.7-0.7l-15.2,8.9c-0.5,0.3-1.1,0.5-1.7,0.7c-2.5,0.6-5.3,0-8.1-1.7c-4.9-3.1-8.8-7.7-11.1-13
			C95.6,60.1,96.3,51.8,101,49z"/>
		
			<linearGradient id="Path_24_" gradientUnits="userSpaceOnUse" x1="-661.9703" y1="525.1099" x2="-660.9703" y2="525.1099" gradientTransform="matrix(52.4882 0 0 -64.0078 34840.8984 33671.9102)">
			<stop  offset="0" style="stop-color:#0F4E61;stop-opacity:0.6"/>
			<stop  offset="0.698" style="stop-color:#0F4E61;stop-opacity:0.192"/>
			<stop  offset="1" style="stop-color:#0F4E61;stop-opacity:0"/>
		</linearGradient>
		<path id="Path_9_" class="st11" d="M95.3,39.1l15.2-8.9c0.8-0.5,1.7-0.9,2.7-1.1c3.9-1,8.4,0,12.9,2.6
			c6.7,3.9,13.4,11.4,17.6,20.6c6.4,13.9,5.2,27.1-2.2,31.5l-15.2,8.9c7.4-4.4,8.6-17.6,2.2-31.5c-4.2-9.3-10.9-16.7-17.6-20.6
			c-4.5-2.6-9-3.6-12.9-2.6C97,38.3,96.1,38.7,95.3,39.1L95.3,39.1z"/>
		
			<linearGradient id="Shape_7_" gradientUnits="userSpaceOnUse" x1="-664.9995" y1="527.8419" x2="-663.9995" y2="527.8419" gradientTransform="matrix(131.9693 0 0 -169.4744 87760.1484 89540.1484)">
			<stop  offset="0" style="stop-color:#0F4E61;stop-opacity:0.6"/>
			<stop  offset="0.698" style="stop-color:#0F4E61;stop-opacity:0.192"/>
			<stop  offset="1" style="stop-color:#0F4E61;stop-opacity:0"/>
		</linearGradient>
		<path id="Shape_2_" class="st12" d="M123.5,128c9.7,13.9,11.8,31,4.7,38.1c-4.3,4.3-10.9,4-17.7,0.1c-5.1-3.1-9.5-7.3-12.8-12.3
			c-7.2-10.3-10.2-22.5-8.3-30.9L64,88.1l-37.4,7.4c-3.5,0.9-7.7,0-11.8-2.4C9.6,90,4.5,84.7,0.6,77.9l48.6-10.2L0.8,1.1
			c3.9-2.3,9.1-1.7,14.3,1.4c4.7,2.9,8.7,6.7,11.8,11.3L64,64.5l25.4-5.3c-1.8-10.6,1.2-19.2,8.5-21.1c3.9-1,8.4,0,12.9,2.6
			c6.7,3.9,13.4,11.4,17.6,20.6c7.1,15.4,4.9,30-4.9,32.5c-3.9,1-8.4,0-12.9-2.6c-4.4-2.7-8.2-6.1-11.3-10.2l-20.3,4l20.2,27.6
			c3.4-0.4,7.4,0.7,11.3,3C115.8,118.8,120.1,123,123.5,128L123.5,128z M102.7,48.3c-6.2,1.6-7.5,10.8-3.1,20.6
			c2.3,5.4,6.2,9.9,11.1,13c2.8,1.6,5.7,2.3,8.1,1.7c6.2-1.6,7.5-10.8,3.1-20.6c-2.3-5.4-6.2-9.9-11.1-13
			C108,48.3,105.1,47.7,102.7,48.3 M121.7,156.8c4.5-4.5,3.2-15.3-2.9-24.1c-2.1-3.2-4.9-5.8-8.1-7.8c-4.3-2.5-8.5-2.7-11.2,0.1
			c-4.5,4.5-3.2,15.3,2.9,24.1c2.1,3.2,4.9,5.8,8.1,7.8C114.8,159.3,119,159.5,121.7,156.8"/>
	</g>
	<g id="Shape_3_" transform="translate(0.000000, 0.960894)">
		
			<linearGradient id="SVGID_1_" gradientUnits="userSpaceOnUse" x1="-659.8766" y1="526.3649" x2="-658.8766" y2="526.3649" gradientTransform="matrix(37.0611 0 0 -129.2424 24550.8945 68130.6406)">
			<stop  offset="0" style="stop-color:#0F4E61;stop-opacity:0.6"/>
			<stop  offset="0.698" style="stop-color:#0F4E61;stop-opacity:0.192"/>
			<stop  offset="1" style="stop-color:#0F4E61;stop-opacity:0"/>
		</linearGradient>
		<path class="st13" d="M113.4,157.8c-0.1,0-0.2-0.1-0.3-0.1C113.2,157.7,113.3,157.7,113.4,157.8z M112.6,157.5l-0.3-0.1
			L112.6,157.5z M111.9,157.2c-0.1,0-0.2-0.1-0.3-0.1C111.7,157.1,111.8,157.2,111.9,157.2L111.9,157.2z M111.1,156.8
			c-0.1,0-0.2-0.1-0.2-0.1C110.9,156.8,111,156.8,111.1,156.8L111.1,156.8z M100.3,123.4c-0.2,0.1-0.3,0.2-0.4,0.3
			C100,123.6,100.2,123.5,100.3,123.4L100.3,123.4z M99.7,123.9c-0.2,0.2-0.4,0.3-0.6,0.5C99.2,124.2,99.4,124,99.7,123.9
			L99.7,123.9z M119.7,157.4c-0.1,0-0.1,0.1-0.2,0.1C119.6,157.5,119.7,157.5,119.7,157.4L119.7,157.4z M119.1,157.7
			c-0.1,0-0.1,0.1-0.2,0.1C119,157.8,119.1,157.7,119.1,157.7L119.1,157.7z M97,53.9c-0.1,0.2-0.1,0.5-0.2,0.7
			C96.9,54.4,96.9,54.2,97,53.9L97,53.9z M120.1,82.3c-0.2,0.1-0.5,0.2-0.7,0.3C119.7,82.5,119.9,82.4,120.1,82.3L120.1,82.3z
			 M99.8,48.9c-0.2,0.2-0.5,0.4-0.7,0.6C99.3,49.3,99.5,49.1,99.8,48.9L99.8,48.9z M96.6,56.1c0,0.4,0,0.8,0,1.2
			C96.6,56.9,96.6,56.5,96.6,56.1L96.6,56.1z M98.5,66.6c-0.2-0.5-0.4-1-0.5-1.4C98.1,65.6,98.3,66.1,98.5,66.6L98.5,66.6z
			 M97.9,64.9c-0.2-0.5-0.3-0.9-0.4-1.4C97.6,64,97.7,64.4,97.9,64.9L97.9,64.9z M97.4,63.3c-0.1-0.5-0.2-0.9-0.3-1.4
			C97.2,62.3,97.3,62.8,97.4,63.3L97.4,63.3z M97.1,61.7c-0.1-0.5-0.2-0.9-0.2-1.4C96.9,60.8,97,61.2,97.1,61.7L97.1,61.7z
			 M96.8,60.3c-0.1-0.5-0.1-0.9-0.1-1.4C96.7,59.4,96.8,59.8,96.8,60.3L96.8,60.3z M96.7,58.8c0-0.4,0-0.8,0-1.3
			C96.6,57.9,96.6,58.3,96.7,58.8L96.7,58.8z M96.7,55.9c0-0.4,0.1-0.8,0.1-1.1C96.7,55.2,96.7,55.5,96.7,55.9L96.7,55.9z
			 M98.6,66.7c0.2,0.5,0.4,1,0.6,1.5C99,67.7,98.8,67.2,98.6,66.7L98.6,66.7z M97.9,51.3c0.1-0.3,0.3-0.5,0.5-0.8
			C98.2,50.8,98,51,97.9,51.3L97.9,51.3z M98.4,50.4c0.2-0.3,0.4-0.5,0.6-0.7C98.8,49.9,98.6,50.1,98.4,50.4L98.4,50.4z M99.8,48.9
			c0.2-0.2,0.5-0.4,0.8-0.5C100.3,48.5,100,48.7,99.8,48.9L99.8,48.9z M119.3,82.7c-0.3,0.1-0.5,0.2-0.8,0.3
			C118.7,82.9,119,82.8,119.3,82.7L119.3,82.7z M127.3,91.1c0.2-0.1,0.3-0.3,0.5-0.4C127.7,90.8,127.5,90.9,127.3,91.1z M126.5,91.7
			c0.2-0.2,0.5-0.3,0.7-0.5C127,91.4,126.7,91.6,126.5,91.7L126.5,91.7z M129,89.4c-0.1,0.1-0.2,0.3-0.3,0.4
			C128.7,89.6,128.9,89.5,129,89.4L129,89.4z M128.4,90c-0.1,0.1-0.2,0.3-0.4,0.4C128.2,90.3,128.3,90.2,128.4,90L128.4,90z
			 M129.2,89.1c0.1-0.1,0.2-0.3,0.3-0.4C129.4,88.8,129.3,88.9,129.2,89.1L129.2,89.1z M129.7,88.3c0.1-0.1,0.2-0.3,0.3-0.5
			C129.9,88,129.8,88.2,129.7,88.3L129.7,88.3z M130.1,87.5c0.1-0.2,0.2-0.3,0.2-0.5C130.3,87.2,130.2,87.4,130.1,87.5L130.1,87.5z
			 M130.5,86.7c0.1-0.2,0.2-0.4,0.2-0.5C130.7,86.3,130.6,86.5,130.5,86.7L130.5,86.7z M130.9,85.8c0.1-0.2,0.2-0.4,0.2-0.6
			C131.1,85.4,131,85.6,130.9,85.8L130.9,85.8z M131.2,84.9c0.1-0.3,0.2-0.6,0.3-1C131.4,84.2,131.3,84.6,131.2,84.9L131.2,84.9z
			 M131.5,83.7c0.1-0.3,0.1-0.5,0.2-0.8C131.7,83.2,131.6,83.5,131.5,83.7L131.5,83.7z M131.8,82.6c0-0.2,0.1-0.4,0.1-0.7
			C131.9,82.1,131.8,82.3,131.8,82.6L131.8,82.6z M132,81.5c0-0.2,0.1-0.4,0.1-0.6C132,81,132,81.2,132,81.5L132,81.5z M132.1,80.4
			c0-0.2,0-0.4,0.1-0.6C132.1,79.9,132.1,80.1,132.1,80.4L132.1,80.4z M132.2,79.2c0-0.2,0-0.4,0-0.7
			C132.2,78.8,132.2,79,132.2,79.2L132.2,79.2z M132.2,78.1c0-0.2,0-0.5,0-0.7C132.2,77.6,132.2,77.9,132.2,78.1L132.2,78.1z
			 M128.8,62.5c0.1,0.3,0.3,0.6,0.4,0.9C129.1,63.1,129,62.8,128.8,62.5L128.8,62.5z M129.4,63.9c0.1,0.3,0.2,0.6,0.3,0.8
			C129.6,64.5,129.5,64.2,129.4,63.9L129.4,63.9z M129.9,65.3c0.1,0.3,0.2,0.5,0.3,0.8C130.1,65.9,130,65.6,129.9,65.3L129.9,65.3z
			 M130.4,66.7c0.1,0.3,0.2,0.5,0.2,0.8C130.5,67.2,130.4,67,130.4,66.7L130.4,66.7z M130.8,68c0.1,0.3,0.1,0.5,0.2,0.8
			C130.9,68.6,130.8,68.3,130.8,68L130.8,68z M131.1,69.4c0.1,0.3,0.1,0.5,0.2,0.8C131.2,69.9,131.2,69.6,131.1,69.4L131.1,69.4z
			 M131.4,70.7c0.1,0.3,0.1,0.6,0.2,0.8C131.5,71.2,131.5,71,131.4,70.7L131.4,70.7z M131.7,72c0.1,0.4,0.1,0.8,0.2,1.1
			C131.8,72.7,131.7,72.3,131.7,72L131.7,72z M131.9,73.2c0.1,0.4,0.1,0.8,0.2,1.2C132,74.1,131.9,73.6,131.9,73.2L131.9,73.2z
			 M132,74.9c0,0.3,0.1,0.6,0.1,0.8C132.1,75.4,132.1,75.1,132,74.9L132,74.9z M132.1,76.2c0,0.2,0,0.5,0,0.7
			C132.2,76.7,132.2,76.4,132.1,76.2L132.1,76.2z M128.7,62c-0.2-0.5-0.4-0.9-0.6-1.4C128.3,61.1,128.5,61.6,128.7,62L128.7,62z
			 M97.8,51.5c-0.1,0.3-0.3,0.6-0.4,0.9C97.5,52.1,97.7,51.8,97.8,51.5L97.8,51.5z M96.2,37.8c-0.4,0.2-0.7,0.3-1.1,0.5
			C95.5,38.1,95.9,38,96.2,37.8L96.2,37.8z M97.6,37.4c-0.4,0.1-0.8,0.3-1.3,0.4C96.7,37.6,97.2,37.5,97.6,37.4L97.6,37.4z
			 M97.4,52.5c-0.1,0.3-0.2,0.7-0.3,1l0,0C97.2,53.1,97.3,52.8,97.4,52.5L97.4,52.5z M116.2,158.2c0.1,0,0.2,0,0.3,0
			C116.3,158.2,116.2,158.2,116.2,158.2L116.2,158.2z M113.9,157.9c0.1,0,0.1,0,0.2,0C114,157.9,114,157.9,113.9,157.9L113.9,157.9z
			 M114.8,158.1l0.2,0L114.8,158.1z M115.5,158.2c0.1,0,0.2,0,0.2,0C115.6,158.2,115.6,158.2,115.5,158.2L115.5,158.2z M117.7,158.1
			c-0.1,0-0.1,0-0.2,0C117.6,158.1,117.7,158.1,117.7,158.1L117.7,158.1z M117.1,158.2c-0.1,0-0.2,0-0.2,0
			C116.9,158.2,117,158.2,117.1,158.2L117.1,158.2z M126.5,166.6c0.1-0.1,0.2-0.2,0.3-0.2C126.7,166.5,126.6,166.5,126.5,166.6
			L126.5,166.6z"/>
		
			<linearGradient id="SVGID_2_" gradientUnits="userSpaceOnUse" x1="-664.2257" y1="526.3958" x2="-664.7535" y2="527.4608" gradientTransform="matrix(131.9114 0 0 -169.8554 87721.2969 89577.8203)">
			<stop  offset="0.333" style="stop-color:#0D2D40"/>
			<stop  offset="0.383" style="stop-color:#0D2D40"/>
			<stop  offset="1" style="stop-color:#0F4E61"/>
		</linearGradient>
		<path class="st14" d="M0.4,0.1l88.8,122.1c-1.9,8.5,1.2,20.6,8.4,31c9.7,13.9,23.4,19.4,30.5,12.3c7.1-7.1,5-24.3-4.8-38.2
			c-7.3-10.5-16.9-16.2-24.2-15.3L26.4,12.8C18.4,1.3,7.3-4.1,0.4,0.1L0.4,0.1z M99.3,124.2c4.5-4.5,13.1-1,19.3,7.8
			s7.5,19.6,3,24.1c-4.5,4.5-13.1,1-19.3-7.8C96.1,139.6,94.8,128.7,99.3,124.2L99.3,124.2z"/>
		
			<linearGradient id="SVGID_3_" gradientUnits="userSpaceOnUse" x1="-664.0338" y1="523.7444" x2="-664.9089" y2="523.59" gradientTransform="matrix(131.9108 0 0 -58.1737 87720.875 30531.9238)">
			<stop  offset="0" style="stop-color:#0D2D40"/>
			<stop  offset="1" style="stop-color:#0F4E61"/>
		</linearGradient>
		<path class="st15" d="M0.4,76.9c7,12.2,18,19.8,26,17.7l72.7-14.4c7.3,9.4,16.9,14.8,24.2,12.9c9.7-2.6,11.9-17.2,4.8-32.6
			c-7.1-15.4-20.8-25.9-30.5-23.3c-7.3,1.9-10.3,10.5-8.4,21.2L0.4,76.9L0.4,76.9z M102.3,47.4c6.2-1.6,14.8,5,19.3,14.7
			s3.1,19-3,20.6s-14.8-5-19.3-14.7C94.8,58.3,96.1,49.1,102.3,47.4L102.3,47.4z"/>
	</g>
</g>
<g id="Group_2_" transform="translate(0.000000, 100.000000)">
	
		<ellipse id="Oval" transform="matrix(5.427870e-03 -1 1 5.427870e-03 53.2731 57.8431)" class="st16" cx="55.7" cy="2.1" rx="32.1" ry="55.5"/>
	
		<linearGradient id="Path_25_" gradientUnits="userSpaceOnUse" x1="-261.1225" y1="703.1295" x2="-261.1225" y2="702.1295" gradientTransform="matrix(111.0429 0 0 -289.4749 29051.6973 203539.3594)">
		<stop  offset="1.000000e-03" style="stop-color:#37B14A;stop-opacity:0.3"/>
		<stop  offset="0.529" style="stop-color:#37B14A;stop-opacity:7.600000e-02"/>
		<stop  offset="0.696" style="stop-color:#37B14A;stop-opacity:0"/>
		<stop  offset="1" style="stop-color:#37B14A;stop-opacity:0"/>
	</linearGradient>
	<path id="Path_10_" class="st17" d="M111.4,1.4l-0.3,257.2c0,8.2-5.4,16.3-16.1,22.6c-21.6,12.5-56.6,12.5-78.3,0
		c-10.9-6.3-16.4-14.6-16.4-22.9L0.6,1c0,8.3,5.4,16.6,16.4,22.9c21.7,12.5,56.8,12.5,78.3,0C106,17.7,111.4,9.5,111.4,1.4z"/>
	<g transform="translate(32.547009, 15.333333)">
		<path id="Path_11_" class="st18" d="M11.2-28.4l3.1-1.8c1.1,0.6,2.2,1.1,3.3,1.6c1.1,0.4,2.3,0.6,3.5,0.6c0.9,0,1.7-0.2,2.6-0.4
			c0.4-0.1,0.8-0.3,1.1-0.4l3.8,2.2L5.4-13.3L0.7-16l16-9.3L11.2-28.4z"/>
		<path id="Shape_4_" class="st18" d="M32.7-3.3L30-4.8l-5,2.9l-4.5-2.6l5-2.9l-9.2-5.3l4-2.3l22.7-3.2l5.2,3L33.6-6.9l2.6,1.5
			L32.7-3.3z M29.1-9.5l10-5.8l-15.8,2.4L29.1-9.5z"/>
	</g>
	
		<ellipse id="Oval_1_" transform="matrix(5.427876e-03 -1 1 5.427876e-03 -18.1092 128.839)" class="st16" cx="55.7" cy="73.5" rx="32.1" ry="55.5"/>
</g>
<path class="st19" d="M71.7,164.7l-3.3,1.6c2.6,1.4,4.1,2.9,4.4,4.5c0.3,1.6-0.7,3.2-3,4.7c-2,1.3-4.2,2.4-6.5,3
	c-2.2,0.7-4.5,1-6.8,1.2c-2.2,0.1-4.5-0.1-6.7-0.5c-2.1-0.4-4.1-1-6.1-1.9l-3.7,1.9l-4.7-2.2l3.9-1.9c-2.7-1.4-4.1-3-4.3-4.6
	c-0.2-1.7,0.9-3.3,3.2-4.8c1.9-1.3,3.9-2.2,6.1-2.9c2.1-0.6,4.4-1,6.6-1.1c2.2-0.1,4.5,0.1,6.7,0.5c2.2,0.4,4.3,1.1,6.3,2l3.2-1.6
	L71.7,164.7z M59.9,165.8c-1.4-0.6-3-1-4.6-1.2c-1.5-0.2-3-0.1-4.6,0.1c-1.5,0.2-2.9,0.6-4.3,1.1c-1.3,0.5-2.6,1.2-3.8,1.9
	c-1.5,1-2.2,2-2,2.9c0.2,0.9,1.1,1.7,2.6,2.6L59.9,165.8z M47.9,175.5c1.5,0.6,3,1,4.6,1.1c3.1,0.2,6.1-0.2,9-1.4
	c1.3-0.5,2.6-1.2,3.8-2c1.5-1,2.1-1.9,1.8-2.7c-0.2-0.8-1.1-1.7-2.7-2.5L47.9,175.5z"/>
<linearGradient id="Path_26_" gradientUnits="userSpaceOnUse" x1="-263.1325" y1="796.2762" x2="-263.1325" y2="795.1801" gradientTransform="matrix(77 0 0 -43 20163 34441)">
	<stop  offset="0" style="stop-color:#37B14A;stop-opacity:0"/>
	<stop  offset="1" style="stop-color:#37B14A"/>
</linearGradient>
<line id="Path_12_" class="st20" x1="-141" y1="206.6" x2="-55.4" y2="242.8"/>
<linearGradient id="Path_27_" gradientUnits="userSpaceOnUse" x1="-259.796" y1="796.5866" x2="-259.796" y2="795.347" gradientTransform="matrix(77 0 0 -43 20163 34441)">
	<stop  offset="0" style="stop-color:#37B14A"/>
	<stop  offset="1" style="stop-color:#37B14A;stop-opacity:0"/>
</linearGradient>
<line id="Path_13_" class="st21" x1="99" y1="182.1" x2="218.4" y2="246.8"/>
<linearGradient id="Path_28_" gradientUnits="userSpaceOnUse" x1="-262.3758" y1="802.1208" x2="-262.3758" y2="801.1113" gradientTransform="matrix(233 0 0 -130 61450 104446)">
	<stop  offset="0" style="stop-color:#258EA8"/>
	<stop  offset="1" style="stop-color:#258EA8;stop-opacity:0"/>
</linearGradient>
<line id="Path_14_" class="st22" x1="203.5" y1="172.9" x2="429.4" y2="298.9"/>
</svg>
