<?xml version="1.0" encoding="UTF-8"?>
<svg width="330px" height="234px" viewBox="0 0 330 234" version="1.1" xmlns="http://www.w3.org/2000/svg" xmlns:xlink="http://www.w3.org/1999/xlink">
    <g id="Page-1" stroke="none" stroke-width="1" fill="none" fill-rule="evenodd" opacity="0.485374814">
        <g id="Partners" transform="translate(-610.000000, -228.000000)" fill="#0F3A48">
            <g id="Menu" transform="translate(610.000000, 74.000000)">
                <g id="Group-19" transform="translate(0.000000, 11.475864)">
                    <g transform="translate(125.500000, 281.024136) scale(-1, 1) translate(-125.500000, -281.024136) translate(-79.000000, 142.524136)">
                        <path d="M45.8307316,159.3985 C51.7313632,159.3985 57.1729421,158.4135 62.1993105,156.7585 C69.2604684,159.286 78.1526789,160.361 89.4355737,159.071 C91.9062053,158.7785 94.2272579,158.3685 96.4812579,157.906 C85.0229947,166.6535 69.3713632,173.5485 48.4045211,173.5485 C-9.10858421,173.5485 0.621784211,120.561 0.621784211,120.561 C0.621784211,120.561 3.19557368,159.3985 45.8307316,159.3985 Z" id="Fill-5"></path>
                        <path d="M150.410039,239.681808 C151.90118,207.616188 181.871095,167.364789 181.031694,134 C196.303214,169.054723 199.807904,201.56947 187.774798,216.773806 C175.754372,231.978142 170.885338,247.705191 172.153316,257.834648 C173.418757,267.974255 179.543088,279.169437 165.815965,276.637073 C152.104056,274.094559 123.617675,267.974255 134.375196,260.367013 C145.140324,252.769919 149.834377,252.209145 150.410039,239.681808 Z" id="Fill-1"></path>
                        <path d="M315,200 C315,200 309.756636,212.389759 311.678953,226.578445 C313.598778,240.76713 315.870154,274.348817 303.129503,275.421501 C295.198385,276.093853 277.346513,278.480447 270.539863,275.642197 C266.418475,273.927955 267.976773,268.259153 270.539863,264.935885 C274.923046,259.277348 283.110972,259.675113 286.147785,237.931446 C287.87812,199.97947 315,200 315,200 Z" id="Fill-3"></path>
                        <path d="M121.066362,117.887423 C112.502197,130.541355 101.273906,144.363922 82.1139579,146.62831 C81.013393,146.75397 79.9558388,146.844445 78.9058747,146.907275 C96.3428695,131.981415 104.598371,110.352867 104.598371,110.352867 C107.834284,72.7931824 115.115722,64.939451 115.115722,64.939451 C115.115722,64.939451 113.42819,49.6642576 120.380723,41.7200512 C127.323137,33.7733316 137.638086,26.0377204 137.638086,26.0377204 C137.638086,26.0377204 133.645692,18.0859744 145.223128,7.00530186 C156.800564,-4.08039707 177.435521,-0.943930905 196.175484,10.3528763 C214.912916,21.6446572 236.807831,14.9545346 257.857714,29.5913767 C257.857714,29.5913767 300.60011,35.6582272 336.812488,59.2897908 C336.812488,59.2897908 377.447365,82.2955691 377.024849,131.22997 C376.602333,180.166885 381.652281,203.597393 392.599739,225.552656 C403.554786,247.512946 416.678073,259.22443 402.568073,266.751446 C388.460603,274.280975 367.342409,273.235487 369.859793,258.591105 C372.392357,243.959289 367.549871,220.531294 348.604976,206.105561 C316.815098,183.514459 282.915172,200.87309 254.280246,171.385785 C254.280246,171.385785 253.020289,187.490332 245.857763,196.902244 C238.697766,206.311642 238.067788,247.306864 243.117736,258.80724 C248.175274,270.305102 250.917831,277.000251 228.59534,277.000251 C206.27791,277.000251 206.070447,273.652677 210.275364,268.425233 C214.4904,263.19779 220.807895,251.906009 217.222837,242.702692 C215.274711,237.691383 200.871227,199.030919 197.640373,158.834894 C194.4247,118.638868 180.142658,114.600165 177.642984,104.879131 C177.642984,104.879131 138.804431,107.030425 134.690596,152.144771 C131.31553,189.194278 127.677341,209.659217 131.892378,209.035945 C136.097295,208.407646 139.259837,207.151049 141.364826,213.423982 C143.469814,219.696914 141.779751,228.271932 132.519827,228.271932 C124.335166,228.271932 106.01772,209.918076 103.469975,156.25887 C118.721021,150.274955 127.930345,139.608959 135.462256,129.526025 C141.853122,120.563975 124.375647,113.052038 121.066362,117.887423 Z" id="Fill-8"></path>
                    </g>
                </g>
            </g>
        </g>
    </g>
</svg>
