<svg id="Layer_1" data-name="Layer 1" xmlns="http://www.w3.org/2000/svg" xmlns:xlink="http://www.w3.org/1999/xlink" width="279.192" height="578.702" viewBox="0 0 279.192 578.702">
  <defs>
    <style>
      .cls-1 {
        opacity: 0.25;
      }

      .cls-2 {
        fill: url(#linear-gradient);
      }

      .cls-3 {
        opacity: 0.75;
        fill: url(#linear-gradient-2);
      }

      .cls-24, .cls-3 {
        isolation: isolate;
      }

      .cls-11, .cls-12, .cls-4, .cls-5, .cls-7, .cls-8, .cls-9 {
        fill: none;
        stroke-miterlimit: 10;
        stroke-width: 3px;
      }

      .cls-4 {
        stroke: #258ea8;
        stroke-dasharray: 6.468 6.468;
      }

      .cls-12, .cls-5 {
        stroke: #37b14a;
      }

      .cls-5, .cls-7, .cls-8 {
        stroke-dasharray: 6 6;
      }

      .cls-6 {
        opacity: 0.5;
      }

      .cls-7 {
        stroke: url(#linear-gradient-3);
      }

      .cls-8 {
        stroke: url(#linear-gradient-4);
      }

      .cls-9 {
        stroke: #0f4e61;
      }

      .cls-10 {
        fill: #0f4e61;
      }

      .cls-11 {
        stroke: url(#linear-gradient-5);
      }

      .cls-13 {
        fill: url(#linear-gradient-6);
      }

      .cls-14 {
        fill: url(#linear-gradient-7);
      }

      .cls-15 {
        fill: url(#linear-gradient-8);
      }

      .cls-16 {
        fill: url(#linear-gradient-9);
      }

      .cls-17 {
        fill: url(#linear-gradient-10);
      }

      .cls-18 {
        fill: url(#linear-gradient-11);
      }

      .cls-19 {
        fill: url(#linear-gradient-12);
      }

      .cls-20 {
        fill: url(#linear-gradient-13);
      }

      .cls-21 {
        fill: url(#linear-gradient-14);
      }

      .cls-22 {
        fill: url(#linear-gradient-15);
      }

      .cls-23 {
        fill: #60ae57;
      }

      .cls-25 {
        fill: #fff;
      }
    </style>
    <linearGradient id="linear-gradient" x1="155.412" y1="465.245" x2="155.412" y2="780.267" gradientTransform="translate(0 -201.565)" gradientUnits="userSpaceOnUse">
      <stop offset="0" stop-color="#258ea8"/>
      <stop offset="0.704" stop-color="#258ea8" stop-opacity="0"/>
    </linearGradient>
    <linearGradient id="linear-gradient-2" x1="155.67" y1="412.166" x2="155.67" y2="571.618" gradientTransform="translate(0 -201.565)" gradientUnits="userSpaceOnUse">
      <stop offset="0" stop-color="#258ea8" stop-opacity="0"/>
      <stop offset="1" stop-color="#258ea8"/>
    </linearGradient>
    <linearGradient id="linear-gradient-3" x1="572.996" y1="1148.081" x2="593.858" y2="1148.081" gradientTransform="matrix(1.314, -0.193, -0.149, -0.739, -512.589, 1252.628)" gradientUnits="userSpaceOnUse">
      <stop offset="0" stop-color="#0d2d40"/>
      <stop offset="1" stop-color="#0f4e61"/>
    </linearGradient>
    <linearGradient id="linear-gradient-4" x1="619.004" y1="1116.447" x2="670.817" y2="1116.447" xlink:href="#linear-gradient-3"/>
    <linearGradient id="linear-gradient-5" x1="1054.155" y1="6367.587" x2="1286.753" y2="6367.587" gradientTransform="matrix(-0.866, -0.5, 0, -1.155, 1115.078, 8347.279)" gradientUnits="userSpaceOnUse">
      <stop offset="0" stop-color="#0f4e61" stop-opacity="0"/>
      <stop offset="0.245" stop-color="#0f4e61"/>
      <stop offset="0.759" stop-color="#0f4e61"/>
      <stop offset="1" stop-color="#0f4e61" stop-opacity="0"/>
    </linearGradient>
    <linearGradient id="linear-gradient-6" x1="120.376" y1="384.718" x2="96.237" y2="360.58" gradientTransform="translate(0 -201.565)" gradientUnits="userSpaceOnUse">
      <stop offset="0" stop-color="#0f4e61" stop-opacity="0.6"/>
      <stop offset="0.698" stop-color="#0f4e61" stop-opacity="0.192"/>
      <stop offset="1" stop-color="#0f4e61" stop-opacity="0"/>
    </linearGradient>
    <linearGradient id="linear-gradient-7" x1="98.717" y1="390.978" x2="75.741" y2="368.002" xlink:href="#linear-gradient-6"/>
    <linearGradient id="linear-gradient-8" x1="123.758" y1="320.784" x2="112.139" y2="309.166" xlink:href="#linear-gradient-6"/>
    <linearGradient id="linear-gradient-9" x1="107.499" y1="340.25" x2="96.175" y2="328.927" xlink:href="#linear-gradient-6"/>
    <linearGradient id="linear-gradient-10" x1="120.254" y1="317.812" x2="104.997" y2="302.554" xlink:href="#linear-gradient-6"/>
    <linearGradient id="linear-gradient-11" x1="95.946" y1="358.988" x2="82.344" y2="345.387" xlink:href="#linear-gradient-6"/>
    <linearGradient id="linear-gradient-12" x1="88.233" y1="341.299" x2="76.605" y2="329.671" xlink:href="#linear-gradient-6"/>
    <linearGradient id="linear-gradient-13" x1="86.309" y1="340.044" x2="69.386" y2="323.12" xlink:href="#linear-gradient-6"/>
    <linearGradient id="linear-gradient-14" x1="-6183.42" y1="5217" x2="-6097.806" y2="5217" gradientTransform="matrix(0.511, 0.638, -0.699, 1.085, 6884.648, -1588.336)" gradientUnits="userSpaceOnUse">
      <stop offset="0" stop-color="#0f4e61"/>
      <stop offset="0.617" stop-color="#0d2d40"/>
      <stop offset="0.667" stop-color="#0d2d40"/>
    </linearGradient>
    <linearGradient id="linear-gradient-15" x1="531.364" y1="-3983.224" x2="617.041" y2="-3983.224" gradientTransform="matrix(-0.511, 1.227, 0.699, 0.277, 3182.412, 548.791)" xlink:href="#linear-gradient-3"/>
  </defs>
  <title>cas13</title>
  <g id="Layer_2" data-name="Layer 2">
    <g id="Layer_1-2" data-name="Layer 1-2">
      <g>
        <g>
          <g class="cls-1">
            <path class="cls-2" d="M279.192,321.435l-.564,209c-.029,10.071-1.75,22.343-9.148,32.014-6.184,8.09-16.325,14.363-32.768,16.019a48.205,48.205,0,0,1-29.408-6.55,68.931,68.931,0,0,1-15.469-12.467,44.98,44.98,0,0,0-10.371-8.045c-24.137-13.936-64.56-13.543-94.145-23.387a120.732,120.732,0,0,1-22.186-9.879c-20.321-11.733-33.554-28.291-33.5-45.459l.564-209c-.049,17.167,13.184,33.726,33.5,45.458a120.732,120.732,0,0,0,22.186,9.879c29.585,9.845,70.008,9.452,94.145,23.387a44.993,44.993,0,0,1,10.376,8.043,69.011,69.011,0,0,0,15.467,12.47,48.2,48.2,0,0,0,29.4,6.552c16.443-1.656,26.584-7.928,32.768-16.018C277.442,343.777,279.163,331.505,279.192,321.435Z"/>
          </g>
          <path class="cls-3" d="M270.039,353.909c9.974-12.982,9.632-30.685,8.739-41.378-3.085-36.932-47.119-76.279-101.615-93.12C153,211.942,122.772,208.3,94.2,212.166c-29.535,4-52.219,22.258-59.188,38.367-11.788,27.249,14.132,55.8,52.832,68.714,34.4,11.474,83.459,9.175,104.537,31.528,8.452,8.964,23.709,21.13,44.872,19.042C253.7,368.194,263.854,361.959,270.039,353.909Z"/>
          <line class="cls-4" x1="101.132" y1="313.509" x2="101.132" y2="172.65"/>
          <g>
            <path class="cls-5" d="M133.152,306.325c-12.5-.276-18.053-3.772-22.827-6.843-3.781-2.433-5.03-4.581-8.853-6.486"/>
            <g class="cls-6">
              <path class="cls-7" d="M96.616,292.54a22.978,22.978,0,0,0-5.593-1.887c-8.122-1.716-13.73-1.753-20.05,1.578"/>
              <path class="cls-8" d="M203.691,299.757s-16.287,1.894-38.959,4.124c-4.535.446-9.325.906-14.292,1.366q-2.49.231-5.037.462a87.813,87.813,0,0,1-9.852.362"/>
              <path class="cls-9" d="M253.209,294.518l-21.494,2.275,7.873,24c4.387,1.057,7.807,3.324,8.757,6.219,1.493,4.551-3.681,8.917-11.556,9.751s-15.469-2.181-16.962-6.733c-.949-2.894.8-5.709,4.226-7.593l-7.873-24-6.491.687M237.9,315.665l-15.535,1.645m12.817-6.576-15.535,1.645m13.881-6.688L218,307.335"/>
            </g>
          </g>
          <g>
            <g>
              <path class="cls-10" d="M209.5,447.429h2.772a1.492,1.492,0,0,0,1.6,1.379h0c.032,0,.064-.006.1-.01.881,0,1.44-.324,1.44-.918,0-.829-1.116-.919-2.341-1.135-1.6-.27-3.312-.7-3.312-2.863,0-1.944,1.8-2.953,3.978-2.953,2.612,0,4.016,1.135,4.159,2.953h-2.7c-.108-.828-.666-1.08-1.476-1.08-.721,0-1.279.27-1.279.846,0,.648,1.044.738,2.215.954,1.62.27,3.528.685,3.528,3.043,0,2.017-1.782,3.061-4.2,3.061C211.289,450.706,209.6,449.464,209.5,447.429Z"/>
              <path class="cls-10" d="M218.669,447.429h2.772a1.492,1.492,0,0,0,1.6,1.379h0c.032,0,.064-.006.1-.01.882,0,1.44-.324,1.44-.918,0-.829-1.116-.919-2.341-1.135-1.6-.27-3.312-.7-3.312-2.863,0-1.944,1.8-2.953,3.978-2.953,2.612,0,4.016,1.135,4.159,2.953h-2.7c-.108-.828-.666-1.08-1.476-1.08-.721,0-1.279.27-1.279.846,0,.648,1.044.738,2.215.954,1.62.27,3.529.685,3.529,3.043,0,2.017-1.783,3.061-4.2,3.061C220.451,450.706,218.759,449.464,218.669,447.429Z"/>
              <path class="cls-10" d="M228.477,437.544h6.159c2.556,0,4.5,1.315,4.5,3.71a3.081,3.081,0,0,1-2.233,3.114v.055a2.579,2.579,0,0,1,1.873,2.358c.27,1.693.09,3.313.54,3.475v.162h-3.1c-.343-.2-.288-1.71-.487-2.989a1.888,1.888,0,0,0-1.922-1.853,1.8,1.8,0,0,0-.22.017H231.66v4.825h-3.188Zm5.582,5.69c1.261,0,1.909-.594,1.909-1.566,0-.937-.612-1.6-1.836-1.6h-2.467v3.169Z"/>
              <path class="cls-10" d="M240.556,437.544h3.2l3.817,6.464c.2.36.882,1.639.882,1.639h.036s-.036-1.549-.036-2v-6.1h3.115v12.871h-3.2l-3.781-6.374c-.216-.342-.918-1.728-.918-1.728h-.036s.036,1.656.036,2.107v6h-3.115Z"/>
              <path class="cls-10" d="M257.063,437.544h3.278l4.644,12.874h-3.348l-.756-2.323h-4.5l-.738,2.323h-3.205Zm3.079,8.265-.972-3.115c-.216-.666-.5-1.819-.5-1.819h-.036s-.306,1.153-.523,1.819l-.99,3.115Z"/>
            </g>
            <path class="cls-11" d="M57.674,382.285V362.308m-12.4,12.82v-7.1m24.806,21.42V368.727m11.7,27.48V376.23m13.375,27.7v-7.1m87.455,57.59V434.444m-12.4,12.82v-7.1m24.8,21.42V440.863m7.169,4.055-15.58-8.994c-2.435-1.407-4.777-1.68-6.537-.764l-32.227,16.784c-1.778.926-4.149.637-6.61-.806L124.1,441.1a19.313,19.313,0,0,1-6.446-6.712l-32.3-53.924a19.229,19.229,0,0,0-6.519-6.754L61.276,363.571c-2.453-1.417-4.81-1.683-6.573-.744L22.885,379.788c-1.763.939-4.121.672-6.574-.744L.75,370.06m144.636,62.531v19.978m12.4-12.821v7.1M132.98,425.429v20.723m-11.7-27.48v19.977m-13.375-27.7v7.1M20.234,360.335v19.977m12.4-12.82v7.1M7.828,353.172V373.9"/>
            <line class="cls-12" x1="121.273" y1="405.517" x2="121.273" y2="433.925"/>
            <line class="cls-12" x1="132.977" y1="410.359" x2="132.977" y2="438.767"/>
            <line class="cls-12" x1="145.386" y1="417.833" x2="145.386" y2="446.241"/>
            <g>
              <line class="cls-4" x1="101.132" y1="437.59" x2="101.132" y2="412.714"/>
              <line class="cls-4" x1="101.132" y1="396.32" x2="101.132" y2="373.444"/>
            </g>
          </g>
          <g>
            <g>
              <polygon class="cls-13" points="120.381 183.149 120.165 183.04 95.342 159.91 102.07 163.059 120.381 183.149"/>
              <path class="cls-14" d="M82.717,188.429l13.744-31.521-7.095-4.095L80.232,187.5c-2.128,8.763-1,14.04,2.9,16.187l.809.5C80.042,202.043,79.521,195.337,82.717,188.429Z"/>
              <path class="cls-15" d="M125.129,104.693l-6.376-3.706c2.581,1.5.524,7.648-.816,9.966a19.016,19.016,0,0,1-6.372,6.939c-1.552.9-2.02,1.054-3.369.7-.333-.087-.053.968-.335.8l6.516,3.787a3.714,3.714,0,0,0,.923.378,6.048,6.048,0,0,0,4.467-.9,16.132,16.132,0,0,0,6.128-7.119C128.109,110.757,127.711,106.193,125.129,104.693Z"/>
              <polygon class="cls-16" points="102.017 144.167 95.535 140.401 101.297 122.241 109.5 127.008 102.017 144.167"/>
              <path class="cls-17" d="M120.057,94.538a5.769,5.769,0,0,0-1.459-.6c-2.134-.555-4.613.015-7.068,1.432a25.529,25.529,0,0,0-9.7,11.266c-2.92,6.315-2.967,12.385-.532,15.6L109.5,127c-2.436-3.218-2.388-9.289.531-15.6a25.526,25.526,0,0,1,9.7-11.265c2.455-1.418,4.934-1.988,7.068-1.433a5.843,5.843,0,0,1,1.459.6Z"/>
              <polygon class="cls-18" points="96.461 156.908 89.366 152.813 81.474 144.693 86.88 146.39 96.461 156.908"/>
              <path class="cls-19" d="M90.285,125.8a3.682,3.682,0,0,0-.743-.571L83.4,121.661c.265.154-.817.127-.588.354,2.478,2.458,1.024,7.373-2.347,12.158a14.545,14.545,0,0,1-4.457,4.25c-1.983,1.145-1.835,2.616-3.3,1.767l6.091,3.54c1.46.848,3.423.6,5.406-.541a14.556,14.556,0,0,0,4.458-4.249C92.035,134.155,92.762,128.261,90.285,125.8Z"/>
              <path class="cls-20" d="M75.67,149.118l-8.2-4.766a5.874,5.874,0,0,1-1.175-.9c-3.92-3.888-2.771-13.217,2.566-20.791a23.006,23.006,0,0,1,7.052-6.72c3.137-1.811,6.245-2.2,8.556-.855l8.2,4.766c-2.311-1.343-5.42-.956-8.557.856a23.015,23.015,0,0,0-7.052,6.719c-5.337,7.574-6.486,16.9-2.565,20.792A5.832,5.832,0,0,0,75.67,149.118Z"/>
            </g>
            <path class="cls-21" d="M120.165,183.04c3.884-6.623,4.382-13.9,1.172-17.089L94.429,135.672c2.421-6.007,2.357-12-.577-14.913-3.9-3.882-11.427-.885-16.773,6.68s-6.521,16.877-2.618,20.758c2.91,2.894,7.832,1.963,12.365-1.833l33.339,36.676ZM78.03,143.147c-2.466-2.453-1.724-8.337,1.654-13.117s8.133-6.674,10.6-4.221,1.724,8.337-1.654,13.117S80.5,145.6,78.03,143.147Z"/>
            <path class="cls-22" d="M83.726,204.078l33.339-75.172c4.532-1.439,9.455-6.191,12.364-12.445,3.9-8.388,2.728-16.344-2.618-17.735s-12.871,4.3-16.773,12.688c-2.934,6.306-3,12.368-.577,15.58L82.554,188.342C79.343,195.242,79.842,201.942,83.726,204.078Zm31.535-80.528c-3.378-.88-4.12-5.907-1.654-11.207s7.221-8.9,10.6-8.018,4.12,5.907,1.654,11.207-7.221,8.9-10.6,8.018Z"/>
          </g>
        </g>
        <g>
          <rect class="cls-23" x="86.389" width="107.164" height="34.248" rx="4"/>
          <g class="cls-24">
            <path class="cls-25" d="M119.33,17.184c0-3.6,2.244-6.358,5.83-6.358,2.992,0,4.76,1.784,5.015,4.1h-2.448A2.4,2.4,0,0,0,125.16,12.9c-2.243,0-3.314,1.871-3.314,4.285,0,2.481,1.292,4.266,3.331,4.266a2.449,2.449,0,0,0,2.618-2.141h2.414a4.3,4.3,0,0,1-1.343,2.872,5.138,5.138,0,0,1-3.689,1.292C121.761,23.473,119.33,20.838,119.33,17.184Z"/>
            <path class="cls-25" d="M136.516,22.249h-.034a2.673,2.673,0,0,1-2.566,1.173c-1.785,0-3.043-.935-3.043-2.669,0-1.921,1.564-2.532,3.5-2.8,1.444-.2,2.107-.323,2.107-.986,0-.629-.493-1.036-1.461-1.036-1.088,0-1.616.39-1.684,1.223h-2.056c.068-1.53,1.207-2.873,3.756-2.873,2.618,0,3.672,1.173,3.672,3.213v4.437c0,.663.1,1.053.306,1.207v.085h-2.227A2.365,2.365,0,0,1,136.516,22.249Zm.017-2.108V18.832a6.446,6.446,0,0,1-1.615.51c-1.207.272-1.8.544-1.8,1.36s.544,1.1,1.36,1.1A1.821,1.821,0,0,0,136.533,20.141Z"/>
            <path class="cls-25" d="M139.627,20.4h2.142a1.677,1.677,0,0,0,1.9,1.445c1.019,0,1.6-.391,1.6-1,0-.833-1.1-.918-2.295-1.155-1.564-.307-3.094-.732-3.094-2.635,0-1.888,1.564-2.788,3.553-2.788,2.294,0,3.569,1.138,3.74,2.889h-2.091c-.1-.934-.7-1.275-1.684-1.275-.9,0-1.5.341-1.5.97,0,.748,1.156.815,2.4,1.07,1.462.307,3.076.714,3.076,2.754,0,1.751-1.495,2.805-3.671,2.805C141.174,23.473,139.763,22.249,139.627,20.4Z"/>
            <path class="cls-25" d="M150.762,15.093h-2.635V13.562c1.428-.05,2.7-.578,2.941-2.073h2.023V23.218h-2.329Z"/>
            <path class="cls-25" d="M154.587,19.257h2.21c.085,1.394.7,2.363,2.3,2.363a1.81,1.81,0,0,0,2.056-1.887c0-1.122-.713-1.8-2.142-1.8h-.714V16.181h.663c1.106,0,1.887-.562,1.887-1.547a1.489,1.489,0,0,0-1.649-1.53,1.922,1.922,0,0,0-2.022,2.074h-2.21c.085-2.3,1.529-3.842,4.232-3.842,2.431,0,3.995,1.207,3.995,3.144a2.51,2.51,0,0,1-1.989,2.449v.033a2.791,2.791,0,0,1,2.363,2.924c0,2.414-1.989,3.587-4.385,3.587C156.168,23.473,154.621,21.807,154.587,19.257Z"/>
          </g>
        </g>
      </g>
    </g>
  </g>
</svg>
