<svg id="Layer_1" data-name="Layer 1" xmlns="http://www.w3.org/2000/svg" xmlns:xlink="http://www.w3.org/1999/xlink" width="279.193" height="579.226" viewBox="0 0 279.193 579.226">
  <defs>
    <style>
      .cls-1, .cls-10, .cls-11, .cls-12, .cls-13, .cls-15, .cls-16, .cls-17, .cls-28, .cls-9 {
        fill: none;
      }

      .cls-2 {
        clip-path: url(#clip-path);
      }

      .cls-3 {
        clip-path: url(#clip-path-2);
      }

      .cls-4 {
        fill: #fff;
      }

      .cls-5 {
        opacity: 0.25;
      }

      .cls-6 {
        fill: url(#linear-gradient);
      }

      .cls-7 {
        opacity: 0.75;
        fill: url(#linear-gradient-2);
      }

      .cls-30, .cls-7 {
        isolation: isolate;
      }

      .cls-8 {
        fill: #0f4e61;
      }

      .cls-9 {
        stroke: #258ea8;
        stroke-dasharray: 6.468 6.468;
      }

      .cls-10, .cls-11, .cls-12, .cls-13, .cls-15, .cls-16, .cls-17, .cls-28, .cls-9 {
        stroke-miterlimit: 10;
        stroke-width: 3px;
      }

      .cls-10 {
        stroke: url(#linear-gradient-3);
      }

      .cls-11 {
        stroke: url(#linear-gradient-4);
      }

      .cls-12 {
        stroke: url(#linear-gradient-5);
      }

      .cls-13, .cls-28 {
        stroke: #37b14a;
      }

      .cls-13, .cls-15, .cls-16 {
        stroke-dasharray: 6 6;
      }

      .cls-14 {
        opacity: 0.5;
      }

      .cls-15 {
        stroke: url(#linear-gradient-6);
      }

      .cls-16 {
        stroke: url(#linear-gradient-7);
      }

      .cls-17 {
        stroke: #0f4e61;
      }

      .cls-18 {
        fill: url(#linear-gradient-8);
      }

      .cls-19 {
        fill: url(#linear-gradient-9);
      }

      .cls-20 {
        fill: url(#linear-gradient-10);
      }

      .cls-21 {
        fill: url(#linear-gradient-11);
      }

      .cls-22 {
        fill: url(#linear-gradient-12);
      }

      .cls-23 {
        fill: url(#linear-gradient-13);
      }

      .cls-24 {
        fill: url(#linear-gradient-14);
      }

      .cls-25 {
        fill: url(#linear-gradient-15);
      }

      .cls-26 {
        fill: url(#linear-gradient-16);
      }

      .cls-27 {
        fill: url(#linear-gradient-17);
      }

      .cls-29 {
        fill: #3d7289;
      }
    </style>
    <clipPath id="clip-path">
      <path class="cls-1" d="M161.955,17.393v-1.9h-5.372a7.088,7.088,0,0,1,2.346-2.074c1.428-.952,2.924-1.989,2.924-4.182A3.673,3.673,0,0,0,158.244,5.5c-.118,0-.235,0-.352.011-2.771,0-4.131,1.683-4.131,4.335h2.176c.034-1.513.731-2.363,1.9-2.363a1.6,1.6,0,0,1,1.63,1.562,1.577,1.577,0,0,1-.015.257c0,1.5-1.6,2.312-3.06,3.468a6.113,6.113,0,0,0-2.8,4.624Zm-10.047,0V5.663h-2.023c-.238,1.5-1.513,2.023-2.941,2.074v1.53h2.635v8.126Zm-9.384.255c2.176,0,3.672-1.054,3.672-2.8,0-2.04-1.615-2.448-3.077-2.754-1.241-.255-2.4-.323-2.4-1.071,0-.629.595-.969,1.5-.969.986,0,1.581.34,1.683,1.275h2.091c-.17-1.751-1.445-2.89-3.74-2.89-1.989,0-3.553.9-3.553,2.788,0,1.9,1.53,2.329,3.094,2.635,1.19.238,2.295.323,2.295,1.156,0,.612-.578,1-1.6,1a1.676,1.676,0,0,1-1.9-1.419l0-.026h-2.142C138.58,16.424,139.991,17.648,142.524,17.648Zm-9.231-1.666c-.816,0-1.36-.289-1.36-1.1s.595-1.088,1.8-1.36a6.447,6.447,0,0,0,1.615-.51v1.309c0,.85-.731,1.666-2.057,1.666Zm-.561,1.615a2.676,2.676,0,0,0,2.567-1.173h.034a2.366,2.366,0,0,0,.272.969h2.227v-.085c-.2-.153-.306-.544-.306-1.207V11.664c0-2.04-1.054-3.213-3.672-3.213-2.55,0-3.689,1.343-3.757,2.873h2.057c.068-.833.595-1.224,1.683-1.224.969,0,1.462.408,1.462,1.037,0,.663-.663.782-2.108.986-1.938.272-3.5.884-3.5,2.805,0,1.734,1.258,2.669,3.043,2.669Zm-8.738.051a5.137,5.137,0,0,0,3.689-1.292,4.305,4.305,0,0,0,1.343-2.873h-2.414a2.449,2.449,0,0,1-2.618,2.142c-2.04,0-3.332-1.785-3.332-4.267,0-2.414,1.071-4.284,3.315-4.284A2.4,2.4,0,0,1,126.544,9.1h2.448c-.255-2.312-2.023-4.1-5.015-4.1-3.587,0-5.831,2.754-5.831,6.358C118.146,15.013,120.577,17.648,123.994,17.648Z"/>
    </clipPath>
    <clipPath id="clip-path-2">
      <rect class="cls-1" x="-130.407" y="-2112.607" width="1440" height="4875"/>
    </clipPath>
    <linearGradient id="linear-gradient" x1="285.821" y1="-1647.889" x2="285.821" y2="-1332.865" gradientTransform="translate(-130.407 1912.091)" gradientUnits="userSpaceOnUse">
      <stop offset="0" stop-color="#258ea8"/>
      <stop offset="0.704" stop-color="#258ea8" stop-opacity="0"/>
    </linearGradient>
    <linearGradient id="linear-gradient-2" x1="286.078" y1="-1700.966" x2="286.078" y2="-1541.514" gradientTransform="translate(-130.407 1912.091)" gradientUnits="userSpaceOnUse">
      <stop offset="0" stop-color="#258ea8" stop-opacity="0"/>
      <stop offset="1" stop-color="#258ea8"/>
    </linearGradient>
    <linearGradient id="linear-gradient-3" x1="2111.548" y1="4047.903" x2="2344.165" y2="4047.903" gradientTransform="matrix(-0.866, -0.5, 0, -1.155, 2030.797, 6189.604)" gradientUnits="userSpaceOnUse">
      <stop offset="0" stop-color="#0f4e61" stop-opacity="0"/>
      <stop offset="0.245" stop-color="#0f4e61"/>
      <stop offset="0.759" stop-color="#0f4e61"/>
      <stop offset="1" stop-color="#0f4e61" stop-opacity="0"/>
    </linearGradient>
    <linearGradient id="linear-gradient-4" x1="2111.548" y1="3968.674" x2="2344.165" y2="3968.674" xlink:href="#linear-gradient-3"/>
    <linearGradient id="linear-gradient-5" x1="2111.547" y1="5119.007" x2="2344.165" y2="5119.007" gradientTransform="matrix(-0.866, -0.5, 0, 1.155, 2030.797, -4398.424)" gradientUnits="userSpaceOnUse">
      <stop offset="0" stop-color="#0f4e61" stop-opacity="0"/>
      <stop offset="0.529" stop-color="#0f4e61" stop-opacity="0.6"/>
      <stop offset="0.858" stop-color="#0f4e61" stop-opacity="0.192"/>
      <stop offset="1" stop-color="#0f4e61" stop-opacity="0"/>
    </linearGradient>
    <linearGradient id="linear-gradient-6" x1="815.886" y1="-879.688" x2="836.747" y2="-879.688" gradientTransform="matrix(1.314, -0.193, -0.149, -0.739, -1133.74, -198.512)" gradientUnits="userSpaceOnUse">
      <stop offset="0" stop-color="#0d2d40"/>
      <stop offset="1" stop-color="#0f4e61"/>
    </linearGradient>
    <linearGradient id="linear-gradient-7" x1="861.893" y1="-911.321" x2="913.706" y2="-911.321" xlink:href="#linear-gradient-6"/>
    <linearGradient id="linear-gradient-8" x1="250.83" y1="-1728.413" x2="226.691" y2="-1752.552" gradientTransform="translate(-130.407 1912.091)" gradientUnits="userSpaceOnUse">
      <stop offset="0" stop-color="#0f4e61" stop-opacity="0.6"/>
      <stop offset="0.698" stop-color="#0f4e61" stop-opacity="0.192"/>
      <stop offset="1" stop-color="#0f4e61" stop-opacity="0"/>
    </linearGradient>
    <linearGradient id="linear-gradient-9" x1="229.172" y1="-1722.154" x2="206.196" y2="-1745.129" xlink:href="#linear-gradient-8"/>
    <linearGradient id="linear-gradient-10" x1="254.213" y1="-1792.348" x2="242.593" y2="-1803.966" xlink:href="#linear-gradient-8"/>
    <linearGradient id="linear-gradient-11" x1="237.952" y1="-1772.882" x2="226.63" y2="-1784.204" xlink:href="#linear-gradient-8"/>
    <linearGradient id="linear-gradient-12" x1="250.709" y1="-1795.32" x2="235.451" y2="-1810.578" xlink:href="#linear-gradient-8"/>
    <linearGradient id="linear-gradient-13" x1="226.4" y1="-1754.144" x2="212.799" y2="-1767.744" xlink:href="#linear-gradient-8"/>
    <linearGradient id="linear-gradient-14" x1="218.687" y1="-1771.832" x2="207.059" y2="-1783.46" xlink:href="#linear-gradient-8"/>
    <linearGradient id="linear-gradient-15" x1="216.769" y1="-1773.088" x2="199.845" y2="-1790.012" xlink:href="#linear-gradient-8"/>
    <linearGradient id="linear-gradient-16" x1="-6090.076" y1="3378.698" x2="-6004.461" y2="3378.698" gradientTransform="matrix(0.511, 0.638, -0.699, 1.085, 5552.007, 347.172)" gradientUnits="userSpaceOnUse">
      <stop offset="0" stop-color="#0f4e61"/>
      <stop offset="0.617" stop-color="#0d2d40"/>
      <stop offset="0.667" stop-color="#0d2d40"/>
    </linearGradient>
    <linearGradient id="linear-gradient-17" x1="1210.426" y1="-6624.098" x2="1296.103" y2="-6624.098" gradientTransform="matrix(-0.511, 1.227, 0.699, 0.277, 5375.489, 447.489)" xlink:href="#linear-gradient-6"/>
  </defs>
  <title>cas12</title>
  <g id="Layer_2" data-name="Layer 2">
    <g id="Layer_1-2" data-name="Layer 1-2">
      <g>
        <g class="cls-2">
          <g class="cls-3">
            <rect class="cls-4" x="113.146" width="53.809" height="22.648"/>
          </g>
        </g>
        <g>
          <g class="cls-5">
            <path class="cls-6" d="M279.192,321.959l-.564,209c-.028,10.071-1.75,22.343-9.147,32.014-6.185,8.09-16.325,14.363-32.769,16.019a48.2,48.2,0,0,1-29.4-6.553,68.926,68.926,0,0,1-15.468-12.467,44.986,44.986,0,0,0-10.372-8.045c-24.136-13.936-64.56-13.543-94.144-23.387a120.771,120.771,0,0,1-22.187-9.879c-20.32-11.733-33.554-28.291-33.5-45.459l.564-209c-.048,17.167,13.185,33.726,33.5,45.458a120.637,120.637,0,0,0,22.187,9.879c29.584,9.845,70.008,9.452,94.144,23.387a45.038,45.038,0,0,1,10.372,8.046,69,69,0,0,0,15.464,12.47,48.2,48.2,0,0,0,29.4,6.552c16.444-1.656,26.584-7.928,32.769-16.018C277.442,344.3,279.164,332.029,279.192,321.959Z"/>
          </g>
          <path class="cls-7" d="M270.039,354.433c9.974-12.982,9.633-30.685,8.74-41.378-3.086-36.932-47.119-76.279-101.615-93.12C153,212.466,122.772,208.82,94.2,212.69c-29.534,4-52.219,22.258-59.187,38.367-11.788,27.249,14.132,55.8,52.832,68.714,34.4,11.474,83.458,9.175,104.536,31.528,8.453,8.964,23.71,21.13,44.873,19.042C253.7,368.718,263.854,362.483,270.039,354.433Z"/>
          <g>
            <path class="cls-8" d="M208.633,458.47c0-2.881,1.656-4.88,4.033-4.88a2.873,2.873,0,0,1,2.575,1.315h.054v-4.7h2.935v12.874h-2.808v-1.237h-.036a3.037,3.037,0,0,1-2.719,1.53C210.308,463.367,208.633,461.549,208.633,458.47Zm6.734,0c0-1.549-.631-2.666-1.909-2.666-1.17,0-1.854,1.081-1.854,2.629,0,1.6.684,2.611,1.818,2.611C214.647,461.042,215.367,459.982,215.367,458.47Z"/>
            <path class="cls-8" d="M219.073,460.09h2.773a1.491,1.491,0,0,0,1.594,1.379h0c.033,0,.065-.006.1-.011.882,0,1.441-.323,1.441-.918,0-.828-1.117-.918-2.341-1.134-1.6-.27-3.313-.7-3.313-2.863,0-1.945,1.8-2.953,3.979-2.953,2.611,0,4.015,1.134,4.159,2.953h-2.7c-.109-.828-.666-1.08-1.477-1.08-.72,0-1.278.27-1.278.846,0,.648,1.044.738,2.215.954,1.62.27,3.528.685,3.528,3.043,0,2.017-1.782,3.061-4.195,3.061C220.856,463.367,219.163,462.125,219.073,460.09Z"/>
            <path class="cls-8" d="M228.883,450.205h5.492c3.566,0,5.96,2.575,5.96,6.518a6.263,6.263,0,0,1-2.233,5.186,6.355,6.355,0,0,1-3.925,1.17h-5.294Zm5.06,10.191c2.088,0,3.168-1.314,3.168-3.673,0-2.341-1.133-3.853-3.132-3.853H232.07V460.4Z"/>
            <path class="cls-8" d="M241.572,450.205h3.2l3.818,6.464c.2.36.883,1.638.883,1.638h.035s-.035-1.548-.035-2v-6.1h3.114v12.874h-3.205l-3.781-6.374c-.216-.342-.918-1.729-.918-1.729h-.037s.037,1.657.037,2.107v6h-3.116Z"/>
            <path class="cls-8" d="M258.08,450.205h3.278L266,463.079h-3.35l-.755-2.323h-4.5l-.739,2.323h-3.2Zm3.079,8.265-.972-3.115c-.216-.667-.5-1.819-.5-1.819h-.036s-.306,1.152-.523,1.819l-.99,3.115Z"/>
          </g>
          <g>
            <path class="cls-8" d="M209.2,531.8h2.773a1.489,1.489,0,0,0,1.594,1.378h0c.033,0,.065,0,.1-.01.882,0,1.441-.323,1.441-.918,0-.828-1.117-.918-2.341-1.134-1.6-.27-3.313-.7-3.313-2.863,0-1.945,1.8-2.953,3.979-2.953,2.611,0,4.015,1.134,4.159,2.953h-2.7c-.109-.828-.666-1.08-1.477-1.08-.72,0-1.278.269-1.278.845,0,.649,1.044.739,2.215.954,1.62.271,3.528.685,3.528,3.043,0,2.017-1.782,3.062-4.195,3.062C210.983,535.077,209.29,533.835,209.2,531.8Z"/>
            <path class="cls-8" d="M218.362,531.8h2.773a1.489,1.489,0,0,0,1.594,1.378h0c.033,0,.065,0,.1-.01.882,0,1.441-.323,1.441-.918,0-.828-1.117-.918-2.341-1.134-1.6-.27-3.313-.7-3.313-2.863,0-1.945,1.8-2.953,3.979-2.953,2.611,0,4.016,1.134,4.159,2.953h-2.7c-.109-.828-.666-1.08-1.477-1.08-.72,0-1.278.269-1.278.845,0,.649,1.044.739,2.215.954,1.62.271,3.528.685,3.528,3.043,0,2.017-1.782,3.062-4.195,3.062C220.145,535.077,218.452,533.835,218.362,531.8Z"/>
            <path class="cls-8" d="M228.171,521.915h5.492c3.565,0,5.96,2.575,5.96,6.517a6.26,6.26,0,0,1-2.233,5.186,6.35,6.35,0,0,1-3.925,1.171h-5.294Zm5.06,10.191c2.088,0,3.169-1.314,3.169-3.674,0-2.34-1.134-3.852-3.133-3.852h-1.908v7.526Z"/>
            <path class="cls-8" d="M240.861,521.915h3.206l3.817,6.464c.2.36.883,1.638.883,1.638h.035s-.035-1.548-.035-2v-6.1h3.114v12.874h-3.2l-3.781-6.374c-.216-.342-.918-1.729-.918-1.729h-.036s.036,1.657.036,2.107v6h-3.116Z"/>
            <path class="cls-8" d="M257.368,521.915h3.278l4.644,12.874h-3.348l-.756-2.323h-4.5l-.739,2.323h-3.2Zm3.079,8.265-.972-3.116c-.216-.666-.5-1.818-.5-1.818h-.036s-.306,1.152-.523,1.818l-.99,3.116Z"/>
          </g>
          <line class="cls-9" x1="101.133" y1="314.033" x2="101.133" y2="173.174"/>
          <g>
            <line class="cls-9" x1="101.133" y1="430.6" x2="101.133" y2="405.724"/>
            <line class="cls-9" x1="101.133" y1="389.33" x2="101.133" y2="366.454"/>
          </g>
          <g>
            <line class="cls-9" x1="101.133" y1="521.96" x2="101.133" y2="497.084"/>
            <line class="cls-9" x1="101.133" y1="480.69" x2="101.133" y2="457.814"/>
          </g>
          <path class="cls-10" d="M57.675,375.147V355.169m-12.4,12.821v-7.1m24.806,21.419V361.588m11.7,27.48V369.091m13.375,27.7v-7.1m87.466,57.592V427.305m-12.4,12.82v-7.1m24.806,21.419v-20.72m7.168,4.056-15.579-9c-2.436-1.406-4.777-1.68-6.537-.763l-32.228,16.788c-1.778.926-4.149.637-6.61-.8l-17.129-10.042a19.307,19.307,0,0,1-6.445-6.711l-32.3-53.925a19.243,19.243,0,0,0-6.518-6.754L61.3,356.432c-2.454-1.416-4.811-1.683-6.574-.744L22.885,372.649c-1.763.939-4.12.673-6.573-.744L.75,362.921m144.636,62.531V445.43m12.4-12.82v7.1M132.98,418.29v20.723m-11.7-27.48v19.978m-13.375-27.7v7.1M20.234,353.2v19.978m12.4-12.821v7.1M7.822,346.031v20.723"/>
          <path class="cls-11" d="M57.675,466.656V446.678M45.275,459.5v-7.1m24.806,21.419V453.1m11.7,27.479V460.6m13.375,27.7v-7.1m87.466,57.592V518.814m-12.4,12.82v-7.1m24.806,21.419v-20.72m7.168,4.056-15.579-9c-2.436-1.406-4.777-1.68-6.537-.763l-32.228,16.788c-1.778.926-4.149.637-6.61-.8l-17.129-10.042a19.3,19.3,0,0,1-6.445-6.711l-32.3-53.925a19.235,19.235,0,0,0-6.518-6.754L61.3,447.942c-2.454-1.416-4.811-1.683-6.574-.744l-31.838,16.96c-1.763.94-4.12.673-6.573-.744L.75,454.43m144.636,62.531v19.981m12.4-12.82v7.1M132.98,509.8v20.723m-11.7-27.48v19.978m-13.375-27.7v7.1M20.234,444.705v19.978m12.4-12.821v7.1M7.822,437.542v20.723"/>
          <path class="cls-12" d="M57.675,394.705V374.728m-12.4-.06v-7.1m24.806,35.045V381.892m11.7,26.735V388.649m13.375,14.82v-7.1m87.466,70.473V446.863m-12.4-.059v-7.1m24.806,35.045V454.028M.75,321.222l15.562,8.985a19.282,19.282,0,0,1,6.573,6.846l31.837,53.725a19.26,19.26,0,0,0,6.574,6.846L78.852,407.76c2.426,1.4,4.76,1.678,6.518.773l32.3-16.631c1.739-.9,4.044-.635,6.445.73l17.129,9.737a19.182,19.182,0,0,1,6.61,6.827l32.227,54a19.247,19.247,0,0,0,6.537,6.784l15.579,9m-56.808-73.247V425.7m12.4.06v7.1m-24.806-35.045v20.725m-11.7-26.735v19.978m-13.374-14.82v7.1m-87.675-70.6v19.974m12.4.059v7.1M7.822,325.56v20.721"/>
          <g>
            <path class="cls-13" d="M133.152,306.849c-12.495-.276-18.053-3.772-22.826-6.843-3.782-2.433-5.031-4.581-8.853-6.486"/>
            <g class="cls-14">
              <path class="cls-15" d="M96.616,293.064a23.013,23.013,0,0,0-5.592-1.887c-8.123-1.716-13.73-1.753-20.05,1.578"/>
              <path class="cls-16" d="M203.692,300.281s-16.288,1.894-38.96,4.124c-4.535.446-9.325.906-14.292,1.366q-2.49.231-5.036.462a87.813,87.813,0,0,1-9.852.362"/>
              <path class="cls-17" d="M253.21,295.042l-21.494,2.275,7.873,24c4.386,1.057,7.807,3.324,8.756,6.219,1.493,4.551-3.681,8.917-11.555,9.751s-15.469-2.181-16.962-6.733c-.95-2.894.8-5.709,4.225-7.593l-7.873-24-6.49.687m28.217,16.543-15.535,1.645m12.816-6.576L219.653,312.9m13.881-6.688L218,307.861"/>
            </g>
          </g>
          <g>
            <g>
              <polygon class="cls-18" points="120.428 183.673 120.212 183.564 95.389 160.434 102.118 163.583 120.428 183.673"/>
              <path class="cls-19" d="M82.765,188.953l13.743-31.521-7.094-4.095-9.134,34.69c-2.128,8.763-1,14.04,2.9,16.187l.808.5C80.089,202.567,79.569,195.861,82.765,188.953Z"/>
              <path class="cls-20" d="M125.177,105.217l-6.377-3.706c2.582,1.5.524,7.648-.816,9.966a19,19,0,0,1-6.372,6.939c-1.551.9-2.019,1.054-3.369.7-.333-.087-.052.968-.334.8l6.515,3.787a3.676,3.676,0,0,0,.923.378,6.049,6.049,0,0,0,4.468-.9,16.126,16.126,0,0,0,6.128-7.119C128.157,111.281,127.758,106.717,125.177,105.217Z"/>
              <polygon class="cls-21" points="102.064 144.691 95.582 140.925 101.345 122.765 109.547 127.532 102.064 144.691"/>
              <path class="cls-22" d="M120.1,95.062a5.769,5.769,0,0,0-1.459-.6c-2.134-.555-4.613.015-7.068,1.432a25.529,25.529,0,0,0-9.7,11.266c-2.919,6.315-2.967,12.385-.531,15.6l8.2,4.767c-2.436-3.218-2.388-9.289.531-15.6a25.538,25.538,0,0,1,9.7-11.265c2.456-1.418,4.934-1.988,7.069-1.433a5.821,5.821,0,0,1,1.458.6Z"/>
              <polygon class="cls-23" points="96.508 157.432 89.414 153.337 81.522 145.217 86.927 146.914 96.508 157.432"/>
              <path class="cls-24" d="M90.332,126.328a3.676,3.676,0,0,0-.742-.571l-6.145-3.572c.265.154-.817.127-.588.354C85.335,125,83.88,129.912,80.51,134.7a14.548,14.548,0,0,1-4.458,4.25c-1.982,1.145-1.835,2.616-3.3,1.767l6.091,3.54c1.461.848,3.424.6,5.406-.541a14.522,14.522,0,0,0,4.458-4.249C92.082,134.679,92.81,128.785,90.332,126.328Z"/>
              <path class="cls-25" d="M75.722,149.642l-8.2-4.766a5.8,5.8,0,0,1-1.174-.9c-3.921-3.888-2.772-13.217,2.566-20.791a22.992,22.992,0,0,1,7.051-6.72c3.138-1.811,6.246-2.2,8.557-.855l8.2,4.766c-2.311-1.343-5.419-.956-8.557.856a23.011,23.011,0,0,0-7.051,6.719c-5.337,7.574-6.487,16.9-2.566,20.792A5.762,5.762,0,0,0,75.722,149.642Z"/>
            </g>
            <path class="cls-26" d="M120.212,183.564c3.884-6.623,4.383-13.9,1.172-17.089L94.476,136.2c2.421-6.007,2.358-12-.576-14.913-3.9-3.882-11.427-.885-16.774,6.68s-6.52,16.877-2.618,20.758c2.91,2.894,7.833,1.963,12.365-1.833l33.339,36.676ZM78.078,143.671c-2.466-2.453-1.724-8.337,1.654-13.117s8.133-6.674,10.6-4.221,1.723,8.337-1.655,13.117-8.133,6.673-10.6,4.221Z"/>
            <path class="cls-27" d="M83.774,204.6l33.338-75.172c4.533-1.439,9.455-6.191,12.365-12.445,3.9-8.388,2.728-16.344-2.618-17.735s-12.871,4.3-16.774,12.688c-2.934,6.306-3,12.368-.576,15.58L82.6,188.866c-3.211,6.9-2.712,13.6,1.171,15.736Zm31.535-80.528c-3.378-.88-4.12-5.907-1.655-11.207s7.221-8.9,10.6-8.018,4.12,5.907,1.654,11.207S118.687,124.953,115.309,124.074Z"/>
          </g>
          <line class="cls-28" x1="121.274" y1="396.241" x2="121.274" y2="424.65"/>
          <line class="cls-28" x1="132.977" y1="404.084" x2="132.977" y2="432.492"/>
          <line class="cls-28" x1="145.386" y1="411.558" x2="145.386" y2="439.966"/>
          <line class="cls-28" x1="121.274" y1="489.887" x2="121.274" y2="518.295"/>
          <line class="cls-28" x1="132.977" y1="494.73" x2="132.977" y2="523.138"/>
          <line class="cls-28" x1="145.386" y1="502.203" x2="145.386" y2="530.611"/>
        </g>
        <g>
          <rect class="cls-29" x="86.389" y="0.524" width="107.164" height="34.248" rx="4"/>
          <g class="cls-30">
            <path class="cls-4" d="M119.33,17.708c0-3.6,2.244-6.357,5.83-6.357,2.992,0,4.76,1.784,5.015,4.1h-2.448a2.4,2.4,0,0,0-2.567-2.023c-2.243,0-3.314,1.87-3.314,4.284,0,2.481,1.292,4.267,3.331,4.267a2.449,2.449,0,0,0,2.618-2.142h2.414a4.3,4.3,0,0,1-1.343,2.872A5.138,5.138,0,0,1,125.177,24C121.761,24,119.33,21.362,119.33,17.708Z"/>
            <path class="cls-4" d="M136.516,22.773h-.034a2.671,2.671,0,0,1-2.566,1.173c-1.785,0-3.043-.934-3.043-2.669,0-1.921,1.564-2.532,3.5-2.8,1.444-.2,2.107-.324,2.107-.987,0-.629-.493-1.036-1.461-1.036-1.088,0-1.616.391-1.684,1.224h-2.056c.068-1.53,1.207-2.873,3.756-2.873,2.618,0,3.672,1.173,3.672,3.213V22.45c0,.663.1,1.054.306,1.207v.085h-2.227A2.365,2.365,0,0,1,136.516,22.773Zm.017-2.108V19.356a6.406,6.406,0,0,1-1.615.51c-1.207.273-1.8.544-1.8,1.361s.544,1.1,1.36,1.1C135.8,22.331,136.533,21.516,136.533,20.665Z"/>
            <path class="cls-4" d="M139.627,20.921h2.143a1.676,1.676,0,0,0,1.9,1.444c1.02,0,1.6-.39,1.6-1,0-.833-1.1-.918-2.294-1.155-1.565-.307-3.095-.731-3.095-2.635,0-1.887,1.564-2.788,3.554-2.788,2.293,0,3.569,1.139,3.739,2.89h-2.091c-.1-.935-.7-1.276-1.683-1.276-.9,0-1.5.341-1.5.97,0,.748,1.157.816,2.4,1.07,1.462.307,3.077.714,3.077,2.754,0,1.751-1.5,2.805-3.672,2.805C141.175,24,139.763,22.773,139.627,20.921Z"/>
            <path class="cls-4" d="M150.763,15.617h-2.635v-1.53c1.428-.051,2.7-.578,2.94-2.073h2.023V23.742h-2.328Z"/>
            <path class="cls-4" d="M157.579,19.119c1.462-1.156,3.06-1.973,3.06-3.468a1.6,1.6,0,0,0-1.616-1.819c-1.172,0-1.869.85-1.9,2.363h-2.176c0-2.652,1.36-4.335,4.131-4.335a3.672,3.672,0,0,1,3.96,3.723c0,2.192-1.5,3.229-2.924,4.182a7.1,7.1,0,0,0-2.345,2.073h5.372v1.9h-8.364A6.108,6.108,0,0,1,157.579,19.119Z"/>
          </g>
        </g>
      </g>
    </g>
  </g>
</svg>
