<svg id="Layer_1" data-name="Layer 1" xmlns="http://www.w3.org/2000/svg" xmlns:xlink="http://www.w3.org/1999/xlink" width="266.003" height="545.429" viewBox="0 0 266.003 545.429">
  <defs>
    <style>
      .cls-1 {
        opacity: 0.25;
      }

      .cls-2 {
        fill: url(#linear-gradient);
      }

      .cls-3 {
        opacity: 0.75;
        fill: url(#linear-gradient-2);
      }

      .cls-26, .cls-3 {
        isolation: isolate;
      }

      .cls-11, .cls-12, .cls-13, .cls-14, .cls-4, .cls-5, .cls-7, .cls-8, .cls-9 {
        fill: none;
        stroke-miterlimit: 10;
        stroke-width: 3px;
      }

      .cls-4 {
        stroke: #258ea8;
        stroke-dasharray: 6.468 6.468;
      }

      .cls-14, .cls-5 {
        stroke: #37b14a;
      }

      .cls-5, .cls-7, .cls-8 {
        stroke-dasharray: 6 6;
      }

      .cls-6 {
        opacity: 0.5;
      }

      .cls-7 {
        stroke: url(#linear-gradient-3);
      }

      .cls-8 {
        stroke: url(#linear-gradient-4);
      }

      .cls-9 {
        stroke: #0f4e61;
      }

      .cls-10 {
        fill: #0f4e61;
      }

      .cls-11 {
        stroke: url(#linear-gradient-5);
      }

      .cls-12 {
        stroke: url(#linear-gradient-6);
      }

      .cls-13 {
        stroke: url(#linear-gradient-7);
      }

      .cls-15 {
        fill: url(#linear-gradient-8);
      }

      .cls-16 {
        fill: url(#linear-gradient-9);
      }

      .cls-17 {
        fill: url(#linear-gradient-10);
      }

      .cls-18 {
        fill: url(#linear-gradient-11);
      }

      .cls-19 {
        fill: url(#linear-gradient-12);
      }

      .cls-20 {
        fill: url(#linear-gradient-13);
      }

      .cls-21 {
        fill: url(#linear-gradient-14);
      }

      .cls-22 {
        fill: url(#linear-gradient-15);
      }

      .cls-23 {
        fill: url(#linear-gradient-16);
      }

      .cls-24 {
        fill: url(#linear-gradient-17);
      }

      .cls-25 {
        fill: #eeaf3e;
      }

      .cls-27 {
        fill: #fff;
      }
    </style>
    <linearGradient id="linear-gradient" x1="115.417" y1="475.713" x2="115.417" y2="687.271" gradientTransform="translate(0 -201.565)" gradientUnits="userSpaceOnUse">
      <stop offset="0" stop-color="#258ea8"/>
      <stop offset="0.704" stop-color="#258ea8" stop-opacity="0"/>
    </linearGradient>
    <linearGradient id="linear-gradient-2" x1="115.592" y1="440.064" x2="115.592" y2="547.149" gradientTransform="translate(0 -201.565)" gradientUnits="userSpaceOnUse">
      <stop offset="0" stop-color="#258ea8" stop-opacity="0"/>
      <stop offset="1" stop-color="#258ea8"/>
    </linearGradient>
    <linearGradient id="linear-gradient-3" x1="447.585" y1="1028.43" x2="462.236" y2="1028.43" gradientTransform="matrix(1.314, -0.193, -0.149, -0.739, -378.113, 1140.683)" gradientUnits="userSpaceOnUse">
      <stop offset="0" stop-color="#0d2d40"/>
      <stop offset="1" stop-color="#0f4e61"/>
    </linearGradient>
    <linearGradient id="linear-gradient-4" x1="478.597" y1="1007.082" x2="513.56" y2="1007.082" xlink:href="#linear-gradient-3"/>
    <linearGradient id="linear-gradient-5" x1="114.986" y1="6562.252" x2="347.59" y2="6562.252" gradientTransform="matrix(-0.866, -0.5, 0, -1.155, 301.763, 8094.869)" gradientUnits="userSpaceOnUse">
      <stop offset="0" stop-color="#0f4e61" stop-opacity="0"/>
      <stop offset="0.245" stop-color="#0f4e61"/>
      <stop offset="0.759" stop-color="#0f4e61"/>
      <stop offset="1" stop-color="#0f4e61" stop-opacity="0"/>
    </linearGradient>
    <linearGradient id="linear-gradient-6" x1="114.986" y1="6483.023" x2="347.59" y2="6483.023" xlink:href="#linear-gradient-5"/>
    <linearGradient id="linear-gradient-7" x1="114.971" y1="6796.917" x2="347.59" y2="6796.917" gradientTransform="matrix(-0.866, -0.5, 0, 1.155, 301.763, -7335.222)" gradientUnits="userSpaceOnUse">
      <stop offset="0" stop-color="#0f4e61" stop-opacity="0"/>
      <stop offset="0.529" stop-color="#0f4e61" stop-opacity="0.6"/>
      <stop offset="0.858" stop-color="#0f4e61" stop-opacity="0.192"/>
      <stop offset="1" stop-color="#0f4e61" stop-opacity="0"/>
    </linearGradient>
    <linearGradient id="linear-gradient-8" x1="121.035" y1="384.719" x2="96.896" y2="360.58" gradientTransform="translate(0 -201.565)" gradientUnits="userSpaceOnUse">
      <stop offset="0" stop-color="#0f4e61" stop-opacity="0.6"/>
      <stop offset="0.698" stop-color="#0f4e61" stop-opacity="0.192"/>
      <stop offset="1" stop-color="#0f4e61" stop-opacity="0"/>
    </linearGradient>
    <linearGradient id="linear-gradient-9" x1="99.376" y1="390.977" x2="76.401" y2="368.003" xlink:href="#linear-gradient-8"/>
    <linearGradient id="linear-gradient-10" x1="124.418" y1="320.784" x2="112.798" y2="309.166" xlink:href="#linear-gradient-8"/>
    <linearGradient id="linear-gradient-11" x1="108.157" y1="340.25" x2="96.835" y2="328.928" xlink:href="#linear-gradient-8"/>
    <linearGradient id="linear-gradient-12" x1="120.914" y1="317.812" x2="105.656" y2="302.554" xlink:href="#linear-gradient-8"/>
    <linearGradient id="linear-gradient-13" x1="96.605" y1="358.988" x2="83.004" y2="345.388" xlink:href="#linear-gradient-8"/>
    <linearGradient id="linear-gradient-14" x1="88.892" y1="341.3" x2="77.264" y2="329.671" xlink:href="#linear-gradient-8"/>
    <linearGradient id="linear-gradient-15" x1="86.97" y1="340.043" x2="70.047" y2="323.119" xlink:href="#linear-gradient-8"/>
    <linearGradient id="linear-gradient-16" x1="-6134.631" y1="4930.784" x2="-6049.017" y2="4930.784" gradientTransform="matrix(0.511, 0.638, -0.699, 1.085, 6660.329, -1308.897)" gradientUnits="userSpaceOnUse">
      <stop offset="0" stop-color="#0f4e61"/>
      <stop offset="0.617" stop-color="#0d2d40"/>
      <stop offset="0.667" stop-color="#0d2d40"/>
    </linearGradient>
    <linearGradient id="linear-gradient-17" x1="-14.199" y1="-3455.014" x2="71.478" y2="-3455.014" gradientTransform="matrix(-0.511, 1.227, 0.699, 0.277, 2535.011, 1072.023)" xlink:href="#linear-gradient-3"/>
  </defs>
  <title>cas14</title>
  <g id="Layer_2" data-name="Layer 2">
    <g id="Layer_1-2" data-name="Layer 1-2">
      <g>
        <g>
          <g class="cls-1">
            <path class="cls-2" d="M198.544,312.932l-.379,140.36c-.019,6.763-1.175,15-6.143,21.5-4.153,5.433-10.963,9.645-22.006,10.757a32.369,32.369,0,0,1-19.748-4.4,46.359,46.359,0,0,1-10.388-8.372,30.18,30.18,0,0,0-6.965-5.4c-16.21-9.358-43.357-9.094-63.225-15.706a81.122,81.122,0,0,1-14.9-6.634c-13.647-7.879-22.534-19-22.5-30.529l.379-140.359c-.033,11.529,8.854,22.649,22.5,30.528a81.059,81.059,0,0,0,14.9,6.635c19.868,6.611,47.015,6.347,63.225,15.706a30.207,30.207,0,0,1,6.965,5.4,46.291,46.291,0,0,0,10.388,8.373,32.385,32.385,0,0,0,19.748,4.4c11.043-1.112,17.853-5.325,22.006-10.758C197.37,327.937,198.526,319.7,198.544,312.932Z"/>
          </g>
          <path class="cls-3" d="M192.4,334.741c6.7-8.718,6.469-20.607,5.87-27.788-2.073-24.8-31.644-51.227-68.242-62.537C113.8,239.4,93.5,236.951,74.312,239.551c-19.834,2.687-35.068,14.948-39.748,25.767-7.917,18.3,9.49,37.477,35.48,46.146,23.1,7.706,56.049,6.162,70.2,21.173,5.677,6.02,15.923,14.191,30.135,12.789C181.427,344.335,188.244,340.148,192.4,334.741Z"/>
          <line class="cls-4" x1="101.792" y1="313.509" x2="101.792" y2="172.65"/>
          <g>
            <path class="cls-5" d="M97.469,302.785c-8.392-.185-12.124-2.533-15.33-4.6-2.54-1.634-3.378-3.077-5.945-4.356"/>
            <g class="cls-6">
              <path class="cls-7" d="M75.932,293.527a15.421,15.421,0,0,0-3.755-1.267c-5.455-1.152-9.221-1.177-13.465,1.06"/>
              <path class="cls-8" d="M147.844,298.374s-10.938,1.272-26.164,2.77c-3.045.3-6.262.608-9.6.917q-1.672.156-3.382.31a59.167,59.167,0,0,1-6.617.244"/>
              <path class="cls-9" d="M181.1,294.854l-14.435,1.528,5.288,16.119c2.946.71,5.243,2.232,5.88,4.176,1,3.057-2.472,5.989-7.76,6.549s-10.389-1.465-11.391-4.522c-.638-1.943.539-3.834,2.837-5.1l-5.287-16.119-4.359.462m18.95,11.11-10.433,1.1m8.608-5.416-10.434,1.105m9.323-5.492-10.434,1.105"/>
            </g>
          </g>
          <g>
            <path class="cls-10" d="M208.633,457.946c0-2.881,1.656-4.88,4.033-4.88a2.873,2.873,0,0,1,2.575,1.315h.054v-4.7h2.935v12.874h-2.809v-1.237h-.036a3.037,3.037,0,0,1-2.719,1.53C210.308,462.843,208.633,461.025,208.633,457.946Zm6.734,0c0-1.549-.63-2.666-1.909-2.666-1.17,0-1.854,1.081-1.854,2.629,0,1.6.684,2.611,1.818,2.611,1.222,0,1.945-1.062,1.945-2.574Z"/>
            <path class="cls-10" d="M219.073,459.566h2.771a1.489,1.489,0,0,0,1.594,1.378h0c.033,0,.065-.006.1-.01.882,0,1.441-.323,1.441-.918,0-.828-1.116-.918-2.341-1.134-1.6-.27-3.313-.7-3.313-2.863,0-1.945,1.8-2.953,3.979-2.953,2.611,0,4.016,1.134,4.159,2.953h-2.7c-.108-.828-.666-1.08-1.477-1.08-.72,0-1.278.27-1.278.846,0,.648,1.044.738,2.215.954,1.62.27,3.528.685,3.528,3.043,0,2.017-1.782,3.061-4.195,3.061C220.856,462.843,219.163,461.6,219.073,459.566Z"/>
            <path class="cls-10" d="M228.883,449.681h5.492c3.566,0,5.96,2.575,5.96,6.518a6.266,6.266,0,0,1-2.233,5.186,6.364,6.364,0,0,1-3.925,1.17h-5.294Zm5.06,10.191c2.089,0,3.169-1.314,3.169-3.673,0-2.341-1.134-3.853-3.133-3.853h-1.908v7.526Z"/>
            <path class="cls-10" d="M241.573,449.681h3.2l3.817,6.464c.2.36.883,1.638.883,1.638h.035s-.035-1.548-.035-2v-6.1h3.114v12.874h-3.2l-3.781-6.374c-.216-.342-.918-1.729-.918-1.729h-.036s.036,1.657.036,2.107v6h-3.115Z"/>
            <path class="cls-10" d="M258.08,449.681h3.278L266,462.555h-3.349l-.756-2.323h-4.5l-.739,2.323h-3.2Zm3.079,8.265-.972-3.115c-.216-.667-.5-1.819-.5-1.819h-.036s-.306,1.152-.523,1.819l-.99,3.115Z"/>
          </g>
          <g>
            <path class="cls-10" d="M209.2,531.276h2.773a1.49,1.49,0,0,0,1.594,1.378h0c.033,0,.065-.006.1-.01.882,0,1.441-.323,1.441-.918,0-.828-1.116-.918-2.341-1.134-1.6-.27-3.313-.7-3.313-2.863,0-1.945,1.8-2.953,3.979-2.953,2.611,0,4.016,1.134,4.159,2.953h-2.7c-.108-.828-.666-1.08-1.477-1.08-.72,0-1.278.269-1.278.845,0,.649,1.044.739,2.215.954,1.62.271,3.528.685,3.528,3.043,0,2.017-1.782,3.062-4.2,3.062C210.983,534.553,209.29,533.311,209.2,531.276Z"/>
            <path class="cls-10" d="M218.363,531.276h2.772a1.49,1.49,0,0,0,1.594,1.378h0c.033,0,.066-.006.1-.01.882,0,1.441-.323,1.441-.918,0-.828-1.116-.918-2.341-1.134-1.6-.27-3.312-.7-3.312-2.863,0-1.945,1.8-2.953,3.978-2.953,2.611,0,4.016,1.134,4.159,2.953h-2.7c-.108-.828-.666-1.08-1.477-1.08-.72,0-1.278.269-1.278.845,0,.649,1.044.739,2.215.954,1.62.271,3.528.685,3.528,3.043,0,2.017-1.782,3.062-4.195,3.062C220.144,534.553,218.452,533.311,218.363,531.276Z"/>
            <path class="cls-10" d="M228.171,521.391h5.492c3.565,0,5.96,2.575,5.96,6.517a6.26,6.26,0,0,1-2.233,5.186,6.356,6.356,0,0,1-3.925,1.171h-5.294Zm5.06,10.191c2.089,0,3.169-1.314,3.169-3.674,0-2.34-1.134-3.852-3.133-3.852h-1.908v7.526Z"/>
            <path class="cls-10" d="M240.862,521.391h3.2l3.817,6.464c.2.36.883,1.638.883,1.638h.035s-.035-1.548-.035-2v-6.1h3.114v12.874h-3.2l-3.781-6.374c-.216-.342-.918-1.729-.918-1.729h-.036s.036,1.657.036,2.107v6h-3.115Z"/>
            <path class="cls-10" d="M257.368,521.391h3.278l4.644,12.874h-3.346l-.756-2.323h-4.5l-.738,2.323h-3.206Zm3.08,8.265-.973-3.116c-.216-.666-.5-1.818-.5-1.818h-.036s-.306,1.152-.523,1.818l-.99,3.116Z"/>
          </g>
          <g>
            <line class="cls-4" x1="101.132" y1="430.076" x2="101.132" y2="405.2"/>
            <line class="cls-4" x1="101.132" y1="388.806" x2="101.132" y2="365.93"/>
          </g>
          <g>
            <line class="cls-4" x1="101.132" y1="521.436" x2="101.132" y2="496.56"/>
            <line class="cls-4" x1="101.132" y1="480.166" x2="101.132" y2="457.29"/>
          </g>
          <path class="cls-11" d="M57.675,374.623V354.645m-12.4,12.821v-7.1m24.806,21.419V361.064m11.7,27.48V368.567m13.375,27.7v-7.1m87.455,57.591V426.781m-12.4,12.82v-7.1m24.806,21.419V433.2m7.168,4.056-15.58-9c-2.435-1.406-4.777-1.68-6.536-.763l-32.228,16.783c-1.777.926-4.149.637-6.609-.8L124.1,433.434a19.3,19.3,0,0,1-6.445-6.711L85.358,372.8a19.229,19.229,0,0,0-6.519-6.754L61.3,355.908c-2.453-1.416-4.81-1.683-6.573-.744L22.885,372.125c-1.763.939-4.12.673-6.574-.744L.75,362.4m144.636,62.531v19.978m12.4-12.82v7.1m-24.806-21.42v20.723m-11.7-27.48v19.978m-13.375-27.7v7.1M20.234,352.672V372.65m12.4-12.821v7.1M7.828,345.509v20.723"/>
          <path class="cls-12" d="M57.675,466.132V446.154m-12.4,12.821v-7.1m24.806,21.419v-20.72m11.7,27.479V460.076m13.375,27.7v-7.1m87.455,57.59V518.29m-12.4,12.82v-7.1m24.806,21.419v-20.72m7.168,4.056-15.58-9c-2.435-1.406-4.777-1.68-6.536-.763l-32.228,16.783c-1.777.926-4.149.637-6.609-.8L124.1,524.943a19.289,19.289,0,0,1-6.445-6.711l-32.3-53.925a19.229,19.229,0,0,0-6.519-6.754L61.3,447.418c-2.453-1.416-4.81-1.683-6.573-.744L22.885,463.635c-1.763.94-4.12.673-6.574-.744L.75,453.907m144.636,62.531v19.98m12.4-12.82v7.1m-24.806-21.42V530m-11.7-27.48V522.5m-13.375-27.7v7.1M20.234,444.181v19.978m12.4-12.821v7.1M7.825,437.018v20.723"/>
          <path class="cls-13" d="M57.675,394.181V374.2m-12.4-.06v-7.1m24.806,35.045V381.368m11.7,26.735V388.125m13.375,14.82v-7.1m87.455,70.47V446.339m-12.4-.059v-7.1m24.806,35.045V453.5M.75,320.7l15.561,8.985a19.26,19.26,0,0,1,6.574,6.846l31.838,53.725A19.282,19.282,0,0,0,61.3,397.1l17.556,10.136c2.427,1.4,4.761,1.678,6.519.773l32.3-16.631c1.739-.9,4.043-.635,6.445.73l17.129,9.737a19.171,19.171,0,0,1,6.609,6.827l32.228,54a19.244,19.244,0,0,0,6.536,6.784l15.58,9m-56.809-73.247v19.969m12.4.06v7.1m-24.806-35.045v20.725m-11.7-26.735v19.978m-13.375-14.82v7.1m-87.674-70.6v19.974m12.4.059v7.1M7.828,325.033v20.722"/>
          <line class="cls-14" x1="121.273" y1="395.717" x2="121.273" y2="424.126"/>
          <line class="cls-14" x1="132.977" y1="403.56" x2="132.977" y2="431.968"/>
          <line class="cls-14" x1="145.386" y1="411.034" x2="145.386" y2="439.442"/>
          <line class="cls-14" x1="121.273" y1="489.363" x2="121.273" y2="517.771"/>
          <line class="cls-14" x1="132.977" y1="494.206" x2="132.977" y2="522.614"/>
          <line class="cls-14" x1="145.386" y1="501.679" x2="145.386" y2="530.087"/>
          <g>
            <g>
              <polygon class="cls-15" points="121.04 183.149 120.824 183.04 96.001 159.91 102.73 163.059 121.04 183.149"/>
              <path class="cls-16" d="M83.376,188.429,97.12,156.908l-7.094-4.095L80.892,187.5c-2.128,8.763-1,14.04,2.9,16.187l.808.5C80.7,202.043,80.181,195.337,83.376,188.429Z"/>
              <path class="cls-17" d="M125.789,104.693l-6.377-3.706c2.582,1.5.524,7.648-.816,9.966a19.007,19.007,0,0,1-6.372,6.939c-1.551.9-2.019,1.054-3.369.7-.333-.087-.052.968-.334.8l6.515,3.787a3.714,3.714,0,0,0,.923.378,6.047,6.047,0,0,0,4.467-.9,16.126,16.126,0,0,0,6.128-7.119C128.769,110.757,128.37,106.193,125.789,104.693Z"/>
              <polygon class="cls-18" points="102.676 144.167 96.194 140.401 101.957 122.241 110.159 127.008 102.676 144.167"/>
              <path class="cls-19" d="M120.716,94.538a5.754,5.754,0,0,0-1.459-.6c-2.134-.555-4.613.015-7.068,1.432a25.529,25.529,0,0,0-9.7,11.266c-2.919,6.315-2.967,12.385-.531,15.6l8.2,4.767c-2.436-3.218-2.388-9.289.531-15.6a25.538,25.538,0,0,1,9.7-11.265c2.455-1.418,4.934-1.988,7.069-1.433a5.837,5.837,0,0,1,1.458.6Z"/>
              <polygon class="cls-20" points="97.12 156.908 90.026 152.813 82.134 144.693 87.539 146.39 97.12 156.908"/>
              <path class="cls-21" d="M90.944,125.8a3.676,3.676,0,0,0-.742-.571l-6.145-3.572c.265.154-.817.127-.588.354,2.478,2.458,1.023,7.373-2.347,12.158a14.571,14.571,0,0,1-4.458,4.25c-1.982,1.145-1.835,2.616-3.3,1.767l6.091,3.54c1.461.848,3.424.6,5.406-.541a14.545,14.545,0,0,0,4.458-4.249C92.694,134.155,93.422,128.261,90.944,125.8Z"/>
              <path class="cls-22" d="M76.33,149.118l-8.2-4.766a5.8,5.8,0,0,1-1.174-.9c-3.921-3.888-2.772-13.217,2.566-20.791a22.991,22.991,0,0,1,7.051-6.72c3.138-1.811,6.246-2.2,8.557-.855l8.2,4.766c-2.311-1.343-5.419-.956-8.557.856a23.011,23.011,0,0,0-7.051,6.719c-5.337,7.574-6.487,16.9-2.566,20.792A5.8,5.8,0,0,0,76.33,149.118Z"/>
            </g>
            <path class="cls-23" d="M120.824,183.04c3.884-6.623,4.383-13.9,1.172-17.089L95.088,135.672c2.421-6.007,2.358-12-.576-14.913-3.9-3.882-11.428-.885-16.774,6.68s-6.52,16.877-2.618,20.758c2.91,2.894,7.833,1.963,12.365-1.833ZM78.69,143.147c-2.466-2.453-1.724-8.337,1.654-13.117s8.132-6.674,10.6-4.221,1.724,8.337-1.654,13.117-8.134,6.673-10.6,4.221Z"/>
            <path class="cls-24" d="M84.385,204.078l33.339-75.172c4.533-1.439,9.455-6.191,12.365-12.445,3.9-8.388,2.728-16.344-2.618-17.735s-12.871,4.3-16.774,12.688c-2.934,6.306-3,12.368-.576,15.58L83.214,188.342C80,195.242,80.5,201.942,84.385,204.078Zm31.536-80.528c-3.378-.88-4.121-5.907-1.655-11.207s7.221-8.9,10.6-8.018,4.12,5.907,1.654,11.207-7.221,8.9-10.6,8.018Z"/>
          </g>
        </g>
        <g>
          <rect class="cls-25" x="79.794" width="107.164" height="34.248" rx="4"/>
          <g class="cls-26">
            <path class="cls-27" d="M112.735,17.184c0-3.6,2.244-6.358,5.83-6.358,2.992,0,4.76,1.784,5.015,4.1h-2.448a2.4,2.4,0,0,0-2.567-2.024c-2.243,0-3.314,1.871-3.314,4.285,0,2.481,1.292,4.266,3.332,4.266a2.448,2.448,0,0,0,2.617-2.141h2.414a4.3,4.3,0,0,1-1.343,2.872,5.137,5.137,0,0,1-3.688,1.292C115.166,23.473,112.735,20.838,112.735,17.184Z"/>
            <path class="cls-27" d="M129.921,22.249h-.033a2.676,2.676,0,0,1-2.567,1.173c-1.785,0-3.043-.935-3.043-2.669,0-1.921,1.564-2.532,3.5-2.8,1.445-.2,2.108-.323,2.108-.986,0-.629-.493-1.036-1.462-1.036-1.088,0-1.615.39-1.683,1.223h-2.057c.068-1.53,1.207-2.873,3.756-2.873,2.619,0,3.672,1.173,3.672,3.213v4.437c0,.663.1,1.053.306,1.207v.085h-2.227A2.4,2.4,0,0,1,129.921,22.249Zm.017-2.108V18.832a6.452,6.452,0,0,1-1.614.51c-1.207.272-1.8.544-1.8,1.36s.544,1.1,1.36,1.1C129.208,21.807,129.938,20.991,129.938,20.141Z"/>
            <path class="cls-27" d="M133.033,20.4h2.142a1.676,1.676,0,0,0,1.9,1.445c1.021,0,1.6-.391,1.6-1,0-.833-1.1-.918-2.294-1.155-1.565-.307-3.094-.732-3.094-2.635,0-1.888,1.564-2.788,3.553-2.788,2.294,0,3.569,1.138,3.739,2.889h-2.091c-.1-.934-.7-1.275-1.682-1.275-.9,0-1.5.341-1.5.97,0,.748,1.156.815,2.4,1.07,1.462.307,3.077.714,3.077,2.754,0,1.751-1.5,2.805-3.672,2.805C134.58,23.473,133.168,22.249,133.033,20.4Z"/>
            <path class="cls-27" d="M144.168,15.093h-2.635V13.562c1.428-.05,2.7-.578,2.941-2.073H146.5V23.218h-2.328Z"/>
            <path class="cls-27" d="M153.517,20.685h-5.371v-2.5l5.286-6.749h2.345v7.394h1.769v1.853h-1.769v2.533h-2.26Zm-3.5-1.853h3.5V14.311h-.034l-3.467,4.47Z"/>
          </g>
        </g>
      </g>
    </g>
  </g>
</svg>
