<?xml version="1.0" encoding="utf-8"?>
<!-- Generator: Adobe Illustrator 24.0.1, SVG Export Plug-In . SVG Version: 6.00 Build 0)  -->
<svg version="1.1" id="Layer_1" xmlns="http://www.w3.org/2000/svg" xmlns:xlink="http://www.w3.org/1999/xlink" x="0px" y="0px"
	 viewBox="0 0 242 621" style="enable-background:new 0 0 242 621;" xml:space="preserve">
<style type="text/css">
	.st0{fill:url(#Path_26_);}
	.st1{fill:url(#Path_27_);}
	.st2{fill:url(#Path_28_);}
	.st3{fill:url(#Path_29_);}
	.st4{fill:url(#Shape_9_);}
	.st5{fill:url(#Path_30_);}
	.st6{fill:url(#Oval_7_);}
	.st7{fill:#0D2D40;}
	.st8{fill:url(#SVGID_1_);}
	.st9{fill:url(#Path_31_);}
	.st10{fill:url(#Path_32_);}
	.st11{fill:url(#Shape_10_);}
	.st12{fill:url(#Path_33_);}
	.st13{fill:url(#Oval_8_);}
	.st14{fill:url(#SVGID_2_);}
	.st15{fill:none;stroke:url(#SVGID_3_);stroke-width:3;}
	.st16{fill:none;stroke:url(#SVGID_4_);stroke-width:3;}
	.st17{fill:none;stroke:url(#SVGID_5_);stroke-width:3;}
	.st18{fill:none;stroke:url(#SVGID_6_);stroke-width:3;}
	.st19{opacity:0.25;}
	.st20{fill:url(#SVGID_7_);}
	.st21{fill:url(#SVGID_8_);}
	.st22{fill:url(#SVGID_9_);}
	.st23{fill:url(#SVGID_10_);}
	.st24{fill:url(#SVGID_11_);}
	.st25{fill:url(#Path_34_);}
	.st26{fill:url(#SVGID_12_);}
	.st27{fill:url(#SVGID_13_);}
	.st28{fill:url(#SVGID_14_);}
	.st29{fill:url(#SVGID_15_);}
	.st30{fill:url(#SVGID_16_);}
	.st31{fill:url(#Shape_11_);}
	.st32{fill:url(#SVGID_17_);}
	.st33{fill:url(#SVGID_18_);}
	.st34{fill:url(#SVGID_19_);}
	.st35{fill:url(#SVGID_20_);}
	.st36{filter:url(#Adobe_OpacityMaskFilter);}
	.st37{fill-rule:evenodd;clip-rule:evenodd;fill:#FFFFFF;}
	.st38{mask:url(#mask-36_1_);}
	.st39{fill:none;stroke:url(#SVGID_21_);stroke-width:3;}
	.st40{fill:none;stroke:url(#SVGID_22_);stroke-width:3;}
	.st41{fill:none;stroke:url(#SVGID_23_);stroke-width:3;}
	.st42{fill:none;stroke:url(#SVGID_24_);stroke-width:3;}
	.st43{fill:none;stroke:url(#SVGID_25_);stroke-width:3;}
	.st44{fill:url(#Shape_12_);}
	.st45{fill:url(#SVGID_26_);}
	.st46{fill:url(#SVGID_27_);}
	.st47{fill:url(#SVGID_28_);}
	.st48{fill:url(#SVGID_29_);}
	.st49{fill:url(#SVGID_30_);}
	.st50{fill:url(#SVGID_31_);}
	.st51{fill:url(#SVGID_32_);}
	.st52{fill:url(#SVGID_33_);}
	.st53{fill:#37B14A;}
	.st54{fill:url(#Shape_13_);}
	.st55{fill:url(#Path_35_);}
	.st56{fill:url(#Path_36_);}
	.st57{fill:url(#Path_37_);}
	.st58{fill:url(#Path_38_);}
	.st59{fill:#FAFBFD;}
</style>
<title>Group 11</title>
<desc>Created with Sketch.</desc>
<g id="discovery-process">
	<g id="Group" transform="translate(115.000000, 579.000000)">
		
			<linearGradient id="Path_26_" gradientUnits="userSpaceOnUse" x1="-185.8832" y1="127.0064" x2="-185.8832" y2="126.0064" gradientTransform="matrix(20.7367 0 0 -85.5463 3866.3547 10818.8984)">
			<stop  offset="0.001" style="stop-color:#37B14A;stop-opacity:0.3"/>
			<stop  offset="0.598" style="stop-color:#37B14A;stop-opacity:0.076"/>
			<stop  offset="0.787" style="stop-color:#37B14A;stop-opacity:0"/>
			<stop  offset="1" style="stop-color:#37B14A;stop-opacity:0"/>
		</linearGradient>
		<path id="Path" class="st0" d="M22.118-45.972l-0.05,79.532c-0.005,1.522-1.006,3.042-3.006,4.203
			c-4.025,2.336-10.574,2.336-14.626,0c-2.039-1.176-3.058-2.721-3.054-4.262l0.05-79.532c0,1.541,1.015,3.086,3.054,4.262
			c4.053,2.337,10.602,2.337,14.626,0C21.113-42.928,22.114-44.45,22.118-45.972z"/>
		
			<linearGradient id="Path_27_" gradientUnits="userSpaceOnUse" x1="-185.8832" y1="127.0064" x2="-185.8832" y2="126.0064" gradientTransform="matrix(20.7367 0 0 -85.5463 3889.821 10800.8691)">
			<stop  offset="0.001" style="stop-color:#37B14A;stop-opacity:0.3"/>
			<stop  offset="0.598" style="stop-color:#37B14A;stop-opacity:0.076"/>
			<stop  offset="0.787" style="stop-color:#37B14A;stop-opacity:0"/>
			<stop  offset="1" style="stop-color:#37B14A;stop-opacity:0"/>
		</linearGradient>
		<path id="Path_1_" class="st1" d="M45.583-64.001l-0.05,79.532c-0.005,1.522-1.006,3.042-3.006,4.203
			c-4.025,2.336-10.574,2.336-14.627,0c-2.039-1.176-3.058-2.721-3.053-4.262l0.05-79.532c-0.005,1.541,1.014,3.086,3.053,4.262
			c4.053,2.337,10.602,2.337,14.627,0C44.578-60.959,45.578-62.478,45.583-64.001z"/>
		<g transform="translate(0.000000, 16.745098)">
			<g transform="translate(2.394627, 29.503268)">
				
					<linearGradient id="Path_28_" gradientUnits="userSpaceOnUse" x1="-175.3233" y1="70.0886" x2="-175.3233" y2="71.0886" gradientTransform="matrix(4.5259 0 0 -7.9715 795.8816 514.8622)">
					<stop  offset="0" style="stop-color:#37B14A"/>
					<stop  offset="1" style="stop-color:#37B14A;stop-opacity:0"/>
				</linearGradient>
				<path id="Path_2_" class="st2" d="M4.65-43.847c-0.312-0.202-0.724-0.478-1.019-0.707c-0.253-0.197-0.493-0.41-0.718-0.638
					c-0.633-0.62-1.174-1.328-1.606-2.102c-0.193-0.341-0.363-0.693-0.508-1.057c-0.168-0.452-0.313-0.913-0.435-1.38
					c-0.161-0.684-0.241-1.385-0.239-2.088c0.004,1.343,0.867,2.686,2.601,3.728C2.731-46.026,3.464-44.56,4.65-43.847z"/>
				
					<linearGradient id="Path_29_" gradientUnits="userSpaceOnUse" x1="-187.2314" y1="71.6765" x2="-187.2314" y2="72.6765" gradientTransform="matrix(16.0832 0 0 -9.3663 3022.0391 628.8328)">
					<stop  offset="0" style="stop-color:#37B14A"/>
					<stop  offset="1" style="stop-color:#37B14A;stop-opacity:0"/>
				</linearGradient>
				<path id="Path_3_" class="st3" d="M14.015-43.691c-2.924,1.629-6.498,1.568-9.365-0.159c-1.185-0.713-1.916-2.179-1.924-4.244
					c3.572,2.148,9.486,2.208,13.21,0.134c1.916-1.068,2.879-2.492,2.874-3.916c-0.009,0.224,0,0.525-0.028,0.748
					c-0.043,0.49-0.12,0.977-0.228,1.457c-0.105,0.412-0.231,0.818-0.38,1.216c-0.18,0.46-0.395,0.906-0.645,1.332
					C16.686-45.686,15.473-44.5,14.015-43.691z"/>
				
					<linearGradient id="Shape_9_" gradientUnits="userSpaceOnUse" x1="-187.903" y1="78.5975" x2="-187.903" y2="79.5975" gradientTransform="matrix(18.7891 0 0 -39.4589 3539.9375 3058.8652)">
					<stop  offset="0" style="stop-color:#37B14A"/>
					<stop  offset="1" style="stop-color:#37B14A;stop-opacity:0.25"/>
				</linearGradient>
				<path id="Shape" class="st4" d="M18.704-76.587c0-1.344-0.868-2.686-2.601-3.729c-3.572-2.147-9.487-2.207-13.21-0.133
					c-1.916,1.068-2.878,2.492-2.874,3.916l0.105,24.714c0-0.362,0.06-0.721,0.178-1.063c-0.118,0.342-0.178,0.701-0.178,1.063
					c0.019,0.447,0.063,1.042,0.122,1.485c0.047,0.311,0.113,0.618,0.198,0.921c0.43,1.604,1.282,3.063,2.468,4.226
					c0.525,0.513,1.109,0.964,1.738,1.344c0.296,0.167,0.694,0.387,1.004,0.525c0.359,0.162,0.728,0.299,1.105,0.412
					c0.847,0.258,1.727,0.392,2.613,0.399c3.35,0.033,6.461-1.725,8.158-4.61c0.373-0.633,0.668-1.308,0.878-2.012
					c0.129-0.471,0.234-0.948,0.312-1.43c0.053-0.435,0.082-0.873,0.089-1.312C18.778-63.005,18.736-65.457,18.704-76.587z
					 M0.526-53.403c0.194-0.364,0.435-0.7,0.718-1C0.961-54.103,0.72-53.766,0.526-53.403z"/>
				
					<linearGradient id="Path_30_" gradientUnits="userSpaceOnUse" x1="-164.1859" y1="77.7631" x2="-164.1859" y2="78.7631" gradientTransform="matrix(2.7067 0 0 -28.4419 445.7781 2163.6426)">
					<stop  offset="0" style="stop-color:#37B14A"/>
					<stop  offset="1" style="stop-color:#37B14A;stop-opacity:0"/>
				</linearGradient>
				<path id="Path_4_" class="st5" d="M0.124-51.819L0.018-76.533c0,1.343,0.867,2.686,2.601,3.729l0.105,24.713
					C0.991-49.133,0.128-50.476,0.124-51.819z"/>
				
					<linearGradient id="Oval_7_" gradientUnits="userSpaceOnUse" x1="-188.1815" y1="73.538" x2="-187.606" y2="73.2035" gradientTransform="matrix(18.6864 -0.0528 -0.0306 -10.8126 3522.6531 706.8426)">
					<stop  offset="0" style="stop-color:#37B14A;stop-opacity:0.25"/>
					<stop  offset="0.999" style="stop-color:#37B14A"/>
				</linearGradient>
				<path id="Oval" class="st6" d="M9.34-81.964c5.16-0.015,9.35,2.394,9.358,5.38c0.008,2.986-4.168,5.418-9.328,5.433
					s-9.35-2.394-9.358-5.38C0.004-79.517,4.18-81.949,9.34-81.964z"/>
			</g>
			<g id="Path_5_">
				<path class="st7" d="M23.483-75.038L23.451-63.88c-0.005,1.724-1.14,3.446-3.407,4.763c-4.559,2.647-11.979,2.647-16.568,0
					c-2.31-1.332-3.463-3.08-3.459-4.826l0.032-11.158c-0.005,1.745,1.148,3.493,3.459,4.827c4.588,2.646,12.009,2.646,16.568,0
					C22.343-71.591,23.478-73.313,23.483-75.038z"/>
				
					<linearGradient id="SVGID_1_" gradientUnits="userSpaceOnUse" x1="-186.5886" y1="104.6545" x2="-186.0098" y2="104.3198" gradientTransform="matrix(23.4315 0 0 -13.5614 4377.0454 1341.9261)">
					<stop  offset="0" style="stop-color:#258EA8"/>
					<stop  offset="0.579" style="stop-color:#196A80"/>
					<stop  offset="1" style="stop-color:#0F4E61"/>
				</linearGradient>
				<path class="st8" d="M20.025-79.864c4.589,2.647,4.613,6.937,0.05,9.589c-4.563,2.651-11.98,2.647-16.568,0
					s-4.613-6.937-0.054-9.587C8.012-82.512,15.433-82.513,20.025-79.864z"/>
			</g>
		</g>
		<g transform="translate(23.148065, 0.000000)">
			<g transform="translate(2.394627, 29.503268)">
				
					<linearGradient id="Path_31_" gradientUnits="userSpaceOnUse" x1="-198.4656" y1="86.8369" x2="-198.4656" y2="87.8369" gradientTransform="matrix(4.5243 0 0 -7.9739 900.6279 648.5894)">
					<stop  offset="0" style="stop-color:#37B14A"/>
					<stop  offset="1" style="stop-color:#37B14A;stop-opacity:0"/>
				</linearGradient>
				<path id="Path_6_" class="st9" d="M4.966-43.836c-0.313-0.202-0.725-0.478-1.019-0.707c-0.253-0.197-0.493-0.41-0.718-0.638
					c-0.633-0.62-1.174-1.328-1.606-2.102c-0.193-0.341-0.362-0.695-0.507-1.059c-0.169-0.452-0.314-0.913-0.435-1.38
					c-0.161-0.684-0.242-1.385-0.24-2.088c0,1.343,0.867,2.686,2.601,3.729C3.048-46.015,3.78-44.548,4.966-43.836z"/>
				
					<linearGradient id="Path_32_" gradientUnits="userSpaceOnUse" x1="-210.3797" y1="88.4216" x2="-210.3797" y2="89.4216" gradientTransform="matrix(16.084 0 0 -9.3663 3394.8191 785.6837)">
					<stop  offset="0" style="stop-color:#37B14A"/>
					<stop  offset="1" style="stop-color:#37B14A;stop-opacity:0"/>
				</linearGradient>
				<path id="Path_7_" class="st10" d="M14.332-43.68c-2.924,1.629-6.498,1.568-9.365-0.159c-1.186-0.713-1.916-2.179-1.925-4.244
					c3.573,2.147,9.487,2.207,13.21,0.133c1.916-1.068,2.878-2.492,2.874-3.916c-0.008,0.224,0,0.525-0.027,0.749
					c-0.044,0.49-0.12,0.977-0.228,1.457c-0.105,0.412-0.232,0.817-0.38,1.215c-0.18,0.46-0.396,0.906-0.646,1.332
					C17.003-45.675,15.79-44.489,14.332-43.68L14.332-43.68z"/>
				
					<linearGradient id="Shape_10_" gradientUnits="userSpaceOnUse" x1="-211.0508" y1="95.3426" x2="-211.0508" y2="96.3426" gradientTransform="matrix(18.7883 0 0 -39.4589 3975.0129 3719.6201)">
					<stop  offset="0" style="stop-color:#37B14A"/>
					<stop  offset="1" style="stop-color:#37B14A;stop-opacity:0.25"/>
				</linearGradient>
				<path id="Shape_1_" class="st11" d="M19.021-76.578c0-1.343-0.867-2.686-2.601-3.729c-3.573-2.147-9.487-2.207-13.21-0.133
					c-1.916,1.068-2.878,2.492-2.874,3.916l0.105,24.714c0-0.362,0.059-0.721,0.177-1.063c-0.118,0.342-0.178,0.701-0.177,1.063
					c0.018,0.447,0.062,1.042,0.121,1.486c0.047,0.31,0.114,0.618,0.199,0.92c0.43,1.604,1.282,3.063,2.468,4.226
					c0.525,0.513,1.108,0.964,1.738,1.344c0.296,0.167,0.694,0.387,1.004,0.525c0.359,0.162,0.728,0.3,1.105,0.412
					c0.847,0.258,1.727,0.392,2.613,0.399c3.349,0.034,6.461-1.725,8.157-4.61c0.373-0.633,0.668-1.308,0.878-2.012
					c0.129-0.47,0.234-0.947,0.313-1.429c0.053-0.436,0.082-0.874,0.088-1.312C19.095-62.994,19.052-65.445,19.021-76.578z
					 M0.843-53.393c0.194-0.364,0.435-0.7,0.718-1c-0.283,0.3-0.525,0.637-0.718,1.002V-53.393z"/>
				
					<linearGradient id="Path_33_" gradientUnits="userSpaceOnUse" x1="-187.3258" y1="94.5083" x2="-187.3258" y2="95.5083" gradientTransform="matrix(2.7059 0 0 -28.4427 508.5785 2639.9956)">
					<stop  offset="0" style="stop-color:#37B14A"/>
					<stop  offset="1" style="stop-color:#37B14A;stop-opacity:0"/>
				</linearGradient>
				<path id="Path_8_" class="st12" d="M0.441-51.808L0.335-76.522c0,1.343,0.867,2.686,2.601,3.729l0.105,24.714
					C1.307-49.122,0.444-50.465,0.441-51.808z"/>
				
					<linearGradient id="Oval_8_" gradientUnits="userSpaceOnUse" x1="-211.3294" y1="90.2831" x2="-210.7539" y2="89.9486" gradientTransform="matrix(18.686 -0.0528 -0.0306 -10.8126 3955.957 886.693)">
					<stop  offset="0" style="stop-color:#37B14A;stop-opacity:0.25"/>
					<stop  offset="0.999" style="stop-color:#37B14A"/>
				</linearGradient>
				<path id="Oval_1_" class="st13" d="M9.657-81.952c5.16-0.015,9.35,2.394,9.358,5.38s-4.168,5.418-9.328,5.433
					c-5.16,0.015-9.35-2.394-9.358-5.38C0.321-79.505,4.497-81.937,9.657-81.952z"/>
			</g>
			<g id="Path_9_">
				<path class="st7" d="M23.799-75.027l-0.031,11.158c-0.005,1.724-1.14,3.446-3.407,4.763c-4.559,2.647-11.98,2.647-16.568,0
					c-2.311-1.332-3.463-3.08-3.459-4.826L0.366-75.09c-0.005,1.745,1.149,3.493,3.459,4.827c4.589,2.647,12.009,2.646,16.568,0
					C22.66-71.58,23.794-73.302,23.799-75.027z"/>
				
					<linearGradient id="SVGID_2_" gradientUnits="userSpaceOnUse" x1="-209.7367" y1="121.3997" x2="-209.158" y2="121.0651" gradientTransform="matrix(23.4321 0 0 -13.5617 4919.8833 1569.063)">
					<stop  offset="0" style="stop-color:#258EA8"/>
					<stop  offset="0.579" style="stop-color:#196A80"/>
					<stop  offset="1" style="stop-color:#0F4E61"/>
				</linearGradient>
				<path class="st14" d="M20.342-79.853c4.589,2.647,4.613,6.937,0.049,9.589s-11.979,2.647-16.568,0
					c-4.589-2.647-4.612-6.937-0.053-9.587S15.749-82.502,20.342-79.853z"/>
			</g>
		</g>
	</g>
	<g id="Group_1_" transform="translate(81.000000, 196.000000)">
		<g id="Shape_2_" transform="translate(0.000000, 50.394875)">
			
				<linearGradient id="SVGID_3_" gradientUnits="userSpaceOnUse" x1="-155.0644" y1="459.7494" x2="-154.0585" y2="459.3804" gradientTransform="matrix(109.8196 0 0 -69.924 17057.4551 32041.8574)">
				<stop  offset="0" style="stop-color:#37B14A;stop-opacity:0"/>
				<stop  offset="0.245" style="stop-color:#37B14A"/>
				<stop  offset="0.759" style="stop-color:#37B14A"/>
				<stop  offset="1" style="stop-color:#37B14A;stop-opacity:0"/>
			</linearGradient>
			<path class="st15" d="M5.366-72.671l-0.049,8.993 M11.472-62.161l0.05-8.993 M35.7-56.999l-0.105,8.504 M17.578-69.919
				l-0.036,17.251 M23.636-68.686l0.097,20.196 M29.692-62.941l-0.041,17.082 M59.903-47.254v6.378 M47.992-53.854v7.036
				 M72.114-27.222l0.05-8.993 M96.342-22.061l-0.049,8.993 M102.448-16.513L78.222-34.982l0.079,17.461 M84.277-33.748v20.073
				 M90.333-28.006l0.079,17.292 M53.923-51.24v7.391 M0.589-80.504l15.657,26.176c0.768,1.341,1.858,2.47,3.172,3.286l8.331,4.803
				c0.925,0.657,2.122,0.797,3.173,0.369l15.641-8.129c1.066-0.429,2.279-0.281,3.209,0.394l8.313,4.863
				c1.293,0.813,2.367,1.929,3.129,3.25L76.89-19.374c0.768,1.334,1.855,2.458,3.164,3.271l8.522,4.909
				c0.929,0.663,2.136,0.8,3.19,0.361l15.452-8.214c1.054-0.439,2.261-0.303,3.19,0.36"/>
			
				<linearGradient id="SVGID_4_" gradientUnits="userSpaceOnUse" x1="-155.3097" y1="459.246" x2="-154.3038" y2="458.8445" gradientTransform="matrix(109.8236 0 0 -76.0978 17058.1035 34884.1367)">
				<stop  offset="0" style="stop-color:#FAFBFD;stop-opacity:0"/>
				<stop  offset="0.529" style="stop-color:#FAFBFD"/>
				<stop  offset="0.613" style="stop-color:#FAFBFD;stop-opacity:0.842"/>
				<stop  offset="0.803" style="stop-color:#FAFBFD;stop-opacity:0.44"/>
				<stop  offset="1" style="stop-color:#FAFBFD;stop-opacity:0"/>
			</linearGradient>
			<path class="st16" d="M5.349-81.913l0.049,9.05 M11.553-67.287l-0.05-9.05 M35.682-62.636l0.049,9.05 M17.61-79.362v17.819
				 M23.667-75.874v20.073 M29.649-71.786l0.079,17.217 M72.199-32.356l-0.05-9.05 M96.328-27.704l0.049,9.05 M78.256-44.431v17.817
				 M84.313-40.945v20.073 M90.37-37.455v17.817 M53.991-46.831l-0.035,8.469 M59.947-44.188l-0.035,8.469 M48.037-50.791
				l-0.036,8.469 M110.447-5.816c-1.324-0.823-2.42-1.963-3.19-3.316l-15.452-26.02c-0.77-1.353-1.867-2.493-3.19-3.316l-8.522-4.91
				c-0.922-0.654-2.114-0.794-3.164-0.374l-15.675,8.055c-1.036,0.418-2.213,0.284-3.129-0.354l-8.313-4.716
				c-1.331-0.816-2.434-1.953-3.209-3.307L30.957-70.213c-0.769-1.34-1.859-2.469-3.173-3.286l-8.331-4.803
				c-0.924-0.657-2.121-0.796-3.172-0.369l-15.657,8.14"/>
		</g>
		<g id="Shape_3_" transform="translate(0.000000, 22.835178)">
			
				<linearGradient id="SVGID_5_" gradientUnits="userSpaceOnUse" x1="-155.0501" y1="487.4488" x2="-153.8886" y2="487.4488" gradientTransform="matrix(109.8196 0 0 -69.924 17057.4609 33969.4336)">
				<stop  offset="0" style="stop-color:#37B14A;stop-opacity:0"/>
				<stop  offset="0.245" style="stop-color:#37B14A"/>
				<stop  offset="0.759" style="stop-color:#37B14A"/>
				<stop  offset="1" style="stop-color:#37B14A;stop-opacity:0"/>
			</linearGradient>
			<path class="st17" d="M5.366-72.182l-0.049,8.993 M11.472-61.673l0.05-8.993 M35.7-56.511l-0.105,8.504 M17.578-69.431
				l-0.036,17.25 M23.636-68.197l0.097,20.196 M29.692-62.452l-0.041,17.082 M59.903-46.765v6.378 M47.992-53.366v7.036
				 M72.114-26.734l0.05-8.993 M96.342-21.573l-0.049,8.993 M102.448-16.025L78.222-34.493l0.079,17.461 M84.278-33.259v20.073
				 M90.334-27.517l0.079,17.292 M53.923-50.751v7.391 M0.595-80.016L16.252-53.84c0.768,1.341,1.858,2.47,3.172,3.286l8.331,4.803
				c0.925,0.657,2.122,0.797,3.173,0.369L46.57-53.51c1.066-0.429,2.279-0.281,3.209,0.394l8.313,4.863
				c1.293,0.813,2.367,1.929,3.129,3.25l15.675,26.116c0.768,1.334,1.855,2.458,3.164,3.271l8.522,4.909
				c0.929,0.663,2.136,0.8,3.19,0.361l15.452-8.214c1.054-0.439,2.261-0.303,3.19,0.36"/>
			
				<linearGradient id="SVGID_6_" gradientUnits="userSpaceOnUse" x1="-155.3097" y1="486.8058" x2="-154.3038" y2="486.4042" gradientTransform="matrix(109.8236 0 0 -76.1041 17058.1035 36984.9375)">
				<stop  offset="0" style="stop-color:#FAFBFD;stop-opacity:0"/>
				<stop  offset="0.53" style="stop-color:#FAFBFD"/>
				<stop  offset="0.614" style="stop-color:#FAFBFD;stop-opacity:0.842"/>
				<stop  offset="0.803" style="stop-color:#FAFBFD;stop-opacity:0.44"/>
				<stop  offset="1" style="stop-color:#FAFBFD;stop-opacity:0"/>
			</linearGradient>
			<path class="st18" d="M5.349-81.425l0.049,9.05 M11.553-66.799l-0.05-9.05 M35.682-62.148l0.049,9.05 M17.61-78.874v17.819
				 M23.667-75.386v20.079 M29.649-71.291l0.079,17.217 M72.199-31.861l-0.05-9.05 M96.328-27.21l0.049,9.05 M78.256-43.936v17.817
				 M84.313-40.45v20.073 M90.37-36.96v17.817 M53.991-46.336l-0.035,8.469 M59.947-43.694l-0.035,8.469 M48.037-50.297
				l-0.036,8.469 M110.447-5.321c-1.324-0.823-2.42-1.963-3.19-3.316l-15.452-26.02c-0.77-1.353-1.867-2.493-3.19-3.316l-8.522-4.91
				c-0.922-0.654-2.114-0.794-3.164-0.374L61.253-35.2c-1.036,0.418-2.213,0.284-3.129-0.354l-8.317-4.712
				c-1.331-0.816-2.434-1.953-3.209-3.307L30.957-69.725c-0.769-1.34-1.859-2.469-3.173-3.286l-8.331-4.803
				c-0.924-0.657-2.121-0.796-3.172-0.369l-15.657,8.14"/>
		</g>
		<g id="Path_10_" transform="translate(7.891156, 93.702970)" class="st19">
			
				<linearGradient id="SVGID_7_" gradientUnits="userSpaceOnUse" x1="-163.0993" y1="415.2533" x2="-162.0993" y2="415.2533" gradientTransform="matrix(94.7097 0 0 -55.0611 15447.1992 22810.0098)">
				<stop  offset="0" style="stop-color:#258EA8"/>
				<stop  offset="1" style="stop-color:#258EA8"/>
			</linearGradient>
			<polygon class="st20" points="94.833,-43.292 67.026,-26.774 0.123,-65.318 27.93,-81.835 			"/>
		</g>
		<g id="Path_11_" transform="translate(7.891156, 100.789750)">
			
				<linearGradient id="SVGID_8_" gradientUnits="userSpaceOnUse" x1="-161.2606" y1="406.4237" x2="-160.2606" y2="406.4237" gradientTransform="matrix(28.5107 0 0 -25.8628 4664.6597 10464.4443)">
				<stop  offset="0" style="stop-color:#258EA8;stop-opacity:0.2"/>
				<stop  offset="0.751" style="stop-color:#258EA8;stop-opacity:0.05"/>
				<stop  offset="1" style="stop-color:#258EA8;stop-opacity:0"/>
			</linearGradient>
			<polygon class="st21" points="95.511,-59.745 95.484,-50.4 67,-33.882 67.026,-43.227 			"/>
			
				<linearGradient id="SVGID_9_" gradientUnits="userSpaceOnUse" x1="-162.7706" y1="407.9353" x2="-161.7706" y2="407.9353" gradientTransform="matrix(66.9296 0 0 -47.8885 10894.2705 19477.5898)">
				<stop  offset="0" style="stop-color:#258EA8;stop-opacity:0.2"/>
				<stop  offset="0.751" style="stop-color:#258EA8;stop-opacity:0.05"/>
				<stop  offset="1" style="stop-color:#258EA8;stop-opacity:0"/>
			</linearGradient>
			<polygon class="st22" points="67.026,-43.227 67,-33.882 0.096,-72.426 0.123,-81.771 			"/>
		</g>
		<g id="Path_12_" transform="translate(7.891156, 110.238789)">
			
				<linearGradient id="SVGID_10_" gradientUnits="userSpaceOnUse" x1="-161.2606" y1="396.9747" x2="-160.2606" y2="396.9747" gradientTransform="matrix(28.5107 0 0 -25.8636 4664.6597 10220.2979)">
				<stop  offset="0" style="stop-color:#258EA8;stop-opacity:0.2"/>
				<stop  offset="0.751" style="stop-color:#258EA8;stop-opacity:0.05"/>
				<stop  offset="1" style="stop-color:#258EA8;stop-opacity:0"/>
			</linearGradient>
			<polygon class="st23" points="95.511,-59.828 95.484,-50.482 67,-33.964 67.026,-43.31 			"/>
			
				<linearGradient id="SVGID_11_" gradientUnits="userSpaceOnUse" x1="-162.7706" y1="398.4863" x2="-161.7706" y2="398.4863" gradientTransform="matrix(66.9296 0 0 -47.8893 10894.2705 19025.3223)">
				<stop  offset="0" style="stop-color:#258EA8;stop-opacity:0.2"/>
				<stop  offset="0.751" style="stop-color:#258EA8;stop-opacity:0.05"/>
				<stop  offset="1" style="stop-color:#258EA8;stop-opacity:0"/>
			</linearGradient>
			<polygon class="st24" points="67.026,-43.31 67,-33.964 0.096,-72.508 0.123,-81.854 			"/>
		</g>
		
			<linearGradient id="Path_34_" gradientUnits="userSpaceOnUse" x1="-154.9612" y1="509.0011" x2="-154.3064" y2="508.6212" gradientTransform="matrix(86.5826 0 0 -50.3303 13439.8936 25641.0156)">
			<stop  offset="0" style="stop-color:#0F4E61"/>
			<stop  offset="0.421" style="stop-color:#196A80"/>
			<stop  offset="1" style="stop-color:#258EA8"/>
		</linearGradient>
		<polygon id="Path_13_" class="st25" points="94.597,45.775 74.917,57.562 8.014,19.019 27.694,7.232 		"/>
		<g>
			<g id="Path_14_">
				
					<linearGradient id="SVGID_12_" gradientUnits="userSpaceOnUse" x1="-146.0123" y1="486.6649" x2="-145.0123" y2="486.6649" gradientTransform="matrix(7.5092 0 0 -3.5662 1097.1414 1656.0319)">
					<stop  offset="0" style="stop-color:#258EA8;stop-opacity:0.2"/>
					<stop  offset="0.751" style="stop-color:#258EA8;stop-opacity:0.05"/>
					<stop  offset="1" style="stop-color:#258EA8;stop-opacity:0"/>
				</linearGradient>
				<path class="st26" d="M0.702-77.964l5.427-3.15c0.69-0.291,1.482-0.195,2.082,0.25l-5.428,3.15
					C2.184-78.159,1.392-78.254,0.702-77.964L0.702-77.964z"/>
				
					<linearGradient id="SVGID_13_" gradientUnits="userSpaceOnUse" x1="-143.6855" y1="491.7134" x2="-142.6865" y2="491.7134" gradientTransform="matrix(6.0904 0 0 -4.5245 984.6373 2282.9736)">
					<stop  offset="0" style="stop-color:#258EA8;stop-opacity:0.2"/>
					<stop  offset="0.751" style="stop-color:#258EA8;stop-opacity:0.05"/>
					<stop  offset="1" style="stop-color:#258EA8;stop-opacity:0"/>
				</linearGradient>
				<path class="st27" d="M114.965,57.326l-5.428,3.15c0.454-0.304,0.706-0.831,0.657-1.375l5.427-3.15
					C115.671,56.495,115.419,57.022,114.965,57.326z"/>
				
					<linearGradient id="SVGID_14_" gradientUnits="userSpaceOnUse" x1="-154.8202" y1="508.663" x2="-154.8202" y2="509.663" gradientTransform="matrix(110.3192 0 0 -63.5763 17137.5723 32321.6211)">
					<stop  offset="0" style="stop-color:#258EA8;stop-opacity:0.2"/>
					<stop  offset="0.751" style="stop-color:#258EA8;stop-opacity:0.05"/>
					<stop  offset="1" style="stop-color:#258EA8;stop-opacity:0"/>
				</linearGradient>
				<polygon class="st28" points="2.784,-77.713 8.212,-80.861 113.103,-20.431 107.676,-17.284 				"/>
				
					<linearGradient id="SVGID_15_" gradientUnits="userSpaceOnUse" x1="-142.183" y1="508.8706" x2="-142.183" y2="509.8706" gradientTransform="matrix(5.6319 0 0 -75.2616 913.774 38357.5078)">
					<stop  offset="0" style="stop-color:#258EA8;stop-opacity:0.2"/>
					<stop  offset="0.751" style="stop-color:#258EA8;stop-opacity:0.05"/>
					<stop  offset="1" style="stop-color:#258EA8;stop-opacity:0"/>
				</linearGradient>
				<polygon class="st29" points="110.399,-13.017 115.826,-16.163 115.621,55.952 110.194,59.099 				"/>
				
					<linearGradient id="SVGID_16_" gradientUnits="userSpaceOnUse" x1="-146.7984" y1="499.0406" x2="-145.7984" y2="499.0406" gradientTransform="matrix(8.1508 0 0 -7.4175 1304.196 3684.9062)">
					<stop  offset="0" style="stop-color:#258EA8;stop-opacity:0.2"/>
					<stop  offset="0.751" style="stop-color:#258EA8;stop-opacity:0.05"/>
					<stop  offset="1" style="stop-color:#258EA8;stop-opacity:0"/>
				</linearGradient>
				<path class="st30" d="M107.676-17.284l5.428-3.15c1.536,0.91,2.547,2.494,2.723,4.268l-5.428,3.15
					C110.223-14.79,109.212-16.375,107.676-17.284L107.676-17.284z"/>
			</g>
			
				<linearGradient id="Shape_11_" gradientUnits="userSpaceOnUse" x1="-155.1517" y1="510.303" x2="-154.4861" y2="509.4682" gradientTransform="matrix(110.1921 0 0 -138.479 17115.0137 70599.6172)">
				<stop  offset="0" style="stop-color:#258EA8"/>
				<stop  offset="0.579" style="stop-color:#196A80"/>
				<stop  offset="1" style="stop-color:#0F4E61"/>
			</linearGradient>
			<path id="Shape_4_" class="st31" d="M107.511,59.91L2.773-0.431C1.239-1.339,0.227-2.919,0.046-4.69v-71.912
				c0-1.484,1.221-1.984,2.727-1.116l104.738,60.34c1.534,0.908,2.546,2.488,2.727,4.259v71.909
				C110.239,60.277,109.017,60.777,107.511,59.91z M7.13-5.163l96.023,55.319v-62.179L7.13-67.342V-5.163z"/>
		</g>
	</g>
	<g id="Group_3_" transform="translate(43.000000, 416.000000)">
		<g id="Path_15_" transform="translate(0.000000, 4.775872)">
			
				<linearGradient id="SVGID_17_" gradientUnits="userSpaceOnUse" x1="-117.2618" y1="283.6283" x2="-116.2618" y2="283.6283" gradientTransform="matrix(101.6043 0 0 -40.5567 11959.9355 11441.3086)">
				<stop  offset="0" style="stop-color:#258EA8;stop-opacity:0.2"/>
				<stop  offset="0.751" style="stop-color:#258EA8;stop-opacity:0.05"/>
				<stop  offset="1" style="stop-color:#258EA8;stop-opacity:0"/>
			</linearGradient>
			<path class="st32" d="M147.233-52.581l-0.032,11.138c-0.046-8.112-5.782-15.467-15.008-20.793s-21.94-8.626-35.944-8.626
				c-28.005,0-50.71,13.197-50.621,29.419l0.032-11.138c-0.092-16.223,22.614-29.419,50.62-29.419
				c14.003,0,26.717,3.299,35.944,8.625C141.451-68.047,147.187-60.692,147.233-52.581z"/>
			
				<linearGradient id="SVGID_18_" gradientUnits="userSpaceOnUse" x1="-112.5151" y1="283.1366" x2="-111.5151" y2="283.1366" gradientTransform="matrix(13.6739 0 0 -32.85 1576.1008 9264.8936)">
				<stop  offset="0" style="stop-color:#258EA8;stop-opacity:0.2"/>
				<stop  offset="0.751" style="stop-color:#258EA8;stop-opacity:0.05"/>
				<stop  offset="1" style="stop-color:#258EA8;stop-opacity:0"/>
			</linearGradient>
			<path class="st33" d="M51.257-30.867L51.225-19.73c-8.476-5.897-13.596-13.467-13.642-21.713l0.031-11.137
				C37.657-44.335,42.777-36.765,51.257-30.867z"/>
			
				<linearGradient id="SVGID_19_" gradientUnits="userSpaceOnUse" x1="-117.2204" y1="283.8445" x2="-116.2204" y2="283.8445" gradientTransform="matrix(96.2081 0 0 -45.2211 11336.627 12805.7998)">
				<stop  offset="0" style="stop-color:#258EA8;stop-opacity:0.2"/>
				<stop  offset="0.751" style="stop-color:#258EA8;stop-opacity:0.05"/>
				<stop  offset="1" style="stop-color:#258EA8;stop-opacity:0"/>
			</linearGradient>
			<path class="st34" d="M155.284-52.581l-0.032,11.138c0.106,18.791-26.205,34.083-58.645,34.083
				c-14.233,0-27.318-2.945-37.531-7.835l0.032-11.137c10.213,4.893,23.297,7.834,37.531,7.834
				C129.078-18.498,155.39-33.789,155.284-52.581z"/>
			
				<linearGradient id="SVGID_20_" gradientUnits="userSpaceOnUse" x1="-116.7205" y1="283.6318" x2="-115.7205" y2="283.6318" gradientTransform="matrix(58.6146 0 0 -40.6244 6842.0176 11516.3506)">
				<stop  offset="0" style="stop-color:#258EA8;stop-opacity:0.2"/>
				<stop  offset="0.751" style="stop-color:#258EA8;stop-opacity:0.05"/>
				<stop  offset="1" style="stop-color:#258EA8;stop-opacity:0"/>
			</linearGradient>
			<path class="st35" d="M9.987,2.215c-2.458,1.251-5.367,1.251-7.825,0c-0.92-0.409-1.547-1.283-1.637-2.286L0.493,11.067
				c0.091,1.003,0.717,1.877,1.637,2.286c2.458,1.251,5.367,1.251,7.825,0l49.12-28.549l0.032-11.137L9.987,2.215z"/>
		</g>
		<g id="Clipped" transform="translate(39.000000, 0.795979)">
			<g id="Oval_2_" transform="translate(57.272557, 33.615012) rotate(-89.689000) translate(-57.272557, -33.615012) ">
			</g>
			<defs>
				<filter id="Adobe_OpacityMaskFilter" filterUnits="userSpaceOnUse" x="-55.088" y="-115.138" width="201.093" height="117.788">
					<feColorMatrix  type="matrix" values="1 0 0 0 0  0 1 0 0 0  0 0 1 0 0  0 0 0 1 0"/>
				</filter>
			</defs>
			<mask maskUnits="userSpaceOnUse" x="-55.088" y="-115.138" width="201.093" height="117.788" id="mask-36_1_">
				<g class="st36">
					<ellipse id="path-35_1_" class="st37" cx="57.273" cy="-48.385" rx="32.739" ry="56.703"/>
				</g>
			</mask>
			<g id="Group_2_" class="st38">
				<g id="Shape_5_" transform="translate(-54.918367, -31.839145)">
					
						<linearGradient id="SVGID_21_" gradientUnits="userSpaceOnUse" x1="-101.5847" y1="321.1501" x2="-100.6876" y2="320.8523" gradientTransform="matrix(195.6304 0 0 -112.4837 19895.8477 36060.3203)">
						<stop  offset="0" style="stop-color:#FAFBFD;stop-opacity:0"/>
						<stop  offset="0.245" style="stop-color:#FAFBFD"/>
						<stop  offset="0.759" style="stop-color:#FAFBFD"/>
						<stop  offset="1" style="stop-color:#FAFBFD;stop-opacity:0"/>
					</linearGradient>
					<path class="st39" d="M24.55-77.06L0.58-63.22 M191.521,19.35l-23.97,13.84 M33.471-62.885l-10.84,6.181 M33.523-53.213
						l10.84-6.181 M77.363-40.034l-10.371,5.822 M72.5-27.606l10.84-6.181 M55.396-56.141l-20.672,11.88 M66.423-52.884
						L42.502-38.921 M72.058-46.518L51.576-34.756 M115.675-23.702L95.041-11.788 M116.96-5.041l10.841-6.181 M160.798,8.141
						l-10.84,6.181 M166.775,14.391L138.828-7.965L118.145,4.106 M149.857-4.71l-23.97,13.842 M155.495,1.658l-20.492,11.952
						 M108.086-28.829l-23.97,13.84 M20.688-79.294l9.662,5.579c1.626,0.939,2.566,2.202,2.627,3.526l1.055,24.267
						c0.057,1.324,0.997,2.587,2.627,3.525l11.461,6.619c1.879,1.002,3.977,1.522,6.106,1.512l41.989,0.608
						c2.149-0.01,4.265,0.521,6.155,1.543l11.351,6.655c1.592,0.934,2.512,2.179,2.575,3.484l1.165,24.234
						c0.063,1.319,1.002,2.577,2.627,3.512l11.724,6.766c1.893,1.009,4.009,1.529,6.154,1.512l41.701,0.478
						c2.146-0.016,4.261,0.503,6.155,1.512l10.392,6"/>
					
						<linearGradient id="SVGID_22_" gradientUnits="userSpaceOnUse" x1="-101.6282" y1="320.9661" x2="-100.7273" y2="320.6645" gradientTransform="matrix(194.8106 0 0 -112.9494 19816.9434 36207.5703)">
						<stop  offset="0" style="stop-color:#FAFBFD;stop-opacity:0"/>
						<stop  offset="0.529" style="stop-color:#FAFBFD;stop-opacity:0.6"/>
						<stop  offset="0.664" style="stop-color:#FAFBFD;stop-opacity:0.442"/>
						<stop  offset="0.966" style="stop-color:#FAFBFD;stop-opacity:0.046"/>
						<stop  offset="1" style="stop-color:#FAFBFD;stop-opacity:0"/>
					</linearGradient>
					<path class="st40" d="M33.199-82L9.233-68.16 M38.841-75.632L17.564-63.348 M200.173,14.41l-23.97,13.84 M44.48-69.264
						l-10.705,6.26 M39.82-56.717l10.705-6.259 M84.06-43.924l-10.705,6.26 M94.885-40.472l-10.705,6.26 M66.736-62.635L45.46-50.35
						 M75.068-57.823l-23.97,13.839 M82.529-52.628L62.125-40.728 M123.251-8.542l10.705-6.259 M167.491,4.251l-10.705,6.26
						 M178.317,7.702l-10.705,6.26 M150.168-14.46L128.892-2.175 M158.5-9.649l-23.97,13.84 M166.833-4.837L145.557,7.448
						 M116.737-33.764l-23.97,13.84 M180.884,30.949l-10.392-6c-1.638-0.946-2.58-2.22-2.627-3.553l-0.821-24.078
						c-0.045-1.333-0.986-2.608-2.627-3.553l-11.724-6.766c-1.871-0.999-3.961-1.519-6.082-1.512l-41.97-0.673
						c-2.102,0.004-4.174-0.507-6.034-1.487l-11.526-6.554c-1.656-0.941-2.615-2.216-2.673-3.553l-1.054-24.245
						c-0.057-1.324-0.997-2.586-2.627-3.525l-11.461-6.619c-1.879-1.002-3.977-1.522-6.106-1.512l-42.028-0.609
						c-2.13,0.01-4.228-0.51-6.107-1.512l-9.662-5.579"/>
					
						<linearGradient id="SVGID_23_" gradientUnits="userSpaceOnUse" x1="-98.8494" y1="317.3862" x2="-99.8614" y2="317.0488" gradientTransform="matrix(33.3183 0 0 -19.2379 3406.3862 6069.3696)">
						<stop  offset="0" style="stop-color:#37B14A"/>
						<stop  offset="1" style="stop-color:#37B14A;stop-opacity:0"/>
					</linearGradient>
					<path class="st41" d="M108.273-38.036L80.202-21.824 M108.273-38.033c1.365,0.687,2.976,0.682,4.337-0.014
						c1.204-0.696,1.215-1.816,0.024-2.504c-1.365-0.687-2.976-0.682-4.337,0.014c-1.204,0.693-1.215,1.813-0.024,2.501V-38.033z"/>
					
						<linearGradient id="SVGID_24_" gradientUnits="userSpaceOnUse" x1="-98.8495" y1="317.3862" x2="-99.8615" y2="317.0489" gradientTransform="matrix(33.3186 0 0 -19.2382 3437.2642 6089.7539)">
						<stop  offset="0" style="stop-color:#37B14A"/>
						<stop  offset="1" style="stop-color:#37B14A;stop-opacity:0"/>
					</linearGradient>
					<path class="st42" d="M139.121-17.741L111.05-1.533 M139.121-17.741c1.365,0.687,2.976,0.682,4.337-0.014
						c1.204-0.695,1.215-1.816,0.024-2.503c-1.365-0.687-2.976-0.682-4.337,0.014C137.941-19.551,137.933-18.429,139.121-17.741z"/>
					
						<linearGradient id="SVGID_25_" gradientUnits="userSpaceOnUse" x1="-99.8124" y1="316.8633" x2="-98.8004" y2="317.2006" gradientTransform="matrix(33.3195 0 0 -19.2379 3406.542 6087.9556)">
						<stop  offset="0" style="stop-color:#37B14A"/>
						<stop  offset="1" style="stop-color:#37B14A;stop-opacity:0"/>
					</linearGradient>
					<path class="st43" d="M85.482-6.265l28.073-16.209 M85.482-6.265c-1.365-0.687-2.976-0.682-4.337,0.014
						c-1.203,0.696-1.215,1.816-0.023,2.504c1.365,0.687,2.976,0.682,4.337-0.014C86.659-4.457,86.67-5.577,85.482-6.265z"/>
				</g>
			</g>
		</g>
		
			<linearGradient id="Shape_12_" gradientUnits="userSpaceOnUse" x1="-117.3149" y1="289.6494" x2="-116.9322" y2="289.4284" gradientTransform="matrix(154.9749 0 0 -89.4783 18212.4336 25871.4668)">
			<stop  offset="0" style="stop-color:#258EA8"/>
			<stop  offset="0.579" style="stop-color:#196A80"/>
			<stop  offset="1" style="stop-color:#0F4E61"/>
		</linearGradient>
		<path id="Shape_6_" class="st44" d="M155.374-47.588c-0.102-18.757-26.614-34.068-59.101-34.124
			c-32.487-0.056-58.833,15.153-58.732,33.909c0.045,8.229,5.173,15.793,13.658,21.698L2.011,2.296
			c-2.158,1.246-2.149,3.272,0.025,4.526c2.461,1.254,5.373,1.26,7.838,0.014l49.188-28.402c10.227,4.899,23.328,7.86,37.579,7.886
			C129.128-13.62,155.475-28.829,155.374-47.588z M45.603-47.787c-0.087-16.189,22.654-29.32,50.695-29.269
			c28.041,0.051,50.924,13.264,51.013,29.451c0.088,16.188-22.654,29.32-50.695,29.27c-28.04-0.05-50.925-13.262-51.01-29.452
			H45.603z"/>
	</g>
	<g id="Group_4_" transform="translate(80.000000, 82.000000)">
		<g id="Path_16_" transform="translate(0.790919, 4.781140)">
			
				<linearGradient id="SVGID_26_" gradientUnits="userSpaceOnUse" x1="-155.0457" y1="617.5031" x2="-154.0457" y2="617.5031" gradientTransform="matrix(100.6367 0 0 -38.3614 15610.749 23625.6641)">
				<stop  offset="0" style="stop-color:#258EA8;stop-opacity:0.2"/>
				<stop  offset="0.751" style="stop-color:#258EA8;stop-opacity:0.05"/>
				<stop  offset="1" style="stop-color:#258EA8;stop-opacity:0"/>
			</linearGradient>
			<path class="st45" d="M93.277-73.198c-19.688-11.452-51.619-11.45-71.175,0C12.383-67.508,7.518-60.044,7.497-52.57
				c-0.008,2.658-0.017,6.202-0.025,8.859c0.021-7.475,4.887-14.937,14.605-20.627c19.555-11.45,51.489-11.452,71.175,0
				c9.905,5.761,14.853,13.343,14.832,20.914l0.025-8.859C108.13-59.855,103.182-67.436,93.277-73.198z"/>
			
				<linearGradient id="SVGID_27_" gradientUnits="userSpaceOnUse" x1="-155.143" y1="617.7925" x2="-154.143" y2="617.7925" gradientTransform="matrix(115.7574 0 0 -44.1251 17959.3516 27229.2715)">
				<stop  offset="0" style="stop-color:#258EA8;stop-opacity:0.2"/>
				<stop  offset="0.751" style="stop-color:#258EA8;stop-opacity:0.05"/>
				<stop  offset="1" style="stop-color:#258EA8;stop-opacity:0"/>
			</linearGradient>
			<path class="st46" d="M116.15-52.639l-0.028,10.19c-0.024,8.596-5.616,17.179-16.793,23.722
				c-22.499,13.174-59.234,13.174-81.875,0C6.058-25.355,0.369-34.074,0.392-42.781l0.029-10.19
				c-0.026,8.71,5.669,17.428,17.058,24.058c22.642,13.17,59.375,13.17,81.874,0C110.532-35.464,116.126-44.043,116.15-52.639z"/>
		</g>
		<g id="Path_17_" transform="translate(31.636757, 17.530847)" class="st19">
			
				<linearGradient id="SVGID_28_" gradientUnits="userSpaceOnUse" x1="-181.0177" y1="599.5051" x2="-180.0177" y2="599.5051" gradientTransform="matrix(13.3473 0 0 -11.3879 2452.2444 6750.832)">
				<stop  offset="0" style="stop-color:#258EA8"/>
				<stop  offset="1" style="stop-color:#258EA8;stop-opacity:0"/>
			</linearGradient>
			<path class="st47" d="M42.926-71.666l-6.406-7.35c-0.87-0.993-0.18-2.21,1.521-2.709s3.796-0.091,4.666,0.902l6.406,7.35
				c0.87,0.992,0.18,2.21-1.521,2.709C45.891-70.264,43.792-70.673,42.926-71.666z"/>
			
				<linearGradient id="SVGID_29_" gradientUnits="userSpaceOnUse" x1="-183.0352" y1="591.5972" x2="-182.0352" y2="591.5972" gradientTransform="matrix(20.8246 0 0 -5.5296 3813.7332 3196.0698)">
				<stop  offset="0" style="stop-color:#258EA8"/>
				<stop  offset="1" style="stop-color:#258EA8;stop-opacity:0"/>
			</linearGradient>
			<path class="st48" d="M20.11-73.965L6.225-72.471c-1.876,0.202-3.701-0.526-4.058-1.618c-0.357-1.092,0.881-2.152,2.757-2.351
				l13.885-1.493c1.876-0.202,3.701,0.527,4.059,1.618C23.226-75.224,21.984-74.167,20.11-73.965z"/>
			
				<linearGradient id="SVGID_30_" gradientUnits="userSpaceOnUse" x1="-182.0467" y1="598.5791" x2="-181.0467" y2="598.5791" gradientTransform="matrix(16.3395 0 0 -10.1311 3003.2461 6011.8276)">
				<stop  offset="0" style="stop-color:#258EA8"/>
				<stop  offset="1" style="stop-color:#258EA8;stop-opacity:0"/>
			</linearGradient>
			<path class="st49" d="M29.564-50.714l9.412-6.099c1.516-0.83,3.335-0.884,4.897-0.144c1.424,0.743,1.549,2.026,0.279,2.849
				l-9.412,6.1c-1.517,0.83-3.335,0.884-4.897,0.144C28.421-48.612,28.294-49.887,29.564-50.714z"/>
			
				<linearGradient id="SVGID_31_" gradientUnits="userSpaceOnUse" x1="-183.0437" y1="591.4095" x2="-182.0437" y2="591.4095" gradientTransform="matrix(20.8736 0 0 -5.4629 3858.6123 3166.8279)">
				<stop  offset="0" style="stop-color:#258EA8"/>
				<stop  offset="1" style="stop-color:#258EA8;stop-opacity:0"/>
			</linearGradient>
			<path class="st50" d="M54.652-61.257L40.72-62.683c-1.883-0.193-3.164-1.245-2.839-2.338c0.325-1.092,2.12-1.833,4.001-1.637
				l13.933,1.426c1.883,0.192,3.164,1.245,2.839,2.337C58.329-61.801,56.535-61.063,54.652-61.257z"/>
			
				<linearGradient id="SVGID_32_" gradientUnits="userSpaceOnUse" x1="-176.1857" y1="600.0342" x2="-175.1857" y2="600.0342" gradientTransform="matrix(7.1763 0 0 -12.2568 1284.0253 7290.4233)">
				<stop  offset="0" style="stop-color:#258EA8"/>
				<stop  offset="1" style="stop-color:#258EA8;stop-opacity:0"/>
			</linearGradient>
			<path class="st51" d="M19.66-60.03l0.237-8.221c0.032-1.11,1.621-1.997,3.527-1.971c1.907,0.026,3.444,0.956,3.41,2.065
				l-0.237,8.22c-0.032,1.11-1.621,1.998-3.527,1.971C21.163-57.993,19.626-58.921,19.66-60.03z"/>
			
				<linearGradient id="SVGID_33_" gradientUnits="userSpaceOnUse" x1="-182.2131" y1="598.3501" x2="-181.2131" y2="598.3501" gradientTransform="matrix(16.9543 0 0 -9.8619 3089.6658 5845.5034)">
				<stop  offset="0" style="stop-color:#258EA8"/>
				<stop  offset="1" style="stop-color:#258EA8;stop-opacity:0"/>
			</linearGradient>
			<path class="st52" d="M11.422-51.013L1.395-56.846c-1.353-0.787-1.36-2.072-0.016-2.854c1.543-0.781,3.363-0.778,4.904,0.009
				l10.027,5.832c1.353,0.787,1.36,2.072,0.015,2.854C14.782-50.223,12.963-50.227,11.422-51.013z"/>
		</g>
		<g id="Path_18_" transform="translate(31.636757, 14.343420)">
			<path class="st53" d="M42.926-71.215l-6.406-7.35c-0.87-0.992-0.18-2.21,1.521-2.709s3.796-0.091,4.666,0.902l6.406,7.35
				c0.87,0.992,0.18,2.21-1.521,2.709C45.891-69.813,43.792-70.222,42.926-71.215z"/>
			<path class="st53" d="M20.11-73.513L6.225-72.019c-1.876,0.202-3.701-0.526-4.058-1.618s0.881-2.152,2.757-2.351l13.885-1.493
				c1.876-0.202,3.701,0.526,4.059,1.618C23.226-74.771,21.984-73.713,20.11-73.513z"/>
			<path class="st53" d="M29.564-50.262l9.412-6.099c1.516-0.83,3.335-0.884,4.897-0.144c1.424,0.743,1.549,2.026,0.279,2.849
				l-9.412,6.1c-1.517,0.83-3.335,0.884-4.897,0.144C28.421-48.156,28.294-49.439,29.564-50.262z"/>
			<path class="st53" d="M54.652-60.804L40.72-62.229c-1.883-0.193-3.164-1.245-2.839-2.338c0.325-1.092,2.12-1.833,4.001-1.637
				l13.933,1.426c1.883,0.193,3.164,1.245,2.839,2.338C58.329-61.348,56.535-60.611,54.652-60.804z"/>
			<path class="st53" d="M19.66-59.578l0.237-8.221c0.032-1.11,1.621-1.998,3.527-1.971c1.907,0.027,3.444,0.956,3.41,2.064
				l-0.237,8.221c-0.032,1.11-1.621,1.998-3.527,1.971C21.163-57.541,19.626-58.47,19.66-59.578z"/>
			<path class="st53" d="M11.422-50.562L1.395-56.394c-1.353-0.787-1.36-2.072-0.016-2.854c1.544-0.781,3.363-0.777,4.904,0.01
				l10.027,5.832c1.353,0.787,1.36,2.072,0.015,2.854C14.782-49.772,12.963-49.775,11.422-50.562L11.422-50.562z"/>
		</g>
		
			<linearGradient id="Shape_13_" gradientUnits="userSpaceOnUse" x1="-154.1428" y1="623.4095" x2="-153.5635" y2="623.07" gradientTransform="matrix(115.9507 0 0 -67.4478 17898.1309 41988.2812)">
			<stop  offset="0" style="stop-color:#258EA8"/>
			<stop  offset="0.579" style="stop-color:#196A80"/>
			<stop  offset="1" style="stop-color:#0F4E61"/>
		</linearGradient>
		<path id="Shape_7_" class="st54" d="M17.868-24.069c-22.686-13.196-22.801-34.6-0.256-47.714s59.342-13.047,82.027,0.149
			s22.801,34.601,0.257,47.714S40.554-10.869,17.868-24.069z M93.796-68.235c-19.445-11.311-50.983-11.368-70.307-0.128
			s-19.224,29.586,0.22,40.896s50.984,11.368,70.307,0.128s19.225-29.583-0.219-40.893L93.796-68.235z"/>
	</g>
	
		<linearGradient id="Path_35_" gradientUnits="userSpaceOnUse" x1="-72.5263" y1="702.3043" x2="-72.5263" y2="703.3043" gradientTransform="matrix(38 0 0 -23 2896 16276)">
		<stop  offset="0" style="stop-color:#0F4E61"/>
		<stop  offset="0.435" style="stop-color:#0F4E61;stop-opacity:0.59"/>
		<stop  offset="1" style="stop-color:#0F4E61;stop-opacity:0"/>
	</linearGradient>
	<polygon id="Path_19_" class="st55" points="140,123 121,103.781 124.738,100 140,115.438 155.261,100 159,103.781 	"/>
	
		<linearGradient id="Path_36_" gradientUnits="userSpaceOnUse" x1="-72.5263" y1="701.015" x2="-72.5263" y2="702.015" gradientTransform="matrix(38 0 0 -23 2896 16463)">
		<stop  offset="0" style="stop-color:#0F4E61"/>
		<stop  offset="0.435" style="stop-color:#0F4E61;stop-opacity:0.59"/>
		<stop  offset="1" style="stop-color:#0F4E61;stop-opacity:0"/>
	</linearGradient>
	<polygon id="Path_20_" class="st56" points="140,310 121,290.781 124.738,287 140,302.438 155.261,287 159,290.781 	"/>
	
		<linearGradient id="Path_37_" gradientUnits="userSpaceOnUse" x1="-72.5263" y1="701.015" x2="-72.5263" y2="702.015" gradientTransform="matrix(38 0 0 -23 2896 16618)">
		<stop  offset="0" style="stop-color:#0F4E61"/>
		<stop  offset="0.435" style="stop-color:#0F4E61;stop-opacity:0.59"/>
		<stop  offset="1" style="stop-color:#0F4E61;stop-opacity:0"/>
	</linearGradient>
	<polygon id="Path_21_" class="st57" points="140,465 121,445.781 124.738,442 140,457.438 155.261,442 159,445.781 	"/>
	
		<linearGradient id="Path_38_" gradientUnits="userSpaceOnUse" x1="-74.1591" y1="706.8791" x2="-74.1591" y2="705.8791" gradientTransform="matrix(220.0002 0 0 -702.9999 16447.0117 496853.9688)">
		<stop  offset="0.2" style="stop-color:#37B14A;stop-opacity:0"/>
		<stop  offset="0.999" style="stop-color:#37B14A;stop-opacity:0.25"/>
	</linearGradient>
	<path id="Path_22_" class="st58" d="M242-81.364l-0.534,639.351c-0.046,16.103-10.669,32.183-31.89,44.47
		c-42.701,24.725-112.182,24.725-155.178-0.008C32.759,590.002,21.953,573.664,22,557.351L22.534-82
		c-0.047,16.308,10.759,32.651,32.397,45.098c42.996,24.733,112.477,24.733,155.178,0.008C231.331-49.179,241.954-65.259,242-81.364
		z"/>
	<g id="Group_5_" transform="translate(0.000000, 93.000000)">
		<ellipse id="Oval_3_" class="st59" cx="21.5" cy="-61" rx="21.109" ry="21"/>
		<path id="Path_23_" class="st7" d="M20.843-63.515h-3.219v-2.483c1.993-0.065,3.613-1.002,3.987-3.027h2.933v15.048h-3.702
			V-63.515z"/>
	</g>
	<g id="Group_6_" transform="translate(0.000000, 263.000000)">
		<circle id="Oval_4_" class="st59" cx="21.5" cy="-60.577" r="21.109"/>
		<path id="Path_24_" class="st7" d="M18.27-58.727c1.357-1.16,3.109-2.255,4.291-3.306c0.593-0.44,0.955-1.124,0.985-1.861
			c0.046-0.53-0.144-1.053-0.52-1.428c-0.376-0.376-0.899-0.566-1.428-0.52c-0.617-0.041-1.217,0.21-1.62,0.679
			c-0.486,0.631-0.727,1.416-0.678,2.211h-3.459c-0.105-1.35,0.258-2.695,1.029-3.809c0.854-1.226,2.474-2.058,4.816-2.058
			c3.611,0,5.56,2.145,5.56,4.794c0,2.08-1.161,3.284-2.496,4.313c-1.336,1.095-2.956,2.014-4.007,3.127v0.022h6.523v3.043H15.622
			C15.621-55.579,16.606-57.515,18.27-58.727z"/>
	</g>
	<g id="Group_7_" transform="translate(0.000000, 433.000000)">
		<circle id="Oval_5_" class="st59" cx="21.5" cy="-60.264" r="21.109"/>
		<path id="Path_25_" class="st7" d="M16.913-54.297c-1.132-1.052-1.74-2.55-1.663-4.094h3.48c0.088,1.598,0.876,2.714,2.759,2.714
			c1.51,0,2.345-0.832,2.345-2.08c0-1.313-0.919-1.969-2.562-1.969h-0.896v-2.562h0.809c1.4,0,2.32-0.612,2.32-1.75
			c0-1.029-0.722-1.707-1.971-1.707c-0.631-0.048-1.252,0.175-1.708,0.614c-0.456,0.439-0.702,1.051-0.678,1.684h-3.44
			c0.066-2.977,2.145-5.056,5.864-5.056c3.306,0,5.56,1.575,5.56,4.222c-0.007,1.394-0.932,2.616-2.271,3.001v0.045
			c1.677,0.403,2.823,1.953,2.715,3.675c0,3.217-2.781,4.707-5.932,4.707C19.518-52.852,17.965-53.356,16.913-54.297z"/>
	</g>
	<g id="Group_8_" transform="translate(0.000000, 604.000000)">
		<circle id="Oval_6_" class="st59" cx="21.5" cy="-60.732" r="21.109"/>
		<path id="Shape_8_" class="st7" d="M22.157-56.998h-6.983v-3.393l6.939-8.429h3.635v9.024h2.164v2.802h-2.166v3.327h-3.588
			V-56.998z M22.157-59.8v-5.145h-0.045l-4.159,5.101v0.045H22.157z"/>
	</g>
</g>
</svg>
