<svg width="1354" height="309" viewBox="0 0 1354 309" fill="none" xmlns="http://www.w3.org/2000/svg">
<g clip-path="url(#clip0)">
<rect width="1354" height="309" fill="white"/>
<path fill-rule="evenodd" clip-rule="evenodd" d="M168.5 188.5L196 193L179.5 119.5L168.5 188.5Z" fill="#050C63"/>
<path fill-rule="evenodd" clip-rule="evenodd" d="M301.633 48.9319L385.5 64.4999L340 112L301.633 48.9319Z" fill="#7EA5D0"/>
<path fill-rule="evenodd" clip-rule="evenodd" d="M275 181L271 260L361.5 213L275 181Z" fill="#516CA7"/>
<path fill-rule="evenodd" clip-rule="evenodd" d="M275 181L340 112L361.5 213L275 181Z" fill="#5875AE"/>
<path fill-rule="evenodd" clip-rule="evenodd" d="M302 49L340 112L235 102L302 49Z" fill="#4962A0"/>
<path fill-rule="evenodd" clip-rule="evenodd" d="M235 102L275 181L340 112L235 102Z" fill="#425999"/>
<path fill-rule="evenodd" clip-rule="evenodd" d="M410.5 143.5L361.5 213L340 112L410.5 143.5Z" fill="#6788BB"/>
<path fill-rule="evenodd" clip-rule="evenodd" d="M235 102L275 181.004L196 193L235 102Z" fill="#3A4F92"/>
<path fill-rule="evenodd" clip-rule="evenodd" d="M385.5 64.5003L410.5 143.5L340 112L385.5 64.5003Z" fill="#86AFD6"/>
<path fill-rule="evenodd" clip-rule="evenodd" d="M385.5 64.5L429 130L410.563 143.698L385.5 64.5Z" fill="#9CCBEB"/>
<path fill-rule="evenodd" clip-rule="evenodd" d="M429 130L416.5 217L410.5 143.5L429 130Z" fill="#A4D5F1"/>
<path fill-rule="evenodd" clip-rule="evenodd" d="M349 269L271 260L361.5 213L349 269Z" fill="#607FB4"/>
<path fill-rule="evenodd" clip-rule="evenodd" d="M410.5 143.5L416.5 217L361.5 213L410.5 143.5Z" fill="#7EA5D0"/>
<path fill-rule="evenodd" clip-rule="evenodd" d="M361.5 213L349 269L416.5 217L361.5 213Z" fill="#769BC9"/>
<path fill-rule="evenodd" clip-rule="evenodd" d="M196 193L271 260L275 181L196 193Z" fill="#4962A0"/>
<path fill-rule="evenodd" clip-rule="evenodd" d="M196 193L211.5 252L271 260L196 193Z" fill="#32458C"/>
<path fill-rule="evenodd" clip-rule="evenodd" d="M227.5 49.5L235 102L302 49L227.5 49.5Z" fill="#1C2977"/>
<path fill-rule="evenodd" clip-rule="evenodd" d="M316.173 31.4071L227.884 49.5722L302 49L316.173 31.4071Z" fill="#425999"/>
<path fill-rule="evenodd" clip-rule="evenodd" d="M316 31.5L385.5 64.5L302 49.0001L316 31.5Z" fill="#6F92C2"/>
<path fill-rule="evenodd" clip-rule="evenodd" d="M227.5 49.5L179.5 119.5L235 102L227.5 49.5Z" fill="#141F71"/>
<path fill-rule="evenodd" clip-rule="evenodd" d="M168.5 188.5L196 193L211.5 252L168.5 188.5Z" fill="#1C2977"/>
<path fill-rule="evenodd" clip-rule="evenodd" d="M271 260L211.5 252L282 286.5L271 260Z" fill="#516CA7"/>
<path fill-rule="evenodd" clip-rule="evenodd" d="M282 286.5L349.442 268.752L271 260L282 286.5Z" fill="#5875AE"/>
<path fill-rule="evenodd" clip-rule="evenodd" d="M179.5 119.5L196 193L235 102L179.5 119.5Z" fill="#1C2977"/>
<path d="M599.245 170.8H530.445C531.112 179.733 533.979 187.067 539.045 192.8C544.112 198.533 552.112 201.4 563.045 201.4C568.779 201.4 573.712 200.6 577.845 199C582.112 197.4 586.912 195.333 592.245 192.8L598.245 206.8C593.445 209.733 588.045 212.267 582.045 214.4C576.179 216.4 569.845 217.4 563.045 217.4C551.579 217.4 541.912 215.267 534.045 211C526.179 206.733 520.245 200.8 516.245 193.2C512.379 185.467 510.445 176.533 510.445 166.4C510.445 156.267 512.312 147.4 516.045 139.8C519.779 132.2 525.112 126.267 532.045 122C538.979 117.6 547.245 115.4 556.845 115.4C566.979 115.4 575.112 117.867 581.245 122.8C587.512 127.733 592.045 134.267 594.845 142.4C597.779 150.533 599.245 159.333 599.245 168.8V170.8ZM530.845 157.8H580.645C579.445 149.8 576.912 143.467 573.045 138.8C569.179 134.133 563.579 131.8 556.245 131.8C548.779 131.8 542.912 134.2 538.645 139C534.379 143.667 531.779 149.933 530.845 157.8ZM636.427 215H617.227V118H630.627L634.027 130.8C638.96 126.267 644.693 122.467 651.227 119.4C657.893 116.333 664.493 114.8 671.027 114.8C682.093 114.8 690.027 118.267 694.827 125.2C699.76 132 702.227 140.6 702.227 151V215H683.027V152.8C683.027 146.267 681.893 141.067 679.627 137.2C677.493 133.2 673.293 131.2 667.027 131.2C662.093 131.2 656.893 132.733 651.427 135.8C646.093 138.867 641.093 142.467 636.427 146.6V215ZM720.23 208.8L726.23 195.4C730.363 197.4 734.63 199 739.03 200.2C743.43 201.4 747.83 202 752.23 202C758.63 202 763.696 200.867 767.43 198.6C771.296 196.333 773.23 193.333 773.23 189.6C773.23 185.867 771.163 182.667 767.03 180C763.03 177.2 757.896 174.8 751.63 172.8C746.563 171.067 741.563 168.933 736.63 166.4C731.83 163.867 727.83 160.733 724.63 157C721.43 153.267 719.83 148.8 719.83 143.6C719.83 134.8 723.096 127.933 729.63 123C736.296 117.933 745.296 115.4 756.63 115.4C759.43 115.4 762.696 115.8 766.43 116.6C770.296 117.267 774.163 118.267 778.03 119.6C781.896 120.933 785.163 122.6 787.83 124.6L781.83 137.6C778.096 135.867 774.163 134.333 770.03 133C766.03 131.667 761.43 131 756.23 131C751.163 131 746.963 132.2 743.63 134.6C740.43 136.867 738.83 139.733 738.83 143.2C738.963 146.133 740.83 148.733 744.43 151C748.163 153.133 752.963 155.2 758.83 157.2C764.163 159.067 769.296 161.467 774.23 164.4C779.296 167.2 783.43 170.6 786.63 174.6C789.963 178.6 791.63 183.267 791.63 188.6C791.63 197.667 788.23 204.8 781.43 210C774.763 215.067 765.03 217.6 752.23 217.6C749.563 217.6 746.23 217.267 742.23 216.6C738.23 215.933 734.23 214.933 730.23 213.6C726.363 212.267 723.03 210.667 720.23 208.8ZM819.009 100.6C815.676 100.6 812.876 99.4667 810.609 97.2C808.343 94.8 807.209 91.9333 807.209 88.6C807.209 85.2667 808.343 82.4667 810.609 80.2C812.876 77.8 815.676 76.6 819.009 76.6C822.343 76.6 825.209 77.8 827.609 80.2C830.009 82.4667 831.209 85.2667 831.209 88.6C831.209 91.9333 830.009 94.8 827.609 97.2C825.209 99.4667 822.343 100.6 819.009 100.6ZM829.009 215H809.609V118H829.009V215ZM874.169 215H854.969V76L874.169 73.8V215ZM909.634 100.6C906.301 100.6 903.501 99.4667 901.234 97.2C898.968 94.8 897.834 91.9333 897.834 88.6C897.834 85.2667 898.968 82.4667 901.234 80.2C903.501 77.8 906.301 76.6 909.634 76.6C912.968 76.6 915.834 77.8 918.234 80.2C920.634 82.4667 921.834 85.2667 921.834 88.6C921.834 91.9333 920.634 94.8 918.234 97.2C915.834 99.4667 912.968 100.6 909.634 100.6ZM919.634 215H900.234V118H919.634V215ZM1012.99 194.6L1018.79 208.4C1015.99 210.267 1012.53 211.933 1008.39 213.4C1004.26 214.733 1000.13 215.733 995.994 216.4C991.994 217.2 988.594 217.6 985.794 217.6C975.927 217.6 967.327 215.467 959.994 211.2C952.794 206.8 947.26 200.8 943.394 193.2C939.527 185.467 937.594 176.533 937.594 166.4C937.727 156.267 939.727 147.4 943.594 139.8C947.594 132.2 953.26 126.267 960.594 122C967.927 117.6 976.594 115.4 986.594 115.4C989.26 115.4 992.594 115.8 996.594 116.6C1000.59 117.267 1004.66 118.333 1008.79 119.8C1012.93 121.133 1016.39 122.8 1019.19 124.8L1013.59 138.4C1009.46 136.667 1005.33 135.133 1001.19 133.8C997.06 132.467 992.127 131.8 986.394 131.8C980.394 131.8 975.194 133.333 970.794 136.4C966.527 139.467 963.194 143.6 960.794 148.8C958.527 154 957.327 159.8 957.194 166.2C957.194 176.333 959.66 184.733 964.594 191.4C969.527 197.933 976.594 201.2 985.794 201.2C991.66 201.2 996.594 200.6 1000.59 199.4C1004.73 198.2 1008.86 196.6 1012.99 194.6ZM1044.97 139.2L1039.57 124C1042.1 122.267 1045.43 120.8 1049.57 119.6C1053.7 118.267 1057.9 117.267 1062.17 116.6C1066.43 115.8 1069.9 115.4 1072.57 115.4C1080.03 115.4 1086.7 116.933 1092.57 120C1098.57 122.933 1103.23 127 1106.57 132.2C1110.03 137.267 1111.77 142.933 1111.77 149.2V215H1098.37L1095.97 205.8C1092.63 208.733 1088.37 211.4 1083.17 213.8C1077.97 216.2 1072.77 217.4 1067.57 217.4C1056.1 217.4 1047.57 214.533 1041.97 208.8C1036.5 203.067 1033.77 195.8 1033.77 187C1033.77 177.267 1037.03 169.867 1043.57 164.8C1050.23 159.6 1058.83 157 1069.37 157H1092.37V156C1092.37 149.333 1091.03 143.8 1088.37 139.4C1085.7 134.867 1080.57 132.6 1072.97 132.6C1067.23 132.6 1062.03 133.333 1057.37 134.8C1052.7 136.133 1048.57 137.6 1044.97 139.2ZM1050.97 187C1050.97 190.733 1052.3 194.2 1054.97 197.4C1057.63 200.6 1061.7 202.2 1067.17 202.2C1072.1 202.2 1076.7 201 1080.97 198.6C1085.37 196.2 1089.23 193.133 1092.57 189.4V169.8H1068.97C1063.1 169.8 1058.63 171.533 1055.57 175C1052.5 178.467 1050.97 182.467 1050.97 187Z" fill="white"/>
</g>
<defs>
<clipPath id="clip0">
<rect width="1354" height="309" fill="white"/>
</clipPath>
</defs>
</svg>
