<?xml version="1.0" encoding="UTF-8"?><svg xmlns="http://www.w3.org/2000/svg" width="43" height="35" viewBox="0 0 43 35"><defs><clipPath id="1nyya"><path d="M0 9.08h42.855v25.503H0z"/></clipPath><clipPath id="1nyyb"><path d="M0 34.587h43V0H0z"/></clipPath></defs><g><g><g><g/><g clip-path="url(#1nyya)"><path fill="#37b14a" d="M21.427 34.583c-11.309 0-20.18-11.159-20.55-11.634L0 21.83l.876-1.118c.372-.476 9.242-11.632 20.551-11.632 11.31 0 20.18 11.158 20.553 11.634l.875 1.118-.875 1.118c-.373.476-9.244 11.633-20.553 11.633M4.658 21.83c2.43 2.662 9.134 9.142 16.77 9.142 7.66 0 14.347-6.478 16.771-9.138-2.43-2.66-9.135-9.142-16.772-9.142-7.635 0-14.338 6.478-16.769 9.138"/></g></g><g><path fill="#37b14a" d="M21.036 29.911c-4.381 0-7.946-3.564-7.946-7.946 0-4.38 3.565-7.945 7.946-7.945 4.382 0 7.945 3.564 7.945 7.945 0 4.382-3.563 7.946-7.945 7.946m0-12.271a4.33 4.33 0 0 0-4.326 4.325 4.331 4.331 0 0 0 4.326 4.327 4.331 4.331 0 0 0 4.325-4.327 4.33 4.33 0 0 0-4.325-4.325"/></g><g/><g clip-path="url(#1nyyb)"><path fill="#37b14a" d="M19.63 7.478h3.74V0h-3.74z"/></g><g clip-path="url(#1nyyb)"><path fill="#37b14a" d="M34.915 11.213l-3.135-1.75L35.189 2.8l3.134 1.75z"/></g><g clip-path="url(#1nyyb)"><path fill="#37b14a" d="M8.078 11.213L4.67 4.55 7.805 2.8l3.408 6.663z"/></g></g></g></svg>