<?xml version="1.0" encoding="UTF-8"?><svg xmlns="http://www.w3.org/2000/svg" width="41" height="40" viewBox="0 0 41 40"><defs><clipPath id="fe32a"><path d="M0 39.217h41V0H0z"/></clipPath></defs><g><g><g><path fill="#37b14a" d="M4.58 32.98c-2.526 0-4.58-2-4.58-4.457V10.697C0 8.239 2.054 6.24 4.58 6.24h31.84c1.222 0 2.372.463 3.236 1.304A4.37 4.37 0 0 1 41 10.695c0 1.25-.544 2.448-1.49 3.291L21.273 31.482a5.385 5.385 0 0 1-3.752 1.497zM4.582 9.21c-.842 0-1.527.666-1.527 1.486v17.826c0 .819.685 1.485 1.527 1.485h12.944a2.31 2.31 0 0 0 1.61-.642l18.282-17.534c.358-.32.54-.72.54-1.136 0-.397-.16-.77-.45-1.05a1.54 1.54 0 0 0-1.078-.435z"/></g><g/><g clip-path="url(#fe32a)"><path fill="#37b14a" d="M6.24 15.154h2.674V12.48H6.24z"/></g><g clip-path="url(#fe32a)"><path fill="#37b14a" d="M12.48 15.154h2.674V12.48H12.48z"/></g><g clip-path="url(#fe32a)"><path fill="#37b14a" d="M6.24 21.394h2.674V18.72H6.24z"/></g><g clip-path="url(#fe32a)"><path fill="#37b14a" d="M12.48 21.394h2.674V18.72H12.48z"/></g><g clip-path="url(#fe32a)"><path fill="#37b14a" d="M6.24 26.744h2.674V24.07H6.24z"/></g><g clip-path="url(#fe32a)"><path fill="#37b14a" d="M12.48 26.744h2.674V24.07H12.48z"/></g><g clip-path="url(#fe32a)"><path fill="#37b14a" d="M18.72 15.154h2.674V12.48H18.72z"/></g><g clip-path="url(#fe32a)"><path fill="#37b14a" d="M18.72 21.394h2.674V18.72H18.72z"/></g><g clip-path="url(#fe32a)"><path fill="#37b14a" d="M8.91 7.13h2.674V0H8.91z"/></g><g clip-path="url(#fe32a)"><path fill="#37b14a" d="M15.15 7.13h2.674V0H15.15z"/></g><g clip-path="url(#fe32a)"><path fill="#37b14a" d="M8.91 39.22h2.674v-7.13H8.91z"/></g><g clip-path="url(#fe32a)"><path fill="#37b14a" d="M15.15 39.22h2.674v-7.13H15.15z"/></g><g clip-path="url(#fe32a)"><path fill="#37b14a" d="M24.07 24.957h2.674V6.24H24.07z"/></g></g></g></svg>