<?xml version="1.0" encoding="UTF-8"?><svg xmlns="http://www.w3.org/2000/svg" width="40" height="41" viewBox="0 0 40 41"><defs><clipPath id="f1b7a"><path d="M11.49 0h16.222v9.755H11.49z"/></clipPath><clipPath id="f1b7b"><path d="M12.51 33.61h16.07v7.393H12.51z"/></clipPath></defs><g><g><g><g/><g clip-path="url(#f1b7a)"><path fill="#3fbc5c" d="M24.083 9.755c-.375 0-.756-.055-1.132-.174L13.984 6.76a3.557 3.557 0 0 1-2.104-1.732 3.306 3.306 0 0 1-.206-2.645c.625-1.815 2.68-2.807 4.579-2.207l8.968 2.822c1.898.598 2.934 2.562 2.31 4.377-.503 1.456-1.925 2.381-3.448 2.381m-8.964-7.257c-.425 0-.82.258-.961.664a.924.924 0 0 0 .058.739.99.99 0 0 0 .586.483l8.968 2.825c.526.165 1.102-.11 1.277-.616.174-.506-.115-1.054-.644-1.22l-8.968-2.826a1.045 1.045 0 0 0-.316-.05"/></g></g><g><path fill="#3fbc5c" d="M3.454 27a3.335 3.335 0 0 1-1.947-.63A3.606 3.606 0 0 1 .06 24.053a3.72 3.72 0 0 1 .544-2.707l5.083-7.773c1.077-1.646 3.234-2.068 4.807-.943 1.574 1.125 1.979 3.379.902 5.024l-5.084 7.774A3.417 3.417 0 0 1 3.454 27m5.09-12.394a.952.952 0 0 0-.796.438L2.663 22.81a1.035 1.035 0 0 0 .252 1.398.941.941 0 0 0 1.34-.262l5.083-7.766a1.035 1.035 0 0 0-.25-1.398.928.928 0 0 0-.543-.176"/></g><g><path fill="#3fbc5c" d="M33.764 34.11c-.744-.62-1.182-1.473-1.236-2.4l-.522-9.046c-.054-.928.283-1.818.951-2.51a3.827 3.827 0 0 1 2.581-1.149c2.054-.102 3.824 1.37 3.934 3.285l.522 9.046c.054.927-.283 1.819-.95 2.51A3.83 3.83 0 0 1 36.256 35a3.87 3.87 0 0 1-2.492-.89zm1.457-2.535a.934.934 0 0 0 .345.668c.206.173.467.266.751.247.278-.014.534-.127.72-.32a.92.92 0 0 0 .264-.7l-.522-9.045c-.03-.534-.533-.935-1.096-.915a1.067 1.067 0 0 0-.72.32.92.92 0 0 0-.263.7z"/></g><g><path fill="#3fbc5c" d="M27.637 18c-1.147 0-2.276-.51-2.982-1.46-1.143-1.54-.751-3.677.874-4.765l7.74-5.15c1.64-1.09 3.91-.718 5.066.828.56.749.776 1.658.611 2.56-.166.903-.694 1.691-1.488 2.219l-7.737 5.147a3.778 3.778 0 0 1-2.084.621m7.725-9.527c-.201 0-.405.056-.582.175l-7.736 5.154a.925.925 0 0 0-.241 1.328c.32.431.952.537 1.41.234l7.734-5.152a.947.947 0 0 0 .415-.62.91.91 0 0 0-.17-.714 1.033 1.033 0 0 0-.83-.405"/></g><g><path fill="#3fbc5c" d="M22.075 28.316l-6.44-6.545a2.192 2.192 0 0 1 .065-3.15 2.32 2.32 0 0 1 3.225.063l6.439 6.545a2.191 2.191 0 0 1-.065 3.15 2.32 2.32 0 0 1-3.224-.063"/></g><g><path fill="#3fbc5c" d="M23.322 31c-.967 0-1.932-.37-2.654-1.108l-6.643-6.781a3.567 3.567 0 0 1 .104-5.105 3.734 3.734 0 0 1 5.203.101l6.644 6.783a3.567 3.567 0 0 1-.105 5.105A3.704 3.704 0 0 1 23.322 31M16.68 19.604c-.257 0-.513.093-.712.28a.996.996 0 0 0-.03 1.424l6.652 6.79c.392.4 1.043.413 1.451.028a.991.991 0 0 0 .03-1.424l-6.65-6.79a1.033 1.033 0 0 0-.741-.308"/></g><g><g/><g clip-path="url(#f1b7b)"><path fill="#3fbc5c" d="M15.998 41.003a3.374 3.374 0 0 1-2.47-1.087A3.785 3.785 0 0 1 12.51 37.3c.003-2.031 1.567-3.687 3.486-3.69h9.097c.934.001 1.81.387 2.469 1.087.659.7 1.02 1.628 1.018 2.616-.003 2.032-1.566 3.687-3.486 3.69zm0-4.726c-.533 0-.969.462-.97 1.028 0 .275.1.534.284.729a.94.94 0 0 0 .687.303h9.092c.534-.001.97-.463.97-1.028.001-.276-.1-.535-.283-.73a.941.941 0 0 0-.687-.302z"/></g></g></g></g></svg>