<?xml version="1.0" encoding="UTF-8"?><svg xmlns="http://www.w3.org/2000/svg" width="29" height="41" viewBox="0 0 29 41"><defs><clipPath id="wf5qa"><path d="M0 .65h28.44v28.34H0z"/></clipPath></defs><g><g><g><g/><g clip-path="url(#wf5qa)"><path fill="#3fbc5c" d="M0 22.17C0 10.294 9.68.66 21.581.652c3.664-.095 6.757 2.965 6.858 6.817v.073c-.102 3.857-3.205 6.91-6.876 6.817-4.329 0-7.877 3.488-7.877 7.776-.1 3.882-3.159 6.914-6.843 6.853l-.142.002C3.088 28.99.098 25.967 0 22.17zM21.596 3.29c-10.518 0-19.075 8.45-19.075 18.837.063 2.37 2.005 4.262 4.289 4.216l.033-.001.032.001c2.282.039 4.227-1.846 4.29-4.252 0-5.702 4.68-10.371 10.431-10.371 2.307.056 4.24-1.827 4.321-4.215-.08-2.39-2.02-4.293-4.288-4.215z"/></g></g><g><path fill="#3fbc5c" d="M19.424 41c-.005-.504-.183-4.923-5.073-4.93-3.312-.004-5.664-1.016-6.991-3.009C6.156 31.255 5.997 28.984 6 27l2.576.004c-.002 1.594.106 3.388.925 4.617.831 1.25 2.42 1.857 4.854 1.86 3.938.006 5.824 2.08 6.712 3.817.91 1.781.933 3.509.933 3.7l-2.576-.004 1.288.001z"/></g></g></g></svg>