<?xml version="1.0" encoding="UTF-8"?><svg xmlns="http://www.w3.org/2000/svg" width="44" height="44" viewBox="0 0 44 44"><defs><clipPath id="s4jma"><path d="M0 44h44V0H0z"/></clipPath></defs><g><g><g><path fill="#37b14a" d="M22.458 38.497c-9.35 0-16.958-7.607-16.958-16.959 0-9.35 7.608-16.958 16.958-16.958 9.352 0 16.959 7.608 16.959 16.958 0 9.352-7.607 16.959-16.959 16.959m0-30.968c-7.725 0-14.009 6.284-14.009 14.01 0 7.724 6.284 14.008 14.01 14.008 7.724 0 14.008-6.284 14.008-14.009 0-7.725-6.284-14.009-14.009-14.009"/></g><g><path fill="#37b14a" d="M22.458 38.497c-9.35 0-16.958-7.607-16.958-16.959 0-9.35 7.608-16.958 16.958-16.958 9.352 0 16.959 7.608 16.959 16.958 0 9.352-7.607 16.959-16.959 16.959m0-30.968c-7.725 0-14.009 6.284-14.009 14.01 0 7.724 6.284 14.008 14.01 14.008 7.724 0 14.008-6.284 14.008-14.009 0-7.725-6.284-14.009-14.009-14.009"/></g><g/><g clip-path="url(#s4jma)"><path fill="#37b14a" d="M21.08 30.25h2.75v-5.5h-2.75z"/></g><g clip-path="url(#s4jma)"><path fill="#37b14a" d="M21.08 19.25h2.75v-5.5h-2.75z"/></g><g clip-path="url(#s4jma)"><path fill="#37b14a" d="M21.08 33.92h2.75v-2.75h-2.75z"/></g><g clip-path="url(#s4jma)"><path fill="#37b14a" d="M21.08 43.997h2.75V40.33h-2.75z"/></g><g clip-path="url(#s4jma)"><path fill="#37b14a" d="M21.08 3.667h2.75V0h-2.75z"/></g><g clip-path="url(#s4jma)"><path fill="#37b14a" d="M21.08 11.92h2.75V9.17h-2.75z"/></g><g clip-path="url(#s4jma)"><path fill="#37b14a" d="M13.75 22.92h3.667v-2.75H13.75z"/></g><g clip-path="url(#s4jma)"><path fill="#37b14a" d="M10.08 22.92h2.75v-2.75h-2.75z"/></g><g clip-path="url(#s4jma)"><path fill="#37b14a" d="M0 22.92h3.667v-2.75H0z"/></g><g clip-path="url(#s4jma)"><path fill="#37b14a" d="M40.33 22.92h3.667v-2.75H40.33z"/></g><g clip-path="url(#s4jma)"><path fill="#37b14a" d="M32.08 22.92h2.75v-2.75h-2.75z"/></g><g clip-path="url(#s4jma)"><path fill="#37b14a" d="M26.58 22.92h3.667v-2.75H26.58z"/></g><g clip-path="url(#s4jma)"><path fill="#37b14a" d="M21.997 22l-6.417-6.188 2.139-2.062 4.278 4.125 4.278-4.125 2.138 2.062z"/></g><g clip-path="url(#s4jma)"><path fill="#37b14a" d="M26.275 30.25l-4.278-4.125-4.278 4.125-2.139-2.062L21.997 22l6.416 6.188z"/></g></g></g></svg>