<?xml version="1.0" encoding="UTF-8"?><svg xmlns="http://www.w3.org/2000/svg" width="37" height="45" viewBox="0 0 37 45"><defs><clipPath id="n7u4a"><path d="M0 44.4h37V0H0z"/></clipPath></defs><g><g><g><path fill="#37b14a" d="M18.04 36.075l-2.724-6.315c-.845-1.955-2.813-3.111-4.894-2.882l-6.721.745 3.991-5.562a4.943 4.943 0 0 0 0-5.767L3.7 10.726l6.719.746c2.086.23 4.05-.927 4.895-2.883l2.877-6.739 2.601 6.796a4.736 4.736 0 0 0 4.872 2.826l6.721-.746-3.994 5.566a4.943 4.943 0 0 0 0 5.766l3.992 5.565-6.72-.745c-2.087-.229-4.05.928-4.894 2.883zm-.181-7.461l.178.415.18-.414c1.336-3.095 4.448-4.93 7.738-4.56l.444.049-.264-.369a7.823 7.823 0 0 1 0-9.12l.263-.369-.442.05c-3.3.366-6.403-1.467-7.739-4.561l-.17-.445-.188.44c-1.338 3.098-4.452 4.929-7.741 4.566l-.444-.05.265.371a7.825 7.825 0 0 1 0 9.121l-.262.366.443-.05a7.64 7.64 0 0 1 .831-.045c2.975 0 5.684 1.774 6.908 4.605z"/></g><g/><g clip-path="url(#n7u4a)"><path fill="#37b14a" d="M16.65 7.4h2.775V0H16.65z"/></g><g clip-path="url(#n7u4a)"><path fill="#37b14a" d="M16.65 44.4h2.775V31.45H16.65z"/></g><g clip-path="url(#n7u4a)"><path fill="#37b14a" d="M18.042 22.215a4.17 4.17 0 0 1-4.162-4.167 4.17 4.17 0 0 1 4.162-4.168 4.17 4.17 0 0 1 4.163 4.168 4.17 4.17 0 0 1-4.163 4.167m0-5.56a1.39 1.39 0 0 0-1.39 1.387 1.39 1.39 0 0 0 2.781 0 1.39 1.39 0 0 0-1.39-1.387"/></g><g clip-path="url(#n7u4a)"><path fill="#37b14a" d="M29.19 14.8l-1.44-2.51 7.81-4.89L37 9.91z"/></g><g clip-path="url(#n7u4a)"><path fill="#37b14a" d="M1.44 31.45L0 28.94l7.81-4.89 1.44 2.509z"/></g><g clip-path="url(#n7u4a)"><path fill="#37b14a" d="M7.83 14.8L0 9.938 1.42 7.4l7.83 4.862z"/></g><g clip-path="url(#n7u4a)"><path fill="#37b14a" d="M35.58 31.45l-7.83-4.862 1.42-2.538L37 28.912z"/></g></g></g></svg>