<?xml version="1.0" encoding="UTF-8"?><svg xmlns="http://www.w3.org/2000/svg" width="32" height="32" viewBox="0 0 32 32"><defs><clipPath id="voyka"><path d="M0 10.46h31.247v11.853H0z"/></clipPath></defs><g><g><g><path fill="#3fbc5c" d="M8.004 7.687L2.447 2.13 1.37 3.207l5.557 5.557H3.432v1.524h6.096V4.192H8.004z"/></g><g><path fill="#3fbc5c" d="M29.878 29.56l-5.557-5.556h3.494V22.48H21.72v6.095h1.524v-3.494l5.556 5.557z"/></g><g><g><path fill="#0e2c40" d="M10.777 32.007L9.7 30.929l4.682-4.682a4.364 4.364 0 0 0 1.253-3.651l-.413-3.307 1.511-.189.414 3.307a5.88 5.88 0 0 1-1.687 4.918z"/></g><g><path fill="#0e2c40" d="M14.529 13.731l-.422-3.371a5.88 5.88 0 0 1 1.687-4.918L20.477.76l1.077 1.077-4.682 4.682a4.366 4.366 0 0 0-1.253 3.652l.421 3.371z"/></g><g><g/><g clip-path="url(#voyka)"><path fill="#0e2c40" d="M1.077 22.313L0 21.236l4.682-4.683A5.95 5.95 0 0 1 9.6 14.866l12.236 1.53c1.337.17 2.7-.302 3.651-1.253l4.683-4.683 1.077 1.077-4.682 4.683a5.955 5.955 0 0 1-4.918 1.688l-12.236-1.53A4.423 4.423 0 0 0 5.76 17.63z"/></g></g><g><path fill="#0e2c40" d="M25.323 11L18.32 3.998l1.077-1.077 7.004 7.003z"/></g><g><path fill="#0e2c40" d="M22.623 13.69L15.62 6.688l1.077-1.077 7.004 7.003z"/></g><g><path fill="#0e2c40" d="M11.853 29.85L4.85 22.848l1.077-1.077 7.004 7.003z"/></g><g><path fill="#0e2c40" d="M14.543 27.16L7.54 20.158l1.077-1.077 7.004 7.003z"/></g></g></g></g></svg>