<?xml version="1.0" encoding="UTF-8"?><svg xmlns="http://www.w3.org/2000/svg" width="41" height="38" viewBox="0 0 41 38"><g><g><g><path fill="#37b14a" d="M35.684 14.522L29.04 7.878l1.898-1.898 6.644 6.644z"/></g><g><path fill="#37b14a" d="M22.452 14.592L33.095 3.937l1.412 1.416-10.015 9.979v19.456H22.42zM33.097 0L19.688 13.424l-.038 24.16h7.608V16.5L38.442 5.36z"/></g><g><path fill="#37b14a" d="M34.255 5.417l2.751 2.752-7.487 7.487-2.752-2.752L24.77 14.9l4.749 4.748 11.48-11.48-4.748-4.749z"/></g><g><path fill="#37b14a" d="M6.168 14.522L4.27 12.624l6.644-6.644 1.898 1.898z"/></g><g><path fill="#37b14a" d="M17.37 15.332L7.353 5.353l1.413-1.416L19.41 14.591l.031 20.196H17.37zM8.765 0L3.42 5.36 14.603 16.5v21.083h7.609l-.038-24.159z"/></g><g><path fill="#37b14a" d="M0 8.169l11.481 11.48L16.23 14.9l-1.995-1.996-2.753 2.752L3.993 8.17l2.752-2.753L4.75 3.42z"/></g></g></g></svg>