<?xml version="1.0" encoding="UTF-8"?><svg xmlns="http://www.w3.org/2000/svg" width="39" height="36" viewBox="0 0 39 36"><defs><clipPath id="1ckta"><path d="M27.65 0h11.463v36H27.65z"/></clipPath></defs><g><g><g><path fill="#3fbc5c" d="M1 15h9v-3H1z"/></g><g><path fill="#3fbc5c" d="M1 24h9v-3H1z"/></g><g><path fill="#3fbc5c" d="M1 21h9v-3H1z"/></g><g><path fill="#3fbc5c" d="M29 24h9v-3h-9z"/></g><g><path fill="#3fbc5c" d="M29 15h9v-3h-9z"/></g><g><path fill="#3fbc5c" d="M29 18h9v-3h-9z"/></g><g><path fill="#3fbc5c" d="M26 24h-4.53l-4.42-8.333H14V13h4.53l4.42 8.333H26z"/></g><g><g><path fill="#3fbc5c" d="M5.732 36C2.572 36 0 33.458 0 30.333V5.667C0 2.542 2.571 0 5.732 0c3.16 0 5.732 2.542 5.732 5.667v24.666c0 3.125-2.572 5.667-5.732 5.667m0-33.333c-1.673 0-3.035 1.345-3.035 2.999v24.658c0 1.654 1.362 3 3.035 3s3.034-1.346 3.034-3V5.666c0-1.654-1.361-3-3.034-3"/></g><g><g/><g clip-path="url(#1ckta)"><path fill="#3fbc5c" d="M33.382 36c-3.16 0-5.732-2.542-5.732-5.667V5.667C27.65 2.542 30.221 0 33.382 0c3.16 0 5.732 2.542 5.732 5.667v24.666c0 3.125-2.572 5.667-5.732 5.667m0-33.333c-1.673 0-3.035 1.345-3.035 2.999v24.658c0 1.654 1.362 3 3.035 3s3.034-1.346 3.034-3V5.666c0-1.654-1.361-3-3.034-3"/></g></g></g></g></g></svg>