<?xml version="1.0" encoding="UTF-8"?>
<svg width="26px" height="26px" viewBox="0 0 26 26" version="1.1" xmlns="http://www.w3.org/2000/svg" xmlns:xlink="http://www.w3.org/1999/xlink">
    <!-- Generator: Sketch 54.1 (76490) - https://sketchapp.com -->
    <title>defend-your-industry</title>
    <desc>Created with Sketch.</desc>
    <g id="Page-1" stroke="none" stroke-width="1" fill="none" fill-rule="evenodd">
        <g id="Diagnostics-v15" transform="translate(-179.000000, -1062.000000)" fill-rule="nonzero">
            <g id="Group-6" transform="translate(130.000000, 995.000000)">
                <g id="defend-your-industry" transform="translate(49.000000, 67.000000)">
                    <circle id="Oval" fill="#FFFFFF" cx="4.0625" cy="4.0625" r="3.25"></circle>
                    <path d="M4.0625,8.125 C1.8188432,8.125 9.02056208e-16,6.3061568 7.21644966e-16,4.0625 C5.41233725e-16,1.8188432 1.8188432,1.08246745e-15 4.0625,7.21644966e-16 C6.3061568,3.60822483e-16 8.125,1.8188432 8.125,4.0625 C8.125,6.3061568 6.3061568,8.125 4.0625,8.125 Z M4.0625,1.625 C2.71630592,1.625 1.625,2.71630592 1.625,4.0625 C1.625,5.40869408 2.71630592,6.5 4.0625,6.5 C5.40869408,6.5 6.5,5.40869408 6.5,4.0625 C6.5,3.41603481 6.2431927,2.79604714 5.78607278,2.33892722 C5.32895286,1.8818073 4.70896519,1.625 4.0625,1.625 Z" id="Shape" fill="#0E2C40"></path>
                    <circle id="Oval" fill="#FFFFFF" cx="21.9375" cy="4.0625" r="3.25"></circle>
                    <path d="M21.9375,8.125 C19.6938432,8.125 17.875,6.3061568 17.875,4.0625 C17.875,1.8188432 19.6938432,1.08246745e-15 21.9375,7.21644966e-16 C24.1811568,3.60822483e-16 26,1.8188432 26,4.0625 C26,6.3061568 24.1811568,8.125 21.9375,8.125 L21.9375,8.125 Z M21.9375,1.625 C20.5913059,1.625 19.5,2.71630592 19.5,4.0625 C19.5,5.40869408 20.5913059,6.5 21.9375,6.5 C23.2836941,6.5 24.375,5.40869408 24.375,4.0625 C24.375,3.41603481 24.1181927,2.79604714 23.6610728,2.33892722 C23.2039529,1.8818073 22.5839652,1.625 21.9375,1.625 L21.9375,1.625 Z" id="Shape" fill="#0E2C40"></path>
                    <circle id="Oval" fill="#FFFFFF" cx="4.0625" cy="21.9375" r="3.25"></circle>
                    <path d="M4.0625,26 C1.8188432,26 9.02056208e-16,24.1811568 7.21644966e-16,21.9375 C5.41233725e-16,19.6938432 1.8188432,17.875 4.0625,17.875 C6.3061568,17.875 8.125,19.6938432 8.125,21.9375 C8.125,24.1811568 6.3061568,26 4.0625,26 L4.0625,26 Z M4.0625,19.5 C2.71630592,19.5 1.625,20.5913059 1.625,21.9375 C1.625,23.2836941 2.71630592,24.375 4.0625,24.375 C5.40869408,24.375 6.5,23.2836941 6.5,21.9375 C6.5,20.5913059 5.40869408,19.5 4.0625,19.5 L4.0625,19.5 Z" id="Shape" fill="#0E2C40"></path>
                    <circle id="Oval" fill="#FFFFFF" cx="21.9375" cy="21.9375" r="3.25"></circle>
                    <path d="M21.9375,26 C19.6938432,26 17.875,24.1811568 17.875,21.9375 C17.875,19.6938432 19.6938432,17.875 21.9375,17.875 C24.1811568,17.875 26,19.6938432 26,21.9375 C26,24.1811568 24.1811568,26 21.9375,26 L21.9375,26 Z M21.9375,19.5 C20.5913059,19.5 19.5,20.5913059 19.5,21.9375 C19.5,23.2836941 20.5913059,24.375 21.9375,24.375 C23.2836941,24.375 24.375,23.2836941 24.375,21.9375 C24.375,20.5913059 23.2836941,19.5 21.9375,19.5 L21.9375,19.5 Z" id="Shape" fill="#0E2C40"></path>
                    <rect id="Rectangle" fill="#0E2C40" x="9.75" y="3.25" width="2.4375" height="1.625"></rect>
                    <rect id="Rectangle" fill="#0E2C40" x="13.8125" y="3.25" width="2.4375" height="1.625"></rect>
                    <rect id="Rectangle" fill="#0E2C40" x="9.75" y="21.125" width="2.4375" height="1.625"></rect>
                    <rect id="Rectangle" fill="#0E2C40" x="13.8125" y="21.125" width="2.4375" height="1.625"></rect>
                    <rect id="Rectangle" fill="#0E2C40" x="21.125" y="9.75" width="1.625" height="2.4375"></rect>
                    <rect id="Rectangle" fill="#0E2C40" x="21.125" y="13.8125" width="1.625" height="2.4375"></rect>
                    <rect id="Rectangle" fill="#0E2C40" x="3.25" y="9.75" width="1.625" height="2.4375"></rect>
                    <rect id="Rectangle" fill="#0E2C40" x="3.25" y="13.8125" width="1.625" height="2.4375"></rect>
                    <polygon id="Path" fill="#3FBC5C" points="11.643125 16.615625 8.3525 13.154375 9.5225 12.033125 11.643125 14.259375 16.4775 9.189375 17.6475 10.310625"></polygon>
                </g>
            </g>
        </g>
    </g>
</svg>