<?xml version="1.0" encoding="UTF-8"?><svg xmlns="http://www.w3.org/2000/svg" width="43" height="33" viewBox="0 0 43 33"><defs><clipPath id="6h82a"><path d="M.01.54h42.876v11.568H.01z"/></clipPath></defs><g><g><g><g/><g clip-path="url(#6h82a)"><path fill="#37b14a" d="M.782 12.109L.01 9.165c2.42-.6 4.23-1.878 6.325-3.357C9.83 3.338 13.79.54 21.445.54c7.69 0 11.69 2.819 15.217 5.305 2.075 1.464 3.868 2.728 6.224 3.322l-.784 2.94c-2.93-.738-5.14-2.296-7.278-3.803-3.296-2.324-6.703-4.726-13.379-4.726-6.637 0-10.01 2.383-13.27 4.686-2.16 1.525-4.39 3.101-7.393 3.845"/></g></g><g><path fill="#37b14a" d="M.078 17.757L0 14.587c2.576-.066 4.434-1.367 6.788-3.015C9.989 9.33 13.974 6.54 21.032 6.54c7.083 0 11.1 2.804 14.33 5.056 2.343 1.635 4.193 2.926 6.703 2.99l-.08 3.171c-3.433-.088-5.839-1.767-8.388-3.545-3.17-2.212-6.45-4.5-12.565-4.5-6.088 0-9.335 2.273-12.475 4.472-2.56 1.792-4.976 3.485-8.479 3.573"/></g><g><path fill="#37b14a" d="M21.503 32.722c-7.714 0-11.723-2.96-15.26-5.573C4.16 25.611 2.363 24.285 0 23.66l.788-3.087c2.936.774 5.153 2.411 7.297 3.994 3.305 2.441 6.723 4.965 13.418 4.965 6.656 0 10.039-2.503 13.31-4.923 2.163-1.602 4.402-3.258 7.412-4.038L43 23.662c-2.428.63-4.242 1.972-6.343 3.526-3.506 2.594-7.478 5.534-15.154 5.534"/></g><g><path fill="#37b14a" d="M21.033 26.177c-7.072 0-11.088-2.777-14.315-5.01-2.344-1.621-4.197-2.902-6.718-2.97l.08-3.237c3.42.09 5.823 1.752 8.368 3.512 3.174 2.195 6.456 4.466 12.585 4.466 6.102 0 9.352-2.256 12.496-4.438 2.555-1.774 4.968-3.45 8.458-3.54l.078 3.238c-2.586.067-4.447 1.36-6.803 2.995-3.199 2.22-7.18 4.984-14.229 4.984"/></g></g></g></svg>