<?xml version="1.0" encoding="UTF-8"?><svg xmlns="http://www.w3.org/2000/svg" width="30" height="43" viewBox="0 0 30 43"><defs><clipPath id="38sta"><path d="M0 .58h29.83v41.777H0z"/></clipPath></defs><g><g><g><g/><g clip-path="url(#38sta)"><path fill="#37b14a" d="M14.915 42.357C6.691 42.357 0 35.336 0 26.706c0-6.958 4.51-15.113 13.788-24.933L14.915.58l1.128 1.193c9.277 9.82 13.788 17.976 13.788 24.933 0 8.63-6.692 15.65-14.916 15.65M14.91 5.043C7.057 13.622 3.077 20.905 3.077 26.706c0 6.962 5.308 12.626 11.833 12.626s11.834-5.664 11.834-12.626c0-5.8-3.98-13.085-11.834-21.664"/></g></g><g><path fill="#37b14a" d="M15.442 34.41c-6.569 0-11.912-5.647-11.912-12.588 0-5.533 3.527-11.989 10.782-19.735L15.442.88l1.13 1.207c7.255 7.747 10.782 14.203 10.782 19.735 0 6.941-5.344 12.587-11.912 12.587m0-29.008c-5.859 6.517-8.826 12.037-8.826 16.421 0 5.253 3.96 9.527 8.826 9.527 4.867 0 8.826-4.274 8.826-9.527 0-4.384-2.968-9.903-8.826-16.42"/></g><g><path fill="#37b14a" d="M14.996 27.348c-5.352 0-9.706-4.321-9.706-9.634 0-4.161 2.787-8.989 8.519-14.759l1.187-1.195 1.187 1.195c5.733 5.77 8.519 10.599 8.519 14.759 0 5.313-4.354 9.634-9.706 9.634m0-21.106c-4.292 4.571-6.465 8.426-6.465 11.472 0 3.644 2.9 6.608 6.465 6.608 3.564 0 6.464-2.964 6.464-6.608 0-3.045-2.173-6.9-6.464-11.472"/></g></g></g></svg>