<?xml version="1.0" encoding="UTF-8"?><svg xmlns="http://www.w3.org/2000/svg" width="32" height="32" viewBox="0 0 32 32"><g><g><g><path fill="#3fbc5c" d="M16.5 21a4.505 4.505 0 0 1-4.5-4.5c0-2.482 2.018-4.5 4.5-4.5s4.5 2.018 4.5 4.5-2.018 4.5-4.5 4.5m0-7.5c-1.655 0-3 1.345-3 3s1.345 3 3 3 3-1.345 3-3-1.345-3-3-3"/></g><g><g><path fill="#0e2c40" d="M5.333 1.524V0H0v5.333h1.524V2.601l4.033 4.033 1.077-1.077L2.6 1.524z"/></g><g><path fill="#0e2c40" d="M26.67 0v1.524h2.733L25.37 5.557l1.077 1.077L30.48 2.6v2.732h1.524V0z"/></g><g><path fill="#0e2c40" d="M5.557 25.37l-4.033 4.033V26.67H0v5.333h5.333V30.48H2.601l4.033-4.033z"/></g><g><path fill="#0e2c40" d="M30.48 29.403l-4.033-4.033-1.077 1.077 4.033 4.033H26.67v1.524h5.333V26.67H30.48z"/></g></g><g><path fill="#0e2c40" d="M31 17.263h-2.328c-.381 6.123-5.286 11.027-11.409 11.409V31h-1.526v-2.328C9.614 28.29 4.709 23.386 4.328 17.263H2v-1.526h2.328C4.71 9.613 9.614 4.709 15.737 4.328V2h1.526v2.328c6.123.381 11.028 5.285 11.409 11.409H31zm-13.731 9.892c5.284-.376 9.51-4.602 9.886-9.886h-2.251V15.74h2.251c-.375-5.285-4.602-9.51-9.886-9.886v2.251H15.74V5.855c-5.284.375-9.51 4.601-9.886 9.886h2.251v1.528H5.855c.375 5.284 4.602 9.51 9.886 9.886v-2.251h1.528z"/></g></g></g></svg>