<?xml version="1.0" encoding="UTF-8"?><svg xmlns="http://www.w3.org/2000/svg" width="38" height="41" viewBox="0 0 38 41"><defs><clipPath id="hqfwa"><path d="M0 41h38V0H0z"/></clipPath></defs><g><g><g><path fill="#3fbc5c" d="M23.5 32C15.504 32 9 25.495 9 17.5S15.504 3 23.5 3 38 9.505 38 17.5 31.496 32 23.5 32m-.005-26.263c-6.484 0-11.758 5.274-11.758 11.758 0 6.483 5.274 11.758 11.758 11.758 6.484 0 11.758-5.275 11.758-11.758 0-6.484-5.274-11.758-11.758-11.758"/></g><g><path fill="#3fbc5c" d="M1.927 41L0 39.073 13.073 26 15 27.927z"/></g><g/><g clip-path="url(#hqfwa)"><path fill="#3fbc5c" d="M25 36h3V0h-3z"/></g><g clip-path="url(#hqfwa)"><path fill="#3fbc5c" d="M11 14h11v-3H11z"/></g><g clip-path="url(#hqfwa)"><path fill="#3fbc5c" d="M9 19h13v-3H9z"/></g><g clip-path="url(#hqfwa)"><path fill="#3fbc5c" d="M14.409 24H22v-3H11z"/></g></g></g></svg>