<?xml version="1.0" encoding="UTF-8"?>
<svg width="28px" height="28px" viewBox="0 0 28 28" version="1.1" xmlns="http://www.w3.org/2000/svg" xmlns:xlink="http://www.w3.org/1999/xlink">
    <!-- Generator: Sketch 54.1 (76490) - https://sketchapp.com -->
    <title>save-time</title>
    <desc>Created with Sketch.</desc>
    <g id="Page-1" stroke="none" stroke-width="1" fill="none" fill-rule="evenodd">
        <g id="Diagnostics-v15" transform="translate(-574.000000, -1062.000000)" fill-rule="nonzero">
            <g id="Group-8" transform="translate(530.000000, 996.000000)">
                <g id="save-time" transform="translate(44.000000, 66.000000)">
                    <path d="M23.7423529,3.94470588 C21.0714818,1.36635743 17.4896239,-0.0515846402 13.7776471,9.84455573e-17 C10.267345,0.0529379302 6.90723917,1.43287631 4.37294118,3.86235294 L2.85764706,2.34705882 L1.68823529,7.78235294 L7.12352941,6.58823529 L5.53411765,5.02352941 C7.75900266,2.90565247 10.6981499,1.70060209 13.7694118,1.64705882 L14,1.64705882 C18.9626795,1.64395678 23.4454223,4.61100628 25.3816589,9.18038103 C27.3178955,13.7497558 26.3316737,19.034236 22.8776471,22.5976471 C20.6017836,24.9581623 17.4763316,26.3103502 14.1976471,26.3529412 L14,26.3529412 C11.1404003,26.3525257 8.3695174,25.3600141 6.16,23.5447059 L5.11411765,24.8211765 C7.61890755,26.8772624 10.7594042,28.0007394 14,28 L14.2223529,28 C19.8850639,27.9112347 24.9365154,24.4195294 27.0205662,19.1535151 C29.1046171,13.8875007 27.8107072,7.88458772 23.7423529,3.94470588 Z" id="Path" fill="#0E2C40"></path>
                    <path d="M3.19529412,22.9023529 C2.63702786,22.2282623 2.14347683,21.5031007 1.72117647,20.7364706 L3.16235294,19.9129412 C3.53573494,20.5888725 3.97134698,21.2285053 4.46352941,21.8235294 L3.19529412,22.9023529 Z M0.683529412,18.3317647 C0.414086969,17.4977839 0.223834186,16.6402677 0.115294118,15.7705882 L1.76235294,15.5647059 C1.85837337,16.3310038 2.02657158,17.0865171 2.26470588,17.8211765 L0.683529412,18.3317647 Z M1.64705882,13.2505882 L0,13.1764706 C0.0529579717,12.3010339 0.188061639,11.4325103 0.403529412,10.5823529 L2.00117647,10.9858824 C1.81291975,11.7281198 1.69436616,12.4863114 1.64705882,13.2505882 L1.64705882,13.2505882 Z" id="Shape" fill="#0E2C40"></path>
                    <polygon id="Path" fill="#3FBC5C" points="19.4435294 17.2282353 13.1764706 14.5435294 13.1764706 7.41176471 14.8235294 7.41176471 14.8235294 13.4564706 20.0858824 15.7129412"></polygon>
                </g>
            </g>
        </g>
    </g>
</svg>