<?xml version="1.0" encoding="UTF-8"?><svg xmlns="http://www.w3.org/2000/svg" width="42" height="39" viewBox="0 0 42 39"><g><g><path fill="#37b14a" d="M21.066 38.348L3.479 20.585C-1.159 15.881-1.159 8.23 3.477 3.526a11.796 11.796 0 0 1 16.824 0l.699.709.697-.707a11.797 11.797 0 0 1 16.825 0c4.637 4.702 4.637 12.354 0 17.057zM8.217 21.393L21.16 34.696l12.613-13.06-5.737-.055-2.39-7.885-4.083 12.11-.526.285c-.33.163-.718.186-1.065.06l-.544-.2-.265-.586L15.8 17.44l-1.761 3.953zm8.81-7.057l3.182 7.577 4.27-12.788.646-.257c.726-.243 1.498.16 1.737.898l2.929 9.758 6.332.06.443-.462c3.593-3.744 3.593-9.833.002-13.575-3.592-3.741-9.437-3.742-13.03 0L21 8.191l-2.54-2.646c-3.592-3.741-9.436-3.741-13.028 0-3.59 3.743-3.59 9.832 0 13.575l.191.198h6.713l2.405-5.451.481-.242c.18-.085.368-.126.555-.126.517 0 1.019.31 1.25.837z"/></g></g></svg>