<?xml version="1.0" encoding="UTF-8"?>
<svg width="28px" height="28px" viewBox="0 0 28 28" version="1.1" xmlns="http://www.w3.org/2000/svg" xmlns:xlink="http://www.w3.org/1999/xlink">
    <!-- Generator: Sketch 54.1 (76490) - https://sketchapp.com -->
    <title>5baeb9b2e4c6563a54e5a251_icon-build-your-eco</title>
    <desc>Created with Sketch.</desc>
    <g id="Page-1" stroke="none" stroke-width="1" fill="none" fill-rule="evenodd">
        <g id="Diagnostics-v15" transform="translate(-977.000000, -1062.000000)" fill-rule="nonzero">
            <g id="Group-9" transform="translate(930.000000, 996.000000)">
                <g id="5baeb9b2e4c6563a54e5a251_icon-build-your-eco" transform="translate(47.000000, 66.000000)">
                    <path d="M4.11764706,0 C1.84353338,-1.39249302e-16 2.78498603e-16,1.84353338 0,4.11764706 C-2.78498603e-16,6.39176073 1.84353338,8.23529412 4.11764706,8.23529412 C6.39176073,8.23529412 8.23529412,6.39176073 8.23529412,4.11764706 C8.23529412,3.02557916 7.80147183,1.97823952 7.02926322,1.2060309 C6.2570546,0.433822284 5.20971496,6.68698729e-17 4.11764706,0 Z M4.11764706,6.58823529 C2.75317885,6.58823529 1.64705882,5.48211526 1.64705882,4.11764706 C1.64705882,2.75317885 2.75317885,1.64705882 4.11764706,1.64705882 C5.48211526,1.64705882 6.58823529,2.75317885 6.58823529,4.11764706 C6.58823529,4.7728878 6.32794192,5.40129158 5.86461675,5.86461675 C5.40129158,6.32794192 4.7728878,6.58823529 4.11764706,6.58823529 Z" id="Shape" fill="#37B14B"></path>
                    <rect id="Rectangle" fill="#0E2C40" x="9.88235294" y="3.29411765" width="2.47058824" height="1.64705882"></rect>
                    <path d="M24.7058824,14 L24.7058824,9.05882353 C24.6790326,5.88625245 22.1137475,3.32096736 18.9411765,3.29411765 L14,3.29411765 L14,4.94117647 L18.9411765,4.94117647 C21.2059826,4.96349145 23.0365085,6.79401742 23.0588235,9.05882353 L23.0588235,14 L20.5882353,14 L23.8823529,18.1176471 L27.1764706,14 L24.7058824,14 Z" id="Path" fill="#0E2C40"></path>
                    <path d="M23.8823529,19.7647059 C21.6082393,19.7647059 19.7647059,21.6082393 19.7647059,23.8823529 C19.7647059,26.1564666 21.6082393,28 23.8823529,28 C26.1564666,28 28,26.1564666 28,23.8823529 C28,21.6082393 26.1564666,19.7647059 23.8823529,19.7647059 L23.8823529,19.7647059 Z M23.8823529,26.3529412 C22.5178847,26.3529412 21.4117647,25.2468211 21.4117647,23.8823529 C21.4117647,22.5178847 22.5178847,21.4117647 23.8823529,21.4117647 C25.2468211,21.4117647 26.3529412,22.5178847 26.3529412,23.8823529 C26.3529412,25.2468211 25.2468211,26.3529412 23.8823529,26.3529412 Z" id="Shape" fill="#3FBC5C"></path>
                    <path d="M4.94117647,18.9411765 L4.94117647,14 L7.41176471,14 L4.11764706,9.88235294 L0.823529412,14 L3.29411765,14 L3.29411765,18.9411765 C3.32096736,22.1137475 5.88625245,24.6790326 9.05882353,24.7058824 L14,24.7058824 L14,23.0588235 L9.05882353,23.0588235 C6.79401742,23.0365085 4.96349145,21.2059826 4.94117647,18.9411765 Z" id="Path" fill="#0E2C40"></path>
                    <rect id="Rectangle" fill="#0E2C40" x="15.6470588" y="23.0588235" width="2.47058824" height="1.64705882"></rect>
                </g>
            </g>
        </g>
    </g>
</svg>