<?xml version="1.0" encoding="UTF-8"?><svg xmlns="http://www.w3.org/2000/svg" width="32" height="32" viewBox="0 0 32 32"><g><g><g><path fill="#0e2c40" d="M15.9 10.453V14.8L7.89 6.79l-1.1 1.1 8.01 8.01h-4.347v1.557h7.004v-7.004z"/></g><g><path fill="#3fbc5c" d="M24.723 31.995c-4.01 0-7.273-3.262-7.273-7.272s3.263-7.273 7.273-7.273 7.272 3.263 7.272 7.273-3.262 7.272-7.272 7.272m0-13.014a5.748 5.748 0 0 0-5.742 5.742 5.748 5.748 0 0 0 5.742 5.741 5.748 5.748 0 0 0 5.741-5.741 5.748 5.748 0 0 0-5.741-5.742"/></g><g><path fill="#0e2c40" d="M13.576 27.152C6.09 27.152 0 21.06 0 13.576 0 6.09 6.09 0 13.576 0c7.485 0 13.576 6.09 13.576 13.576 0 .97-.104 1.938-.307 2.879l-1.517-.328c.18-.833.272-1.69.272-2.551 0-6.63-5.394-12.024-12.024-12.024-6.63 0-12.024 5.393-12.024 12.024 0 6.63 5.393 12.024 12.024 12.024.86 0 1.718-.092 2.551-.272l.328 1.517c-.94.203-1.91.307-2.88.307"/></g></g></g></svg>